<svg width="28" height="20" viewBox="0 0 28 20" fill="none" xmlns="http://www.w3.org/2000/svg">
<mask id="mask0_6748_103493" style="mask-type:luminance" maskUnits="userSpaceOnUse" x="0" y="0" width="28" height="20">
<rect width="28" height="20" rx="2" fill="white"/>
</mask>
<g mask="url(#mask0_6748_103493)">
<rect width="28" height="20" fill="#EE343C"/>
<path fill-rule="evenodd" clip-rule="evenodd" d="M12.3861 4.38646C12.1614 4.16175 11.8093 4.12689 11.5449 4.30316L10.9555 4.6961C10.5296 4.98004 10.5693 5.61817 11.0272 5.84709L12.2978 6.4824C12.5237 6.59533 12.6663 6.82617 12.6663 7.07869V7.33333C12.6663 7.70152 12.3679 8 11.9997 8H11.4904C11.3869 8 11.2848 7.9759 11.1922 7.92962L9.09612 6.88156C8.83946 6.75323 8.52948 6.80353 8.32657 7.00644L7.98705 7.34596C7.66529 7.66772 7.75331 8.21015 8.16031 8.41365L9.10425 8.88562C9.50324 9.08511 9.53786 9.64121 9.1667 9.88865C8.73604 10.1758 8.86748 10.8402 9.37502 10.9417L9.93696 11.0541C10.4765 11.162 10.6342 11.8574 10.1941 12.1875L9.69096 12.5649C9.36274 12.811 9.53684 13.3333 9.94712 13.3333C9.98202 13.3333 10.0168 13.3291 10.0507 13.3206L11.3124 13.0051C11.7909 12.8855 12.1658 13.4175 11.8922 13.8278C11.6532 14.1864 11.9102 14.6667 12.3411 14.6667H12.9246C13.1685 14.6667 13.385 14.8227 13.4621 15.0541C13.6343 15.5707 14.365 15.5707 14.5372 15.0541C14.6143 14.8227 14.8308 14.6667 15.0747 14.6667H15.6582C16.0891 14.6667 16.3462 14.1864 16.1071 13.8278C15.8336 13.4175 16.2085 12.8855 16.6869 13.0051L17.9487 13.3206C17.9826 13.3291 18.0173 13.3333 18.0522 13.3333C18.4625 13.3333 18.6366 12.811 18.3084 12.5649L17.8053 12.1875C17.3651 11.8574 17.5228 11.162 18.0624 11.0541L18.6243 10.9417C19.1319 10.8402 19.2633 10.1758 18.8327 9.88865C18.4615 9.64121 18.4961 9.08511 18.8951 8.88562L19.839 8.41365C20.246 8.21015 20.3341 7.66772 20.0123 7.34596L19.6728 7.00644C19.4699 6.80353 19.1599 6.75323 18.9032 6.88156L16.8071 7.92962C16.7145 7.9759 16.6125 8 16.509 8H15.9997C15.6315 8 15.333 7.70152 15.333 7.33333V7.07869C15.333 6.82617 15.4757 6.59534 15.7015 6.48242C16.0941 6.28612 16.5618 6.05229 16.9724 5.84697C17.4302 5.61805 17.4697 4.98004 17.0438 4.6961L16.4544 4.30316C16.19 4.12689 15.8379 4.16175 15.6132 4.38646L14.4711 5.5286C14.2107 5.78895 13.7886 5.78894 13.5283 5.5286L12.3861 4.38646Z" fill="#262626"/>
</g>
</svg>
