<svg width="28" height="20" viewBox="0 0 28 20" fill="none" xmlns="http://www.w3.org/2000/svg">
<rect width="28" height="20" rx="2" fill="white"/>
<mask id="mask0_6748_103513" style="mask-type:luminance" maskUnits="userSpaceOnUse" x="0" y="0" width="28" height="20">
<rect width="28" height="20" rx="2" fill="white"/>
</mask>
<g mask="url(#mask0_6748_103513)">
<rect width="28" height="20" fill="url(#paint0_linear_6748_103513)"/>
<g filter="url(#filter0_d_6748_103513)">
<path fill-rule="evenodd" clip-rule="evenodd" d="M0 19.9998H28V10.6665H0V19.9998Z" fill="#262626"/>
</g>
<g filter="url(#filter1_d_6748_103513)">
<path fill-rule="evenodd" clip-rule="evenodd" d="M0 10.6667H28V0H0V10.6667Z" fill="#DD2137"/>
</g>
<g filter="url(#filter2_d_6748_103513)">
<path fill-rule="evenodd" clip-rule="evenodd" d="M16.1982 11.5529C16.3646 11.2612 16.4966 10.9436 16.5876 10.604C17.1594 8.47013 15.893 6.27678 13.7592 5.70501C13.4035 5.60972 13.038 5.82077 12.9427 6.17641C12.8474 6.53206 13.0584 6.89762 13.4141 6.99291C14.8367 7.37409 15.6809 8.83632 15.2997 10.2589C15.2474 10.4542 15.1747 10.6386 15.0845 10.8104L13.0369 9.44538C12.7306 9.24114 12.3166 9.32393 12.1124 9.63028C11.9082 9.93663 11.991 10.3505 12.2973 10.5548L14.1746 11.8063C13.5632 12.2024 12.7928 12.3479 12.0337 12.1445C11.6781 12.0492 11.3125 12.2603 11.2172 12.6159C11.1219 12.9716 11.333 13.3371 11.6886 13.4324C13.0218 13.7896 14.3781 13.4294 15.3478 12.5884L16.2973 13.2214C16.6037 13.4257 17.0176 13.3429 17.2218 13.0365C17.426 12.7302 17.3433 12.3163 17.0369 12.112L16.1982 11.5529ZM12.6671 8.66675C13.0353 8.66675 13.3338 8.36827 13.3338 8.00008C13.3338 7.63189 13.0353 7.33341 12.6671 7.33341C12.2989 7.33341 12.0004 7.63189 12.0004 8.00008C12.0004 8.36827 12.2989 8.66675 12.6671 8.66675Z" fill="#F8D84B"/>
</g>
</g>
<defs>
<filter id="filter0_d_6748_103513" x="0" y="10.6665" width="28" height="9.3335" filterUnits="userSpaceOnUse" color-interpolation-filters="sRGB">
<feFlood flood-opacity="0" result="BackgroundImageFix"/>
<feColorMatrix in="SourceAlpha" type="matrix" values="0 0 0 0 0 0 0 0 0 0 0 0 0 0 0 0 0 0 127 0" result="hardAlpha"/>
<feOffset/>
<feColorMatrix type="matrix" values="0 0 0 0 0 0 0 0 0 0 0 0 0 0 0 0 0 0 0.06 0"/>
<feBlend mode="normal" in2="BackgroundImageFix" result="effect1_dropShadow_6748_103513"/>
<feBlend mode="normal" in="SourceGraphic" in2="effect1_dropShadow_6748_103513" result="shape"/>
</filter>
<filter id="filter1_d_6748_103513" x="0" y="0" width="28" height="10.6665" filterUnits="userSpaceOnUse" color-interpolation-filters="sRGB">
<feFlood flood-opacity="0" result="BackgroundImageFix"/>
<feColorMatrix in="SourceAlpha" type="matrix" values="0 0 0 0 0 0 0 0 0 0 0 0 0 0 0 0 0 0 127 0" result="hardAlpha"/>
<feOffset/>
<feColorMatrix type="matrix" values="0 0 0 0 0 0 0 0 0 0 0 0 0 0 0 0 0 0 0.06 0"/>
<feBlend mode="normal" in2="BackgroundImageFix" result="effect1_dropShadow_6748_103513"/>
<feBlend mode="normal" in="SourceGraphic" in2="effect1_dropShadow_6748_103513" result="shape"/>
</filter>
<filter id="filter2_d_6748_103513" x="11.1943" y="5.68213" width="6.13965" height="8.8877" filterUnits="userSpaceOnUse" color-interpolation-filters="sRGB">
<feFlood flood-opacity="0" result="BackgroundImageFix"/>
<feColorMatrix in="SourceAlpha" type="matrix" values="0 0 0 0 0 0 0 0 0 0 0 0 0 0 0 0 0 0 127 0" result="hardAlpha"/>
<feOffset dy="1"/>
<feColorMatrix type="matrix" values="0 0 0 0 0 0 0 0 0 0 0 0 0 0 0 0 0 0 0.06 0"/>
<feBlend mode="normal" in2="BackgroundImageFix" result="effect1_dropShadow_6748_103513"/>
<feBlend mode="normal" in="SourceGraphic" in2="effect1_dropShadow_6748_103513" result="shape"/>
</filter>
<linearGradient id="paint0_linear_6748_103513" x1="0" y1="0" x2="0" y2="20" gradientUnits="userSpaceOnUse">
<stop stop-color="#FF323E"/>
<stop offset="1" stop-color="#FD0D1B"/>
</linearGradient>
</defs>
</svg>
