<svg width="28" height="20" viewBox="0 0 28 20" fill="none" xmlns="http://www.w3.org/2000/svg">
<rect width="28" height="20" rx="2" fill="white"/>
<mask id="mask0_6748_103615" style="mask-type:luminance" maskUnits="userSpaceOnUse" x="0" y="0" width="28" height="20">
<rect width="28" height="20" rx="2" fill="white"/>
</mask>
<g mask="url(#mask0_6748_103615)">
<rect width="28" height="20" fill="#E4233B"/>
<path fill-rule="evenodd" clip-rule="evenodd" d="M0 0L12 10L0 20V0Z" fill="#34CD4E"/>
<path fill-rule="evenodd" clip-rule="evenodd" d="M28 0L16 10L28 20V0Z" fill="#34CD4E"/>
<path fill-rule="evenodd" clip-rule="evenodd" d="M16.9623 6.39369C16.1566 5.7311 15.1248 5.33328 14.0002 5.33328C12.8756 5.33328 11.8439 5.7311 11.0381 6.39369L-1.28226 -1.9165L-2.77344 0.294263L9.54597 8.60381C9.40794 9.04464 9.33355 9.5136 9.33355 9.99994C9.33355 10.4863 9.40794 10.9552 9.54597 11.3961L-2.77344 19.7056L-1.28226 21.9164L11.0381 13.6062C11.8439 14.2688 12.8756 14.6666 14.0002 14.6666C15.1248 14.6666 16.1566 14.2688 16.9623 13.6062L29.2827 21.9164L30.7739 19.7056L18.4545 11.3961C18.5925 10.9552 18.6669 10.4863 18.6669 9.99994C18.6669 9.5136 18.5925 9.04464 18.4545 8.60381L30.7739 0.294263L29.2827 -1.9165L16.9623 6.39369Z" fill="white"/>
<path fill-rule="evenodd" clip-rule="evenodd" d="M14.0004 8.6666L13.0576 8.94275L13.3338 7.99994L13.0576 7.05713L14.0004 7.33327L14.9432 7.05713L14.6671 7.99994L14.9432 8.94275L14.0004 8.6666ZM12.0004 11.9999L11.0576 12.2761L11.3338 11.3333L11.0576 10.3905L12.0004 10.6666L12.9432 10.3905L12.6671 11.3333L12.9432 12.2761L12.0004 11.9999ZM15.0576 12.2761L16.0004 11.9999L16.9432 12.2761L16.6671 11.3333L16.9432 10.3905L16.0004 10.6666L15.0576 10.3905L15.3338 11.3333L15.0576 12.2761Z" fill="#DF2239"/>
</g>
</svg>
