<svg width="28" height="20" viewBox="0 0 28 20" fill="none" xmlns="http://www.w3.org/2000/svg">
<rect x="0.25" y="0.25" width="27.5" height="19.5" rx="1.75" fill="white" stroke="#F5F5F5" stroke-width="0.5"/>
<mask id="mask0_6748_103757" style="mask-type:luminance" maskUnits="userSpaceOnUse" x="0" y="0" width="28" height="20">
<rect x="0.25" y="0.25" width="27.5" height="19.5" rx="1.75" fill="white" stroke="white" stroke-width="0.5"/>
</mask>
<g mask="url(#mask0_6748_103757)">
<rect x="20" width="8" height="20" fill="#FF3131"/>
<path fill-rule="evenodd" clip-rule="evenodd" d="M0 20H8V0H0V20Z" fill="#FF3131"/>
<path fill-rule="evenodd" clip-rule="evenodd" d="M16.1115 9.22169C15.8783 9.4549 15.4842 9.24401 15.5489 8.92062L15.9997 6.66683L14.6663 7.3335L13.9997 5.3335L13.333 7.3335L11.9997 6.66683L12.4504 8.92062C12.5151 9.24401 12.1211 9.4549 11.8879 9.22169L11.5687 8.90253C11.4385 8.77236 11.2275 8.77236 11.0973 8.90253L10.6663 9.3335L9.33301 8.66683L9.99967 10.0002L9.56871 10.4311C9.43854 10.5613 9.43854 10.7724 9.56871 10.9025L11.333 12.6668H13.333L13.6663 14.6668H14.333L14.6663 12.6668H16.6663L18.4306 10.9025C18.5608 10.7724 18.5608 10.5613 18.4306 10.4311L17.9997 10.0002L18.6663 8.66683L17.333 9.3335L16.902 8.90253C16.7719 8.77236 16.5608 8.77236 16.4306 8.90253L16.1115 9.22169Z" fill="#FF3131"/>
</g>
</svg>
