<svg width="28" height="20" viewBox="0 0 28 20" fill="none" xmlns="http://www.w3.org/2000/svg">
<rect width="28" height="20" rx="2" fill="white"/>
<mask id="mask0_6748_105390" style="mask-type:luminance" maskUnits="userSpaceOnUse" x="0" y="0" width="28" height="20">
<rect width="28" height="20" rx="2" fill="white"/>
</mask>
<g mask="url(#mask0_6748_105390)">
<rect width="28" height="20" fill="#19BFBF"/>
<path fill-rule="evenodd" clip-rule="evenodd" d="M8.0282 5.50238C8.0105 5.39619 8.04518 5.28799 8.1213 5.21187L10.569 2.76414C10.6315 2.70162 10.7163 2.6665 10.8047 2.6665H12.4607C12.5869 2.6665 12.7023 2.73784 12.7588 2.85077L13.2412 3.81558C13.2977 3.9285 13.4131 3.99984 13.5393 3.99984H15.794C15.9202 3.99984 16.0357 4.07117 16.0921 4.1841L17.9079 7.81558C17.9643 7.9285 18.0798 7.99984 18.206 7.99984H19.3333C19.608 7.99984 19.7648 8.31343 19.6 8.53317L18.018 10.6425C18.006 10.6585 17.9955 10.6755 17.9866 10.6934L17.3685 11.9295C17.3454 11.9757 17.3333 12.0268 17.3333 12.0785V13.2545C17.3333 13.3062 17.3213 13.3573 17.2981 13.4036L16.6667 14.6665L16 15.9998L15.4255 17.1489C15.369 17.2618 15.2536 17.3332 15.1273 17.3332H14.206C14.0798 17.3332 13.9643 17.2618 13.9079 17.1489L13.3685 16.0702C13.3454 16.0239 13.3333 15.9729 13.3333 15.9211V12.1379C13.3333 12.0495 13.2982 11.9647 13.2357 11.9022L12.7223 11.3888C12.6857 11.3522 12.6581 11.3076 12.6418 11.2585L12.076 9.56109C12.0306 9.42498 11.9032 9.33317 11.7597 9.33317H8.94904C8.7861 9.33317 8.64703 9.21537 8.62024 9.05464L8.0282 5.50238Z" fill="white"/>
<path fill-rule="evenodd" clip-rule="evenodd" d="M18.667 13.6668C18.667 13.4827 18.8162 13.3335 19.0003 13.3335H19.667C19.8511 13.3335 20.0003 13.4827 20.0003 13.6668V14.5881C20.0003 14.6399 19.9883 14.6909 19.9651 14.7372L19.4258 15.8159C19.3693 15.9288 19.2539 16.0002 19.1276 16.0002H19.0003C18.8162 16.0002 18.667 15.8509 18.667 15.6668V13.6668Z" fill="white"/>
</g>
</svg>
