<svg width="28" height="20" viewBox="0 0 28 20" fill="none" xmlns="http://www.w3.org/2000/svg">
<rect width="28" height="20" rx="2" fill="white"/>
<mask id="mask0_6748_105396" style="mask-type:luminance" maskUnits="userSpaceOnUse" x="0" y="0" width="28" height="20">
<rect width="28" height="20" rx="2" fill="white"/>
</mask>
<g mask="url(#mask0_6748_105396)">
<rect width="28" height="20" fill="#19BFBF"/>
<path fill-rule="evenodd" clip-rule="evenodd" d="M17.098 17.7641L16.056 16.7221C16.0194 16.6856 15.9918 16.6409 15.9754 16.5919L15.4096 14.8943C15.3642 14.7582 15.237 14.6665 15.0936 14.6665C14.8769 14.6665 14.7179 14.8701 14.7705 15.0804L15.2879 17.1501C15.3163 17.2637 15.283 17.3838 15.2002 17.4666L14.9027 17.7641C14.7725 17.8943 14.5615 17.8943 14.4313 17.7641L14.098 17.4308C14.0354 17.3683 14.0003 17.2835 14.0003 17.1951V16.0785C14.0003 16.0268 13.9883 15.9757 13.9651 15.9295L13.4258 14.8508C13.3693 14.7378 13.2539 14.6665 13.1276 14.6665H11.4123C11.3606 14.6665 11.3096 14.6786 11.2633 14.7017L10.1238 15.2714C10.0447 15.311 9.98462 15.3803 9.95666 15.4642L9.37732 17.2022C9.34936 17.2861 9.28924 17.3554 9.21016 17.3949L8.1494 17.9253C8.05555 17.9722 7.9451 17.9722 7.85125 17.9253L6.85125 17.4253C6.73833 17.3688 6.66699 17.2534 6.66699 17.1272V14.9998C6.66699 14.8157 6.81623 14.6665 7.00033 14.6665H8.33366C8.51775 14.6665 8.66699 14.5173 8.66699 14.3332V13.3873C8.66699 13.3514 8.67277 13.3158 8.6841 13.2819L9.25768 11.5611C9.30306 11.425 9.43044 11.3332 9.57391 11.3332H10.5883C10.6401 11.3332 10.6911 11.3211 10.7374 11.298L11.9299 10.7017C11.9762 10.6786 12.0273 10.6665 12.079 10.6665H13.0003C13.1844 10.6665 13.3337 10.5173 13.3337 10.3332V10.1379C13.3337 10.0495 13.3688 9.96472 13.4313 9.90221L13.6733 9.66019C13.8342 9.49931 14.1054 9.54332 14.2072 9.74682L14.5749 10.4822C14.6313 10.5952 14.7467 10.6665 14.873 10.6665H16.4267C16.5702 10.6665 16.6976 10.5747 16.743 10.4386L17.2577 8.89443C17.3031 8.75831 17.4304 8.6665 17.5739 8.6665H18.3337C18.5178 8.6665 18.667 8.51727 18.667 8.33317C18.667 8.14908 18.5178 7.99984 18.3337 7.99984H17.667C17.4829 7.99984 17.3337 7.8506 17.3337 7.6665V6.74519C17.3337 6.69344 17.3457 6.64241 17.3688 6.59612L17.8929 5.54806C17.957 5.41973 17.9319 5.26474 17.8304 5.16329L17.5694 4.90221C17.4392 4.77203 17.2281 4.77203 17.098 4.90221L16.098 5.90221C16.0354 5.96472 16.0003 6.0495 16.0003 6.13791V7.27908C16.0003 7.31491 15.9945 7.3505 15.9832 7.38449L15.4096 9.10525C15.3643 9.24136 15.2369 9.33317 15.0934 9.33317H14.8051C14.7167 9.33317 14.6319 9.29805 14.5694 9.23554L14.0964 8.76259C14.0349 8.70107 14.0003 8.61763 14.0003 8.53062C14.0003 8.28676 13.7437 8.12815 13.5256 8.23721L12.8819 8.55906C12.7536 8.62322 12.5986 8.59807 12.4971 8.49662L12.098 8.09747C12.0354 8.03496 12.0003 7.95017 12.0003 7.86177V6.80458C12.0003 6.71617 12.0354 6.63138 12.098 6.56887L13.3337 5.33317L15.278 3.38881C15.3146 3.35222 15.3592 3.32465 15.4083 3.30829L17.2823 2.68361C17.3163 2.67228 17.3519 2.6665 17.3878 2.6665H18.461C18.5872 2.6665 18.7027 2.73784 18.7591 2.85077L19.2985 3.92946C19.3216 3.97574 19.3337 4.02678 19.3337 4.07853V5.86177C19.3337 5.95017 19.3688 6.03496 19.4313 6.09747L19.8547 6.52083C19.9439 6.61011 19.9751 6.74217 19.9352 6.86194L19.4142 8.42497C19.3666 8.56757 19.4204 8.72435 19.5455 8.80773L21.3337 9.99984L22.3293 10.4976C22.5086 10.5873 22.5688 10.8139 22.4575 10.9807L21.3896 12.5825C21.3531 12.6373 21.3337 12.7016 21.3337 12.7674V14.4263C21.3337 14.5697 21.2418 14.6971 21.1057 14.7425L19.4646 15.2895C19.3808 15.3175 19.3114 15.3776 19.2719 15.4567L18.6912 16.6181C18.6752 16.6502 18.6541 16.6794 18.6287 16.7048L17.5694 17.7641C17.4392 17.8943 17.2281 17.8943 17.098 17.7641ZM11.3337 17.3332C11.7018 17.3332 12.0003 17.0347 12.0003 16.6665C12.0003 16.2983 11.7018 15.9998 11.3337 15.9998C10.9655 15.9998 10.667 16.2983 10.667 16.6665C10.667 17.0347 10.9655 17.3332 11.3337 17.3332ZM9.33366 8.6665C9.33366 9.03469 9.03518 9.33317 8.66699 9.33317C8.2988 9.33317 8.00033 9.03469 8.00033 8.6665C8.00033 8.29831 8.2988 7.99984 8.66699 7.99984C9.03518 7.99984 9.33366 8.29831 9.33366 8.6665Z" fill="white"/>
<path fill-rule="evenodd" clip-rule="evenodd" d="M9.96448 8.73689C9.98763 8.6906 9.99967 8.63956 9.99967 8.58781V8.07853C9.99967 8.02678 9.98763 7.97574 9.96448 7.92946L9.57421 7.14891C9.46339 6.92727 9.62456 6.6665 9.87235 6.6665H10.333C10.5171 6.6665 10.6663 6.81574 10.6663 6.99984V8.58781C10.6663 8.63956 10.6784 8.6906 10.7015 8.73689L11.0918 9.51743C11.2026 9.73907 11.0415 9.99984 10.7937 9.99984H9.87235C9.62456 9.99984 9.46339 9.73907 9.57421 9.51743L9.96448 8.73689Z" fill="white"/>
</g>
</svg>
