<svg width="28" height="20" viewBox="0 0 28 20" fill="none" xmlns="http://www.w3.org/2000/svg">
<rect width="28" height="20" rx="2" fill="white"/>
<mask id="mask0_6748_103780" style="mask-type:luminance" maskUnits="userSpaceOnUse" x="0" y="0" width="28" height="20">
<rect width="28" height="20" rx="2" fill="white"/>
</mask>
<g mask="url(#mask0_6748_103780)">
<rect width="28" height="20" fill="#F1361D"/>
<path fill-rule="evenodd" clip-rule="evenodd" d="M10.0723 3.10054L11.0407 3.26565L11.767 3.92714L11.9322 2.9587L12.5936 2.23236L11.6252 2.06726L10.8989 1.40576L10.7338 2.37421L10.0723 3.10054ZM12.6663 6.48782L13.5055 5.97707L14.4877 5.99979L13.9769 5.16057L13.9996 4.17842L13.1604 4.68917L12.1783 4.66645L12.689 5.50567L12.6663 6.48782ZM11.5279 11.9707L10.707 12.5104L10.6954 11.528L10.1557 10.7072L11.138 10.6956L11.9589 10.1559L11.9705 11.1382L12.5102 11.9591L11.5279 11.9707ZM12.2408 9.43122L13.2172 9.32299L14.0977 9.75866L13.9895 8.78222L14.4252 7.90168L13.4487 8.00991L12.5682 7.57425L12.6764 8.55069L12.2408 9.43122Z" fill="#FFDC42"/>
<path fill-rule="evenodd" clip-rule="evenodd" d="M6.66699 8.2265L4.31585 9.90257L5.18334 7.14857L2.86277 5.43044L5.75005 5.40444L6.66699 2.6665L7.58394 5.40444L10.4712 5.43044L8.15064 7.14857L9.01813 9.90257L6.66699 8.2265Z" fill="#FFDC42"/>
</g>
</svg>
