<svg width="28" height="20" viewBox="0 0 28 20" fill="none" xmlns="http://www.w3.org/2000/svg">
<rect width="28" height="20" rx="2" fill="white"/>
<mask id="mask0_6748_105416" style="mask-type:luminance" maskUnits="userSpaceOnUse" x="0" y="0" width="28" height="20">
<rect width="28" height="20" rx="2" fill="white"/>
</mask>
<g mask="url(#mask0_6748_105416)">
<rect width="28" height="20" fill="url(#paint0_linear_6748_105416)"/>
<path fill-rule="evenodd" clip-rule="evenodd" d="M13.4449 3.33317C13.3728 3.33317 13.3026 3.35656 13.2449 3.39984L10.721 5.29278C10.6854 5.31944 10.6449 5.33872 10.6018 5.3495L8.03594 5.99096C8.01234 5.99686 7.98947 6.00532 7.96771 6.0162L5.43315 7.28348C5.36865 7.31573 5.31634 7.36804 5.28408 7.43255L4.08695 9.82682C4.03345 9.93381 4.04139 10.0613 4.10774 10.1608L5.27779 11.9159C5.31429 11.9706 5.33377 12.035 5.33377 12.1008V13.8618C5.33377 13.9502 5.36889 14.035 5.4314 14.0975L6.49722 15.1633C6.59868 15.2647 6.75367 15.2899 6.882 15.2257L10.5967 13.3684C10.643 13.3452 10.694 13.3332 10.7458 13.3332H13.2131C13.2911 13.3332 13.3666 13.3605 13.4265 13.4104L17.2411 16.5892C17.301 16.6392 17.3765 16.6665 17.4545 16.6665H19.822C19.9335 16.6665 20.0376 16.6108 20.0994 16.5181L22.6111 12.7505C22.6476 12.6957 22.6671 12.6314 22.6671 12.5656V10.1008C22.6671 10.035 22.6476 9.97062 22.6111 9.91586L20.0004 5.99984L18.0975 2.82834C18.0373 2.72794 17.9288 2.6665 17.8117 2.6665H17.3932C17.1252 2.6665 16.991 2.99044 17.1805 3.1799C17.272 3.27143 17.2947 3.41127 17.2368 3.52705L16.7592 4.48224C16.7028 4.59517 16.5874 4.6665 16.4611 4.6665H14.8731C14.7469 4.6665 14.6314 4.59517 14.575 4.48224L14.0926 3.51743C14.0361 3.4045 13.9207 3.33317 13.7944 3.33317H13.4449ZM19.3338 17.3332H18.0004L18.4314 17.7641C18.5616 17.8943 18.7726 17.8943 18.9028 17.7641L19.3338 17.3332Z" fill="white"/>
</g>
<defs>
<linearGradient id="paint0_linear_6748_105416" x1="0" y1="0" x2="0" y2="20" gradientUnits="userSpaceOnUse">
<stop stop-color="#19BFBF"/>
<stop offset="1" stop-color="#10ACAC"/>
</linearGradient>
</defs>
</svg>
