<svg width="28" height="20" viewBox="0 0 28 20" fill="none" xmlns="http://www.w3.org/2000/svg">
<rect width="28" height="20" rx="2" fill="white"/>
<mask id="mask0_6748_105385" style="mask-type:luminance" maskUnits="userSpaceOnUse" x="0" y="0" width="28" height="20">
<rect width="28" height="20" rx="2" fill="white"/>
</mask>
<g mask="url(#mask0_6748_105385)">
<rect width="28" height="20" fill="#19BFBF"/>
<path fill-rule="evenodd" clip-rule="evenodd" d="M9.99967 16.0409C9.99967 16.0136 10.003 15.9865 10.0096 15.96L10.6663 13.3332L11.3095 10.7607C11.3248 10.6992 11.3224 10.6346 11.3023 10.5744L10.71 8.79749C10.682 8.71362 10.6219 8.64429 10.5428 8.60476L9.51727 8.09197C9.40434 8.0355 9.33301 7.92008 9.33301 7.79383V5.41186C9.33301 5.36011 9.34506 5.30907 9.3682 5.26279L9.99967 3.99984L10.5742 2.85077C10.6307 2.73784 10.7461 2.6665 10.8724 2.6665H14.333C14.5171 2.6665 14.6663 2.81574 14.6663 2.99984V3.6665C14.6663 3.8506 14.8156 3.99984 14.9997 3.99984H15.6663C15.8504 3.99984 15.9997 4.14908 15.9997 4.33317V5.12716C15.9997 5.25342 16.071 5.36884 16.1839 5.4253L18.4821 6.57437C18.595 6.63084 18.6663 6.74626 18.6663 6.87252V7.92115C18.6663 7.9729 18.6543 8.02393 18.6312 8.07022L18.0393 9.25399C18.0133 9.30588 17.9743 9.3501 17.926 9.38227L16.0733 10.6174C16.0251 10.6496 15.986 10.6938 15.9601 10.7457L14.7059 13.254C14.68 13.3059 14.641 13.3501 14.5927 13.3823L12.74 14.6174C12.6917 14.6496 12.6527 14.6938 12.6268 14.7457L11.4251 17.1489C11.3687 17.2618 11.2533 17.3332 11.127 17.3332H10.333C10.1489 17.3332 9.99967 17.1839 9.99967 16.9998V16.0409Z" fill="white"/>
</g>
</svg>
