<svg width="28" height="20" viewBox="0 0 28 20" fill="none" xmlns="http://www.w3.org/2000/svg">
<rect x="0.25" y="0.25" width="27.5" height="19.5" rx="1.75" fill="white" stroke="#F5F5F5" stroke-width="0.5"/>
<mask id="mask0_6748_103852" style="mask-type:luminance" maskUnits="userSpaceOnUse" x="0" y="0" width="28" height="20">
<rect x="0.25" y="0.25" width="27.5" height="19.5" rx="1.75" fill="white" stroke="white" stroke-width="0.5"/>
</mask>
<g mask="url(#mask0_6748_103852)">
<path fill-rule="evenodd" clip-rule="evenodd" d="M19.9997 3.33317C20.3628 3.15162 20.7313 3.56907 20.5061 3.90685L20.0669 4.56564C20.0225 4.63222 19.9654 4.68936 19.8988 4.73375L18.0546 5.96322C18.0181 5.98757 17.984 6.01547 17.953 6.04652L17.8044 6.1951C17.5441 6.45545 17.5441 6.87756 17.8044 7.13791L18.1949 7.52843C18.4553 7.78878 18.4553 8.21089 18.1949 8.47124L17.6728 8.9934C17.4699 9.19631 17.1599 9.24661 16.9032 9.11828L16.596 8.96465C16.2666 8.79999 15.8662 8.93347 15.7015 9.26279L15.4565 9.75285C15.3774 9.91099 15.2388 10.0312 15.071 10.0872L13.4356 10.6323C13.3677 10.655 13.2965 10.6665 13.2248 10.6665H12.4117C12.1592 10.6665 11.9283 10.8092 11.8154 11.035L11.6312 11.4036C11.4665 11.7329 11.066 11.8664 10.7367 11.7017L8.7631 10.7149C8.69902 10.6828 8.64051 10.6407 8.58984 10.59L7.52827 9.52843C7.40325 9.40341 7.33301 9.23384 7.33301 9.05703V8.47124C7.33301 8.21089 7.54406 7.99984 7.80441 7.99984C7.92944 7.99984 8.04934 7.95017 8.13775 7.86177L9.13775 6.86177C9.26277 6.73674 9.43234 6.6665 9.60915 6.6665H10.1858C10.4728 6.6665 10.7275 6.48288 10.8183 6.21066L11.1469 5.22482C11.2532 4.90586 11.5804 4.71599 11.9101 4.78192L14.5193 5.30377C14.6161 5.32313 14.716 5.32075 14.8118 5.29681L17.262 4.68425C17.3092 4.67246 17.355 4.65553 17.3985 4.63378L18.6663 3.99984L19.9997 3.33317Z" fill="#E7832C"/>
<path fill-rule="evenodd" clip-rule="evenodd" d="M13.9997 15.9998C14.3679 15.9998 14.6663 15.7014 14.6663 15.3332C14.6663 14.965 14.3679 14.6665 13.9997 14.6665C13.6315 14.6665 13.333 14.965 13.333 15.3332C13.333 15.7014 13.6315 15.9998 13.9997 15.9998Z" fill="#445128"/>
<path opacity="0.75" d="M16 14.6665C16 14.6665 18 13.9998 18.6667 12.6665" stroke="#445128" stroke-width="1.33333" stroke-linecap="round"/>
<path opacity="0.75" d="M12 14.6665C12 14.6665 10 13.9998 9.33333 12.6665" stroke="#445128" stroke-width="1.33333" stroke-linecap="round"/>
</g>
</svg>
