<svg width="28" height="20" viewBox="0 0 28 20" fill="none" xmlns="http://www.w3.org/2000/svg">
<rect width="28" height="20" rx="2" fill="white"/>
<mask id="mask0_6748_103917" style="mask-type:luminance" maskUnits="userSpaceOnUse" x="0" y="0" width="28" height="20">
<rect width="28" height="20" rx="2" fill="white"/>
</mask>
<g mask="url(#mask0_6748_103917)">
<path fill-rule="evenodd" clip-rule="evenodd" d="M0 14.6668H28V9.3335H0V14.6668Z" fill="#0748AE"/>
<path fill-rule="evenodd" clip-rule="evenodd" d="M0 19.9998H28V14.6665H0V19.9998Z" fill="#DE2035"/>
<path fill-rule="evenodd" clip-rule="evenodd" d="M0 9.33333H28V0H0V9.33333Z" fill="#FFD935"/>
<path fill-rule="evenodd" clip-rule="evenodd" d="M12.3996 8C11.7519 8.48651 11.333 9.26108 11.333 10.1335C11.333 11.6062 12.5269 12.8002 13.9997 12.8002C15.4724 12.8002 16.6663 11.6062 16.6663 10.1335C16.6663 9.26108 16.2474 8.48651 15.5997 8L14.6663 10.8002H13.333L12.3996 8Z" fill="#FFD935"/>
<path fill-rule="evenodd" clip-rule="evenodd" d="M13.9997 7.3335L14.6663 10.6668H13.333L13.9997 7.3335Z" fill="#5FC0DC"/>
<path opacity="0.66" d="M17.3337 6.00016L15.3337 5.3335L14.0003 6.66683L12.667 5.3335L10.667 6.00016" stroke="#3F2821" stroke-width="0.666667" stroke-linecap="round" stroke-linejoin="round"/>
</g>
</svg>
