<svg width="28" height="20" viewBox="0 0 28 20" fill="none" xmlns="http://www.w3.org/2000/svg">
<rect x="0.25" y="0.25" width="27.5" height="19.5" rx="1.75" fill="white" stroke="#F5F5F5" stroke-width="0.5"/>
<mask id="mask0_6748_103928" style="mask-type:luminance" maskUnits="userSpaceOnUse" x="0" y="0" width="28" height="20">
<rect x="0.25" y="0.25" width="27.5" height="19.5" rx="1.75" fill="white" stroke="white" stroke-width="0.5"/>
</mask>
<g mask="url(#mask0_6748_103928)">
<path fill-rule="evenodd" clip-rule="evenodd" d="M0 6.66667H28V0H0V6.66667Z" fill="#E41D33"/>
<path fill-rule="evenodd" clip-rule="evenodd" d="M0 20.0002H28V13.3335H0V20.0002Z" fill="#262626"/>
<path d="M12.3688 9.4824L12.6531 10.0509L12.9591 9.49398L12.9591 9.49396L12.9591 9.49391L12.9591 9.49382L12.9592 9.49366L12.9604 9.49162L12.9657 9.48219C12.9705 9.4736 12.978 9.46052 12.9878 9.44361C13.0075 9.40975 13.0366 9.3607 13.0736 9.30155C13.1478 9.18264 13.2517 9.0259 13.3718 8.8708C13.4935 8.71374 13.6237 8.56902 13.7492 8.46658C13.8833 8.3572 13.9665 8.33333 14.0003 8.33333C14.0576 8.33333 14.1514 8.3644 14.2817 8.46862C14.4073 8.56914 14.5339 8.71141 14.6503 8.86667C14.7653 9.01999 14.8624 9.17512 14.9311 9.29296C14.9653 9.35153 14.992 9.40005 15.0099 9.43345C15.0188 9.45013 15.0255 9.46298 15.0299 9.47137L15.0345 9.48049L15.0355 9.48238L15.0355 9.4824L15.0356 9.48251L15.0356 9.48258L15.0356 9.48263L15.3337 10.0787L15.6318 9.4824L16.2063 8.33333L16.667 8.33333C16.8511 8.33333 17.0003 8.48257 17.0003 8.66667V10.7543C17.0003 11.0206 16.7036 11.1794 16.4821 11.0317L15.5186 10.3893L15.4346 10.3333H15.3337H14.667H14.3337V10.6667V11.3333C14.3337 11.5174 14.1844 11.6667 14.0003 11.6667C13.8162 11.6667 13.667 11.5174 13.667 11.3333V10.6667V10.3333H13.3337H12.667H12.5661L12.4821 10.3893L11.5186 11.0317C11.297 11.1794 11.0003 11.0206 11.0003 10.7543V8.66667C11.0003 8.48257 11.1496 8.33333 11.3337 8.33333L11.7943 8.33333L12.3688 9.4824Z" fill="#F4B32E" fill-opacity="0.25" stroke="#C6A846" stroke-width="0.666667"/>
</g>
</svg>
