<svg width="28" height="20" viewBox="0 0 28 20" fill="none" xmlns="http://www.w3.org/2000/svg">
<rect width="28" height="20" rx="2" fill="white"/>
<mask id="mask0_6748_104006" style="mask-type:luminance" maskUnits="userSpaceOnUse" x="0" y="0" width="28" height="20">
<rect width="28" height="20" rx="2" fill="white"/>
</mask>
<g mask="url(#mask0_6748_104006)">
<rect width="28" height="20" fill="#95CEF5"/>
<path fill-rule="evenodd" clip-rule="evenodd" d="M12.4329 6.82405L14.0003 5.76L15.5678 6.82405L15.0402 5.00453L16.5365 3.84262L14.643 3.78214L14.0003 2L13.3577 3.78214L11.4642 3.84262L12.9605 5.00453L12.4329 6.82405ZM12.4329 17.4907L14.0003 16.4267L15.5678 17.4907L15.0402 15.6712L16.5365 14.5093L14.643 14.4488L14.0003 12.6667L13.3577 14.4488L11.4642 14.5093L12.9605 15.6712L12.4329 17.4907ZM19.3337 11.0933L17.7662 12.1574L18.2939 10.3379L16.7975 9.17595L18.691 9.11547L19.3337 7.33333L19.9763 9.11547L21.8698 9.17595L20.3735 10.3379L20.9011 12.1574L19.3337 11.0933ZM7.09958 12.1574L8.66701 11.0933L10.2344 12.1574L9.70683 10.3379L11.2032 9.17595L9.30966 9.11547L8.66701 7.33333L8.02436 9.11547L6.13086 9.17595L7.62719 10.3379L7.09958 12.1574Z" fill="white"/>
</g>
</svg>
