<svg width="28" height="20" viewBox="0 0 28 20" fill="none" xmlns="http://www.w3.org/2000/svg">
<rect x="0.25" y="0.25" width="27.5" height="19.5" rx="1.75" fill="white" stroke="#F5F5F5" stroke-width="0.5"/>
<mask id="mask0_6748_104138" style="mask-type:luminance" maskUnits="userSpaceOnUse" x="0" y="0" width="28" height="20">
<rect x="0.25" y="0.25" width="27.5" height="19.5" rx="1.75" fill="white" stroke="white" stroke-width="0.5"/>
</mask>
<g mask="url(#mask0_6748_104138)">
<path fill-rule="evenodd" clip-rule="evenodd" d="M0 20.0002H28V13.3335H0V20.0002Z" fill="#E34F4F"/>
<path fill-rule="evenodd" clip-rule="evenodd" d="M9.33301 13.3333H17.333V8H9.33301V13.3333Z" fill="#E34F4F"/>
<path fill-rule="evenodd" clip-rule="evenodd" d="M10.667 13.3333H12.0003V12H10.667V13.3333Z" fill="#181A1A"/>
<path fill-rule="evenodd" clip-rule="evenodd" d="M14.667 13.3333H16.0003V12H14.667V13.3333Z" fill="#181A1A"/>
<path fill-rule="evenodd" clip-rule="evenodd" d="M9.33301 7.99984H10.6663V6.6665H9.33301V7.99984Z" fill="#181A1A"/>
<path fill-rule="evenodd" clip-rule="evenodd" d="M13.333 7.99984H14.6663V6.6665H13.333V7.99984Z" fill="#181A1A"/>
<path fill-rule="evenodd" clip-rule="evenodd" d="M12 7.99984H13.3333V6.6665H12V7.99984Z" fill="#181A1A"/>
<path fill-rule="evenodd" clip-rule="evenodd" d="M16 7.99984H17.3333V6.6665H16V7.99984Z" fill="#181A1A"/>
<path fill-rule="evenodd" clip-rule="evenodd" d="M9.33301 6.66683H10.6663V5.3335H9.33301V6.66683Z" fill="#E34F4F"/>
<path fill-rule="evenodd" clip-rule="evenodd" d="M13.333 6.66683H14.6663V5.3335H13.333V6.66683Z" fill="#E34F4F"/>
<path fill-rule="evenodd" clip-rule="evenodd" d="M12 6.66683H13.3333V5.3335H12V6.66683Z" fill="#E34F4F"/>
<path fill-rule="evenodd" clip-rule="evenodd" d="M16 6.66683H17.3333V5.3335H16V6.66683Z" fill="#E34F4F"/>
</g>
</svg>
