<svg width="28" height="20" viewBox="0 0 28 20" fill="none" xmlns="http://www.w3.org/2000/svg">
<rect x="0.25" y="0.25" width="27.5" height="19.5" rx="1.75" fill="white" stroke="#F5F5F5" stroke-width="0.5"/>
<mask id="mask0_6748_104165" style="mask-type:luminance" maskUnits="userSpaceOnUse" x="0" y="0" width="28" height="20">
<rect x="0.25" y="0.25" width="27.5" height="19.5" rx="1.75" fill="white" stroke="white" stroke-width="0.5"/>
</mask>
<g mask="url(#mask0_6748_104165)">
<path fill-rule="evenodd" clip-rule="evenodd" d="M0 6.66667H28V0H0V6.66667Z" fill="#FF202D"/>
<path opacity="0.5" fill-rule="evenodd" clip-rule="evenodd" d="M10.667 5.33317L11.3337 4.6665L12.0003 5.33317V6.6665H10.667V5.33317ZM13.3337 5.33317L14.0003 4.6665L14.667 5.33317V6.6665H13.3337V5.33317ZM16.667 4.6665L16.0003 5.33317V6.6665H17.3337V5.33317L16.667 4.6665Z" fill="#1895DB"/>
<path opacity="0.5" fill-rule="evenodd" clip-rule="evenodd" d="M12.6667 4.6665L12 5.33317V6.6665H13.3333V5.33317L12.6667 4.6665ZM15.3333 4.6665L14.6667 5.33317V6.6665H16V5.33317L15.3333 4.6665Z" fill="#191F94"/>
<path fill-rule="evenodd" clip-rule="evenodd" d="M0 20.0002H28V13.3335H0V20.0002Z" fill="#2027AC"/>
<path fill-rule="evenodd" clip-rule="evenodd" d="M12.0003 6.6665H11.3337L10.667 7.99984H12.0003V9.33317H10.667V10.6665H12.0003V11.9998H10.667V13.3332H12.0003V14.6665H13.3337V13.3332H14.667V14.6665H16.0003V13.3332H17.3337V11.9998H16.0003V10.6665H17.3337V9.33317H16.0003V7.99984H17.3337L16.667 6.6665H16.0003V7.99984H14.667V6.6665H13.3337V7.99984H12.0003V6.6665ZM13.3337 9.33317V7.99984H14.667V9.33317H13.3337ZM13.3337 10.6665V9.33317H12.0003V10.6665H13.3337ZM14.667 10.6665H13.3337V11.9998H12.0003V13.3332H13.3337V11.9998H14.667V13.3332H16.0003V11.9998H14.667V10.6665ZM14.667 10.6665H16.0003V9.33317H14.667V10.6665Z" fill="url(#paint0_linear_6748_104165)"/>
</g>
<defs>
<linearGradient id="paint0_linear_6748_104165" x1="10.667" y1="6.6665" x2="10.667" y2="14.6665" gradientUnits="userSpaceOnUse">
<stop stop-color="#FF212E"/>
<stop offset="1" stop-color="#FD0D1B"/>
</linearGradient>
</defs>
</svg>
