<svg width="28" height="20" viewBox="0 0 28 20" fill="none" xmlns="http://www.w3.org/2000/svg">
<rect width="28" height="20" rx="2" fill="#D01129"/>
<mask id="mask0_6748_105526" style="mask-type:luminance" maskUnits="userSpaceOnUse" x="0" y="0" width="28" height="20">
<rect width="28" height="20" rx="2" fill="white"/>
</mask>
<g mask="url(#mask0_6748_105526)">
<path fill-rule="evenodd" clip-rule="evenodd" d="M13.889 10.0407C14.5499 10.0407 15.0857 9.47817 15.0857 8.78435C15.0857 8.0904 14.5499 7.52783 13.889 7.52783C13.2281 7.52783 12.6924 8.0904 12.6924 8.78435C12.6924 9.47817 13.2281 10.0407 13.889 10.0407Z" fill="#FFF101"/>
<path fill-rule="evenodd" clip-rule="evenodd" d="M12.7978 8.27913C13.1367 8.16561 13.5764 8.29772 13.8657 8.58922C14.1728 8.5305 14.4807 8.12561 14.5761 7.76512C14.4713 6.5672 13.7249 5.65968 13.498 5.03693C13.4262 4.84011 13.0935 4.53063 12.7474 4.67472C12.4629 4.79326 12.3191 4.70102 11.3635 5.20145C10.8468 5.47203 10.4119 5.74995 10.1827 5.79839C9.95343 5.84683 9.71156 5.89001 9.52819 5.73919C9.27595 5.53173 8.99308 5.47436 8.82648 5.31803C8.62236 5.12647 8.49141 4.98188 8.35335 4.92329C8.21529 4.86457 7.98158 4.99497 8.08026 5.30531C8.3029 6.00622 8.82776 6.11974 9.05308 6.77491C9.15945 7.08463 9.31067 7.31742 9.64865 7.08268C9.98663 6.84794 10.4643 6.53613 11.2787 6.50335C11.8255 6.48121 12.3907 6.27008 12.6504 5.92365C12.6478 6.22335 12.7485 6.46898 12.7219 6.85882C12.6955 7.24879 12.6997 7.73381 12.7978 8.27913Z" fill="white"/>
<path fill-rule="evenodd" clip-rule="evenodd" d="M13.4385 8.31217C13.3381 7.72244 13.5201 7.63743 13.3028 6.94617C13.172 6.53051 13.0885 6.00954 13.0864 5.76709L12.999 5.79376C13.0011 6.0362 13.0848 6.5573 13.2154 6.97296C13.4257 7.64134 13.2622 7.74287 13.3421 8.2822C13.3668 8.28746 13.4187 8.30483 13.4385 8.31217Z" fill="#FFF101"/>
<path fill-rule="evenodd" clip-rule="evenodd" d="M12.924 8.2475C12.9247 8.17251 12.9201 8.09423 12.9091 8.02695C13.0627 7.98817 13.3259 8.13728 13.3186 8.02646C13.3164 7.99135 13.3198 7.87783 13.3219 7.81765C13.3185 7.91172 12.9525 7.75294 12.8895 7.79392C12.8218 7.4508 12.9057 7.09777 12.852 6.88236C12.9742 6.84725 13.1988 6.92383 13.1713 6.82328C13.1557 6.77178 13.1259 6.64371 13.1062 6.56358C13.1254 6.6475 12.9471 6.57802 12.8867 6.62597C12.8554 6.43991 12.8096 6.08689 12.8105 5.92554L12.6504 5.92383C12.6479 6.22352 12.7485 6.46915 12.722 6.859C12.6955 7.24897 12.6997 7.73398 12.7978 8.2793C12.8329 8.26854 12.8907 8.25471 12.924 8.2475Z" fill="#FFF101"/>
<path fill-rule="evenodd" clip-rule="evenodd" d="M12.5197 5.50796C12.2811 5.86967 11.7111 6.11934 11.1842 6.17451C10.5674 6.23909 10.1534 6.45463 9.84846 6.66564C9.82224 6.6161 9.77494 6.58943 9.73312 6.55677C9.28702 6.20986 9.4704 5.73977 9.63933 5.80692C9.5756 5.78099 9.53855 5.746 9.50372 5.71971C9.44477 5.67383 9.27467 5.84961 9.29599 6.12876C9.30508 6.24766 9.40201 6.42307 9.48088 6.51604C9.33688 6.48851 9.26791 6.44986 9.18333 6.34258C9.23087 6.31151 9.29238 6.29389 9.34201 6.28986C9.32512 6.24729 9.30158 6.20007 9.29599 6.12876C9.22551 6.12815 9.13953 6.15396 9.06578 6.20656C8.88881 6.02148 8.70659 5.87383 8.60092 5.65536C8.43187 5.30539 8.60384 5.08448 8.82648 5.31811C8.62236 5.12656 8.49141 4.98197 8.35335 4.92337C8.21529 4.86466 7.98158 4.99506 8.08026 5.30539C8.3029 6.00631 8.82776 6.11983 9.05308 6.775C9.15945 7.08472 9.31626 7.32607 9.64865 7.08276C9.69246 7.05071 9.70411 7.04313 9.7422 7.01475C9.84764 6.95078 10.0147 7.05818 9.99688 7.29169C10.0823 7.07726 10.0278 7.01157 9.95529 6.88301C9.9017 6.91298 9.90601 6.73744 9.87292 6.71432C10.0626 6.59053 10.2933 6.46637 10.5843 6.37793C10.595 6.48276 10.6225 6.59408 10.7144 6.57793C10.7637 6.56643 10.8137 6.55604 10.8662 6.54686C10.7743 6.56301 10.7485 6.44117 10.7379 6.33646C10.8758 6.30319 11.0266 6.27799 11.1918 6.2638C11.3821 6.24741 11.5789 6.2068 11.7637 6.1438C11.7912 6.24435 11.848 6.41377 11.9427 6.3805C12.0267 6.35224 12.1084 6.32032 12.1851 6.28325C12.0533 6.34919 12.0015 6.16093 11.9698 6.06136C12.2106 5.95139 12.4158 5.80142 12.5384 5.62246L12.5197 5.50796Z" fill="#FFF101"/>
<path fill-rule="evenodd" clip-rule="evenodd" d="M13.5739 5.68723C13.6902 5.59255 13.79 5.54778 13.6897 5.34729C13.5257 5.01946 13.6276 5.01833 13.2684 4.80977C12.9026 4.59766 12.9488 4.58102 12.4647 4.76023C12.3457 4.80427 12.3722 4.84928 12.3931 5.03057C12.438 5.42127 12.5232 5.7359 12.6012 6.05737C12.9055 6.01565 13.3736 5.85053 13.5739 5.68723Z" fill="#FFF101"/>
<path fill-rule="evenodd" clip-rule="evenodd" d="M12.4377 5.59881C12.3738 5.407 12.3909 5.43306 12.6223 5.49153C12.6981 5.23869 12.8026 5.02528 12.8612 4.82063C12.9267 4.59152 12.9472 4.5503 13.0436 4.60644C13.1668 4.67813 13.3022 4.75384 13.3904 4.79935C13.5444 4.87861 13.5217 4.90638 13.4482 5.03238C13.3747 5.15837 13.1342 5.41373 12.9859 5.68015C13.1815 5.82474 13.2443 5.83783 13.1054 5.90009C12.9498 5.9697 12.6914 6.05593 12.5826 6.07636C12.5627 5.95049 12.4984 5.78071 12.4377 5.59881Z" fill="#FFF101"/>
<path fill-rule="evenodd" clip-rule="evenodd" d="M10.141 7.40238L10.1257 7.59969L9.98713 7.46758L9.83218 7.57804L9.84243 7.3811L9.66406 7.32446L9.81645 7.20972L9.74923 7.02673L9.92806 7.08153L10.0225 6.91211L10.0943 7.09303L10.2789 7.06379L10.1885 7.23639L10.3245 7.36972L10.141 7.40238Z" fill="#FFF101"/>
<path fill-rule="evenodd" clip-rule="evenodd" d="M14.0172 10.0288C13.754 9.77725 13.6431 9.31144 13.739 8.90263C13.537 8.65285 13.049 8.57517 12.7039 8.66863C11.7683 9.36306 11.3929 10.4954 10.9927 11.0132C10.8662 11.1769 10.7773 11.634 11.0693 11.8767C11.3093 12.0761 11.3052 12.253 12.1956 12.8717C12.6771 13.2062 13.1238 13.4628 13.2784 13.647C13.4331 13.8312 13.5896 14.0296 13.5569 14.2717C13.5119 14.6048 13.6059 14.8908 13.5604 15.1202C13.5043 15.4016 13.4506 15.593 13.4712 15.7479C13.492 15.9028 13.7163 16.05 13.9229 15.8051C14.3896 15.2522 14.221 14.7183 14.6488 14.1858C14.8509 13.9342 14.9674 13.6802 14.6048 13.4903C14.2422 13.3004 13.7462 13.0219 13.3119 12.298C13.0203 11.8117 12.5636 11.4033 12.1479 11.3404C12.3964 11.193 12.5488 10.9786 12.8836 10.8077C13.2184 10.6368 13.6164 10.3907 14.0172 10.0288Z" fill="white"/>
<path fill-rule="evenodd" clip-rule="evenodd" d="M13.7239 9.42969C13.2878 9.81586 13.1266 9.69268 12.6651 10.236C12.3877 10.5628 11.9998 10.8993 11.8008 11.0223L11.8665 11.0884C12.0655 10.9653 12.4534 10.6288 12.731 10.3021C13.1772 9.77672 13.3426 9.87458 13.7476 9.5322C13.7395 9.50724 13.7278 9.45134 13.7239 9.42969Z" fill="#FFF101"/>
<path fill-rule="evenodd" clip-rule="evenodd" d="M13.9278 9.93011C13.8657 9.96693 13.8034 10.0102 13.7534 10.0539C13.6446 9.93354 13.636 9.61965 13.5484 9.68192C13.5204 9.70124 13.4251 9.75507 13.3743 9.7832C13.4538 9.73929 13.5056 10.1514 13.571 10.1882C13.3218 10.4214 12.9887 10.5215 12.8379 10.6781C12.7479 10.5844 12.6987 10.3421 12.6295 10.4173C12.5949 10.4572 12.5041 10.5483 12.4479 10.6063C12.5075 10.5469 12.5393 10.7438 12.609 10.7746C12.4713 10.8962 12.203 11.1143 12.0693 11.1942L12.148 11.3406C12.3965 11.1932 12.5489 10.9788 12.8837 10.8079C13.2185 10.637 13.6165 10.3909 14.0173 10.0289C13.9909 10.0024 13.9504 9.95678 13.9278 9.93011Z" fill="#FFF101"/>
<path fill-rule="evenodd" clip-rule="evenodd" d="M11.8711 11.6673C12.2888 11.7034 12.7796 12.0968 13.0886 12.5484C13.4502 13.077 13.8351 13.3456 14.1616 13.5173C14.1339 13.566 14.1355 13.6223 14.1295 13.6767C14.0664 14.2558 13.587 14.324 13.5579 14.1369C13.5683 14.2078 13.558 14.259 13.5538 14.3039C13.5454 14.3804 13.7755 14.4471 13.995 14.2882C14.0885 14.2204 14.1846 14.0447 14.222 13.9265C14.2712 14.0711 14.2738 14.1532 14.2278 14.2837C14.1782 14.256 14.133 14.2088 14.1048 14.1659C14.0782 14.2025 14.051 14.2475 13.995 14.2882C14.0297 14.3527 14.094 14.4179 14.1743 14.4586C14.1101 14.7121 14.0794 14.9516 13.952 15.1568C13.748 15.4855 13.4797 15.4396 13.5611 15.1204C13.5051 15.4017 13.4514 15.5932 13.472 15.748C13.4927 15.9029 13.717 16.0502 13.9237 15.8053C14.3904 15.2524 14.2217 14.7184 14.6495 14.1859C14.8516 13.9343 14.9725 13.6711 14.6056 13.4904C14.5571 13.4667 14.5451 13.4599 14.5027 13.4394C14.3972 13.3755 14.4023 13.1699 14.6037 13.0694C14.3842 13.099 14.3573 13.1814 14.2875 13.3116C14.3389 13.3452 14.192 13.4291 14.1894 13.4708C13.9925 13.3603 13.7749 13.2126 13.5563 12.9921C13.6375 12.93 13.7156 12.8493 13.6562 12.7738C13.622 12.7348 13.5885 12.6944 13.5546 12.6513C13.614 12.7269 13.5265 12.8111 13.4453 12.8733C13.349 12.7645 13.2528 12.64 13.1585 12.4969C13.0498 12.3319 12.9179 12.1733 12.7735 12.0368C12.8427 11.9615 12.954 11.8252 12.8792 11.7556C12.814 11.6933 12.7467 11.635 12.6779 11.584C12.7981 11.6708 12.6687 11.8121 12.6025 11.8907C12.3913 11.7267 12.165 11.6151 11.9561 11.5932L11.8711 11.6673Z" fill="#FFF101"/>
<path fill-rule="evenodd" clip-rule="evenodd" d="M11.3222 10.6976C11.1859 10.6393 11.2532 10.5604 11.138 10.7519C10.9496 11.0649 10.9132 10.9928 10.9209 11.4238C10.9287 11.8623 11.0098 11.7923 11.3997 12.1429C11.6995 11.9069 12.0573 11.5502 12.2834 11.3186C12.0969 11.0628 11.557 10.7983 11.3222 10.6976Z" fill="#FFF101"/>
<path fill-rule="evenodd" clip-rule="evenodd" d="M11.9862 11.6961C11.8599 11.8501 11.8728 11.8216 11.8054 11.5819C11.559 11.6394 11.3689 11.7058 11.171 11.7549C10.9491 11.8098 10.905 11.8117 10.903 11.6961C10.9006 11.5481 10.8954 11.3873 10.8888 11.2843C10.8773 11.1047 10.9114 11.1113 11.0521 11.1152C11.1929 11.119 11.4852 11.1553 11.7792 11.1569C11.8006 10.9068 11.78 10.8432 11.9009 10.9385C12.0359 11.045 12.2363 11.2369 12.3076 11.3256C12.2137 11.4066 12.106 11.5501 11.9862 11.6961Z" fill="#FFF101"/>
<path fill-rule="evenodd" clip-rule="evenodd" d="M14.6226 12.883L14.7931 12.7982L14.7534 12.9902L14.9221 13.0759L14.7544 13.165L14.7968 13.3555L14.6259 13.2743L14.5086 13.427L14.4644 13.2369L14.2774 13.2357L14.3909 13.0801L14.2744 12.9269L14.4621 12.9228L14.504 12.7324L14.6226 12.883Z" fill="#FFF101"/>
<path fill-rule="evenodd" clip-rule="evenodd" d="M14.8505 8.04502C14.7748 8.40991 14.4459 8.74373 14.0609 8.86104C13.9558 9.16954 14.1356 9.65187 14.3853 9.91915C15.4258 10.4226 16.5476 10.1978 17.1748 10.3028C17.3731 10.3359 17.7946 10.1881 17.8488 9.80147C17.8933 9.48355 18.0411 9.3989 18.1062 8.27976C18.1414 7.67462 18.1297 7.14019 18.2043 6.90753C18.279 6.67486 18.3644 6.43327 18.5804 6.34202C18.8776 6.21639 19.0665 5.98777 19.2788 5.9145C19.5387 5.82471 19.7235 5.77786 19.8408 5.68171C19.9582 5.58557 19.9675 5.30789 19.6623 5.24245C18.9728 5.09444 18.6168 5.51486 17.9636 5.39205C17.655 5.33407 17.3873 5.35499 17.412 5.77982C17.4367 6.20453 17.455 6.79474 17.0749 7.55156C16.8197 8.05994 16.7112 8.67939 16.8671 9.08881C16.6213 8.93652 16.3682 8.9052 16.06 8.68624C15.7516 8.46716 15.3495 8.2285 14.8505 8.04502Z" fill="white"/>
<path fill-rule="evenodd" clip-rule="evenodd" d="M14.5029 8.61087C15.0396 8.81429 15.0186 9.02249 15.6975 9.1705C16.1057 9.25943 16.5772 9.4439 16.7783 9.56328L16.7998 9.47044C16.5989 9.35105 16.1272 9.16671 15.7191 9.07766C15.0626 8.93454 15.0606 8.73515 14.5757 8.53809C14.5592 8.55802 14.5189 8.59656 14.5029 8.61087Z" fill="#FFF101"/>
<path fill-rule="evenodd" clip-rule="evenodd" d="M14.8144 8.17556C14.8759 8.21361 14.9428 8.24859 15.0037 8.27232C14.9589 8.43134 14.7043 8.59624 14.7994 8.6448C14.8294 8.66058 14.9213 8.72027 14.9699 8.75232C14.8941 8.70205 15.2079 8.44884 15.2057 8.37092C15.5227 8.48101 15.7718 8.73385 15.9764 8.79269C15.9442 8.92137 15.7688 9.08725 15.8655 9.11257C15.9157 9.12407 16.0363 9.16101 16.1122 9.18315C16.0334 9.15868 16.1799 9.03122 16.1705 8.95257C16.3396 9.01691 16.6536 9.15183 16.7863 9.23342L16.8678 9.08871C16.6219 8.93642 16.3689 8.90511 16.0606 8.68615C15.7522 8.46706 15.3502 8.22841 14.8512 8.04492C14.8426 8.08211 14.8251 8.14168 14.8144 8.17556Z" fill="#FFF101"/>
<path fill-rule="evenodd" clip-rule="evenodd" d="M17.2758 9.17774C17.0967 8.77994 17.1758 8.13688 17.3939 7.63009C17.6491 7.03694 17.6782 6.55266 17.6565 6.17003C17.7106 6.17101 17.7561 6.14129 17.8041 6.11951C18.3133 5.88746 18.6093 6.28918 18.4694 6.40918C18.5227 6.36416 18.5702 6.34814 18.6092 6.32954C18.6765 6.29872 18.6165 6.05627 18.3757 5.93615C18.2731 5.8849 18.08 5.88538 17.9637 5.91046C18.0586 5.7934 18.1249 5.75009 18.2556 5.72673C18.2576 5.78557 18.2413 5.85028 18.2198 5.89737C18.2634 5.90324 18.3141 5.90545 18.3757 5.93615C18.4115 5.8723 18.4331 5.78129 18.4266 5.68783C18.6678 5.61957 18.8806 5.52771 19.1137 5.54092C19.4868 5.56208 19.5832 5.82899 19.2792 5.9145C19.5391 5.82471 19.7239 5.77786 19.8412 5.68171C19.9587 5.58557 19.968 5.30789 19.6627 5.24245C18.9733 5.09444 18.6172 5.51486 17.9641 5.39205C17.6555 5.33407 17.378 5.35584 17.4124 5.77982C17.417 5.83572 17.4175 5.85003 17.4218 5.89884C17.4218 6.02679 17.2497 6.1249 17.0661 5.99193C17.2002 6.17688 17.2816 6.16012 17.4239 6.15853C17.426 6.0948 17.5686 6.18642 17.6042 6.16795C17.6116 6.40233 17.5985 6.67413 17.5259 6.983C17.4341 6.94031 17.3287 6.9096 17.2959 7.00135C17.2808 7.05187 17.2644 7.10251 17.2457 7.15486C17.2784 7.06312 17.3917 7.10067 17.4834 7.14337C17.4419 7.28538 17.3873 7.43511 17.3164 7.59242C17.2347 7.7737 17.1699 7.97285 17.1295 8.17248C17.0328 8.14716 16.8646 8.11413 16.8446 8.21701C16.826 8.3074 16.8114 8.39768 16.8037 8.48587C16.8152 8.33309 16.9964 8.38006 17.0944 8.40098C17.0648 8.67499 17.0858 8.93652 17.1721 9.13762L17.2758 9.17774Z" fill="#FFF101"/>
<path fill-rule="evenodd" clip-rule="evenodd" d="M16.5591 10.0094C16.5791 10.1626 16.566 10.2757 16.7816 10.2847C17.134 10.2995 17.1053 10.3451 17.457 10.1227C17.8147 9.8963 17.8243 9.94101 17.9185 9.41122C17.9417 9.28095 17.8913 9.28254 17.7313 9.21085C17.3868 9.05624 17.0857 9.0668 16.7816 8.97689C16.6638 9.2745 16.5246 9.74572 16.5591 10.0094Z" fill="#FFF101"/>
<path fill-rule="evenodd" clip-rule="evenodd" d="M17.2417 9.05821C17.4319 9.09588 17.4019 9.09845 17.2379 9.27973C17.4086 9.47496 17.5393 9.61232 17.6788 9.76792C17.8351 9.94211 17.8587 9.98125 17.7644 10.0408C17.6435 10.117 17.5135 10.2022 17.4319 10.2598C17.2894 10.3601 17.2778 10.3256 17.2106 10.1957C17.1434 10.0659 17.0461 9.78395 16.9005 9.51606C16.6834 9.62151 16.6412 9.67215 16.6594 9.5146C16.6798 9.33845 16.7379 9.06029 16.7754 8.95117C16.8891 8.99594 17.0613 9.02224 17.2417 9.05821Z" fill="#FFF101"/>
<path fill-rule="evenodd" clip-rule="evenodd" d="M16.9021 6.06808L16.7471 5.95542L16.9253 5.89548L16.9116 5.69927L17.0689 5.80716L17.2049 5.67334L17.2233 5.8693L17.4079 5.89964L17.2732 6.03493L17.3657 6.20545L17.1806 6.18013L17.1124 6.36264L17.0153 6.19407L16.8372 6.2512L16.9021 6.06808Z" fill="#FFF101"/>
<path fill-rule="evenodd" clip-rule="evenodd" d="M13.8602 8.59453C13.5706 8.30268 13.1333 8.17442 12.7996 8.28621L12.7902 8.28034C12.7025 7.79301 12.6828 7.32234 12.7143 6.85807C12.7265 6.67848 12.7159 6.54704 12.6808 6.31264C12.6662 6.21543 12.6642 6.20183 12.659 6.16159C12.6487 6.08086 12.6432 6.01252 12.6427 5.9451C12.3864 6.27006 11.8443 6.48788 11.2785 6.51079C10.6093 6.53773 10.1913 6.71444 9.65225 7.08885C9.35276 7.29686 9.18173 7.17307 9.04582 6.7773C8.95582 6.51561 8.84607 6.36455 8.58284 6.08649L8.56259 6.06509C8.2869 5.77375 8.16706 5.60381 8.07294 5.30752C7.98505 5.03112 8.17493 4.83913 8.35566 4.916C8.36797 4.92122 8.38032 4.92716 8.3928 4.93383C8.451 4.96496 8.51073 5.01098 8.58976 5.08312C8.61683 5.10782 8.69615 5.18358 8.75757 5.24226L8.75759 5.24227L8.7576 5.24228C8.79127 5.27445 8.81956 5.30147 8.83091 5.31212C8.83992 5.32057 8.84921 5.32874 8.85894 5.33673C8.84513 5.32762 8.83076 5.32168 8.81605 5.31866L8.74758 5.25338C8.6862 5.19475 8.60713 5.11923 8.58021 5.09466C8.50199 5.02327 8.44312 4.97791 8.38619 4.94745C8.37408 4.94098 8.36211 4.93522 8.3502 4.93017C8.18109 4.85825 8.00277 5.03855 8.08676 5.30268C8.17999 5.5962 8.29869 5.76451 8.57292 6.05431L8.59317 6.07571C8.85779 6.35524 8.9686 6.50777 9.05951 6.77211C9.1927 7.15991 9.3547 7.27718 9.64422 7.0761C10.1853 6.70027 10.6056 6.52257 11.278 6.49551C11.8496 6.47236 12.3967 6.24898 12.6443 5.91872L12.6573 5.92352C12.6566 5.99729 12.6621 6.07081 12.6735 6.15954C12.6786 6.19962 12.6806 6.21319 12.6952 6.31026C12.7305 6.54571 12.7411 6.67814 12.7288 6.85916C12.6976 7.31949 12.7169 7.78611 12.803 8.26906L12.7952 8.27164L12.8045 8.27751L12.803 8.26906C13.141 8.16008 13.5792 8.29019 13.8639 8.5815C14.1515 8.52651 14.4675 8.14525 14.5684 7.76562C14.5186 7.19586 14.3346 6.68067 14.0037 6.0478C13.9527 5.95014 13.8133 5.69389 13.7456 5.56956L13.7085 5.50122C13.603 5.30397 13.5365 5.16495 13.4908 5.03946C13.396 4.77963 13.0418 4.56 12.7497 4.68163C12.71 4.69818 12.6713 4.71137 12.629 4.72322C12.6019 4.73081 12.5743 4.73763 12.5365 4.74627C12.1476 4.83529 11.9324 4.91166 11.3663 5.20809L11.3185 5.23325C11.2097 5.29085 10.9476 5.43554 10.7845 5.5256L10.7843 5.52569C10.7151 5.56389 10.6638 5.59224 10.6495 5.59991C10.4254 5.72067 10.285 5.78427 10.1837 5.80569C9.84877 5.87645 9.67942 5.87343 9.52328 5.745C9.47411 5.70456 9.42155 5.66799 9.36366 5.63314C9.34872 5.62414 9.33356 5.61534 9.31792 5.60655L9.32256 5.60082L9.32053 5.59069C9.33781 5.60033 9.35448 5.60999 9.37091 5.61987C9.42938 5.65507 9.48251 5.69205 9.53226 5.73297C9.68384 5.85764 9.84995 5.86061 10.1809 5.7907C10.2804 5.76966 10.4199 5.70641 10.6429 5.58631C10.657 5.57866 10.7083 5.55038 10.7773 5.51226L10.7775 5.51219L10.7775 5.51217C10.9406 5.42213 11.203 5.27729 11.312 5.21959L11.3598 5.19441C11.927 4.89738 12.1434 4.82061 12.5334 4.73133C12.571 4.72273 12.5984 4.71596 12.6253 4.70844C12.6671 4.69674 12.7052 4.68374 12.7443 4.66742C13.0448 4.5423 13.407 4.76687 13.5044 5.03399C13.5498 5.15862 13.6161 5.29708 13.7212 5.49374L13.7582 5.56179C13.8258 5.68601 13.9654 5.94261 14.0165 6.04044C14.3482 6.67499 14.5329 7.19198 14.5827 7.76697C14.4801 8.15448 14.1604 8.54036 13.8602 8.59453ZM9.30493 5.58207L9.32053 5.59069L9.32019 5.58899C9.31511 5.5864 9.31002 5.58409 9.30493 5.58207ZM9.25224 5.57119C9.26972 5.57148 9.28732 5.57507 9.30493 5.58207C9.27825 5.56748 9.24991 5.55275 9.21866 5.5371C9.20349 5.5295 9.16984 5.51304 9.13852 5.49774L9.13815 5.49459C9.12576 5.4887 9.11366 5.48376 9.10181 5.4798L9.07363 5.46602C8.98205 5.42057 8.9195 5.38449 8.86898 5.34479L8.869 5.34401C8.86568 5.34139 8.86233 5.33896 8.85894 5.33673L8.86898 5.34479L8.86866 5.35648L8.86385 5.35985C8.85967 5.35662 8.85558 5.35336 8.85155 5.35007L8.85165 5.35C8.85455 5.35192 8.85742 5.35399 8.86025 5.35623L8.86059 5.34375L8.85165 5.35C8.85134 5.34979 8.85102 5.34958 8.8507 5.34938C8.84047 5.341 8.83069 5.33242 8.82121 5.32352L8.81605 5.31866C8.7225 5.29949 8.6155 5.39905 8.55471 5.55928L8.56552 5.56847L8.86385 5.35985C8.91029 5.3958 8.96654 5.42889 9.04485 5.46854C8.93093 5.46299 8.83524 5.56931 8.71299 5.84141L8.72408 5.85068L9.13387 5.51234C9.16474 5.52742 9.19752 5.54345 9.21239 5.5509C9.22621 5.55782 9.23946 5.56456 9.25224 5.57119ZM9.29917 5.59616C9.28413 5.58793 9.26856 5.57965 9.25224 5.57119C9.12235 5.56904 8.99876 5.74916 8.92466 6.06978L8.93728 6.07654L9.31792 5.60655L9.30474 5.59922L9.3052 5.59865L9.31383 5.60274L9.31147 5.59091L9.3052 5.59865L9.29917 5.59616ZM8.94642 6.04165C9.02948 5.70759 9.1662 5.54443 9.29917 5.59616L9.30474 5.59922L8.94642 6.04165ZM8.94642 6.04165L8.93881 6.07339L8.92618 6.06663L8.94642 6.04165ZM9.11906 5.50511L9.13387 5.51234L9.13965 5.50756L9.13852 5.49774L9.1191 5.48826L9.10181 5.4798C9.08221 5.47327 9.06329 5.46944 9.04485 5.46854L9.0674 5.47984L9.09673 5.49419C8.96907 5.45224 8.87162 5.53314 8.73963 5.81839L8.71508 5.83866L8.72616 5.84794L8.73963 5.81839L9.11906 5.50511ZM9.12104 5.50348C9.11281 5.49991 9.10471 5.49681 9.09673 5.49419L9.11308 5.50219L9.11906 5.50511L9.12104 5.50348ZM9.12104 5.50348L9.13215 5.50852L9.13065 5.49555L9.12104 5.50348ZM8.57759 5.54166L8.85155 5.35007C8.85127 5.34984 8.85098 5.34961 8.8507 5.34938C8.76306 5.2926 8.64651 5.37911 8.57759 5.54166ZM8.57759 5.54166L8.55744 5.55574L8.56824 5.56493C8.57125 5.55701 8.57437 5.54925 8.57759 5.54166Z" fill="black"/>
<path fill-rule="evenodd" clip-rule="evenodd" d="M13.4171 7.76009C13.4067 7.98614 13.4103 8.10776 13.4448 8.3104L13.4352 8.31896C13.4242 8.31488 13.41 8.31 13.3952 8.30493C13.3731 8.29735 13.3498 8.28935 13.3341 8.28295C13.3078 8.10526 13.3056 7.99462 13.3152 7.78597L13.3171 7.74263C13.3287 7.47455 13.3083 7.295 13.2076 6.97494C13.0863 6.58866 12.9932 6.06141 12.9962 5.786L13.0929 5.7666C13.0952 6.03313 13.1879 6.5587 13.3088 6.94336C13.4101 7.26537 13.4306 7.4468 13.419 7.71668L13.4171 7.76009ZM13.4401 8.30454L13.4305 8.31309C13.4297 8.30879 13.429 8.30453 13.4283 8.3003C13.4325 8.30178 13.4365 8.3032 13.4401 8.30454ZM13.3427 8.27429C13.3613 8.27824 13.4001 8.29038 13.4283 8.3003C13.3956 8.1039 13.3923 7.98166 13.4025 7.75936L13.4045 7.71599C13.416 7.44789 13.3957 7.2683 13.295 6.94815C13.1736 6.56207 13.0806 6.03496 13.0876 5.77401L13.0055 5.79327C13.0078 6.05958 13.1005 6.58529 13.2215 6.97014C13.3227 7.29207 13.3433 7.47347 13.3317 7.74332L13.3297 7.78671C13.3202 7.99441 13.3223 8.10413 13.3427 8.27429Z" fill="black"/>
<path fill-rule="evenodd" clip-rule="evenodd" d="M11.7188 5.01025C11.6372 5.047 11.6379 5.17722 11.7038 5.38007C11.7566 5.54229 11.85 5.74609 11.9624 5.95426L11.9757 5.94844L11.7287 5.01523L11.7188 5.01025ZM12.916 8.02528C12.9266 8.09026 12.9317 8.16807 12.931 8.2472L12.9252 8.25461L12.9002 8.26014C12.8638 8.2683 12.8225 8.27756 12.7904 8.28035C12.7027 7.79302 12.6829 7.32234 12.7144 6.85808C12.7266 6.67849 12.7161 6.54704 12.6809 6.31265C12.6663 6.21544 12.6643 6.20183 12.6592 6.16159C12.6477 6.07219 12.6422 5.99797 12.6502 5.91581L12.8175 5.92522C12.8167 6.06354 12.8533 6.38162 12.8917 6.61303C12.9124 6.60152 12.9415 6.59839 12.9872 6.59926L13.0059 6.59974C13.0486 6.60096 13.065 6.60052 13.08 6.59636C13.0972 6.59158 13.1029 6.5829 13.0988 6.565L13.113 6.5613C13.1181 6.58204 13.1404 6.67455 13.139 6.66887L13.1411 6.67733C13.1586 6.74964 13.1701 6.79457 13.178 6.8208C13.1872 6.85449 13.1719 6.87414 13.1368 6.88127C13.112 6.88632 13.0879 6.88608 13.0185 6.8823C12.9983 6.8812 12.987 6.88064 12.9744 6.8802C12.9417 6.87906 12.9148 6.87951 12.8931 6.87987C12.8797 6.8801 12.8683 6.88029 12.8587 6.88005C12.8803 6.9667 12.8817 7.04547 12.8733 7.26737C12.8652 7.48293 12.8663 7.59307 12.8847 7.7232C12.8876 7.74329 12.8908 7.76302 12.8945 7.78244C12.9218 7.77207 12.9705 7.78061 13.0941 7.80965L13.1024 7.81161C13.178 7.82934 13.2175 7.83709 13.252 7.83939C13.2936 7.84216 13.3136 7.83469 13.3143 7.81706L13.3133 7.8457C13.3002 7.85391 13.2791 7.85652 13.2511 7.85465C13.2156 7.85228 13.1756 7.84444 13.0992 7.82653L13.0909 7.82457C12.9603 7.79388 12.9135 7.78673 12.893 7.80005L12.8821 7.7951C12.8776 7.77232 12.8737 7.74912 12.8703 7.72545C12.8517 7.59408 12.8506 7.48325 12.8588 7.26676C12.8671 7.04664 12.8657 6.96849 12.8498 6.87462C12.8818 6.86541 12.9207 6.86302 12.9749 6.86492C12.9876 6.86536 12.9989 6.86592 13.0193 6.86703C13.0872 6.87072 13.1109 6.87096 13.134 6.86626C13.1615 6.86068 13.1706 6.84902 13.1641 6.82523C13.1561 6.7988 13.1446 6.75375 13.1269 6.6811L13.1249 6.67264C13.1259 6.6766 13.115 6.6318 13.1068 6.59779C13.1143 6.58908 13.1165 6.57699 13.113 6.56143L13.0989 6.56512L13.1068 6.59779C13.1016 6.6039 13.0938 6.60834 13.0837 6.61114C13.0668 6.61584 13.0499 6.6163 13.0056 6.61502L12.987 6.61455C12.9369 6.61359 12.9084 6.61772 12.8908 6.63169L12.8792 6.62693C12.84 6.39383 12.8021 6.06686 12.8101 5.93282L12.6574 5.92353C12.6568 5.99729 12.6622 6.07082 12.6736 6.15955C12.6788 6.19963 12.6807 6.2132 12.6953 6.31027C12.7306 6.54572 12.7413 6.67815 12.7289 6.85917C12.6975 7.32218 12.7173 7.79155 12.7955 8.27159C12.825 8.26252 12.8757 8.24987 12.9165 8.2409L12.9164 8.24705L12.9222 8.23964L12.9165 8.2409C12.9169 8.16476 12.912 8.08998 12.9071 8.01914C12.948 8.00882 12.9975 8.01052 13.061 8.0216C13.0823 8.02532 13.1036 8.02974 13.1335 8.03644C13.2252 8.057 13.2388 8.05966 13.2658 8.0602C13.2992 8.06086 13.3127 8.05129 13.311 8.02659C13.3094 8.00024 13.3106 7.93021 13.3133 7.8457C13.3231 7.83959 13.3284 7.83036 13.3288 7.81757L13.3143 7.817L13.3143 7.81699L13.3288 7.81756C13.3255 7.91386 13.3238 7.99708 13.3256 8.02556C13.3279 8.06102 13.3064 8.0763 13.2655 8.07549C13.2371 8.07492 13.2236 8.07229 13.1304 8.05139C13.1007 8.04474 13.0797 8.04036 13.0586 8.03669C12.9969 8.02591 12.9491 8.02427 12.916 8.02528ZM11.717 5.0282L11.7147 5.01933L11.7246 5.02431C11.722 5.02548 11.7195 5.02678 11.717 5.0282ZM11.9454 5.89113C11.8468 5.70329 11.7653 5.52186 11.7176 5.37513C11.6564 5.18684 11.6536 5.06548 11.717 5.0282L11.9454 5.89113ZM11.9454 5.89113C11.9551 5.90961 11.965 5.92815 11.975 5.94672L11.9617 5.95254L11.9454 5.89113ZM11.7613 6.14807L11.7612 6.14812L11.7612 6.14813L11.7608 6.14828L11.7657 6.16478C11.8346 6.13783 11.9035 6.10617 11.9724 6.07013L11.9669 6.05393L11.9666 6.05407L11.9666 6.05406L11.9665 6.05414L11.7613 6.14807ZM11.7613 6.14807C11.8296 6.12133 11.898 6.08991 11.9665 6.05414L11.9666 6.05407L11.9721 6.07026L11.766 6.16462L11.7612 6.14813L11.7613 6.14807ZM10.5822 6.37624C10.5822 6.37626 10.5821 6.37628 10.582 6.3763L10.5859 6.39319L10.7394 6.34573L10.736 6.32873C10.7359 6.32874 10.7358 6.32876 10.7358 6.32878L10.7358 6.32878L10.7357 6.32881C10.6833 6.34321 10.6323 6.35898 10.5823 6.3762L10.5822 6.37623L10.5822 6.37624ZM10.5822 6.37624L10.586 6.39312C10.6359 6.37591 10.6869 6.36016 10.7392 6.34578L10.7358 6.32878C10.7357 6.32879 10.7357 6.3288 10.7357 6.32881L10.5823 6.3762C10.5823 6.37621 10.5823 6.37622 10.5822 6.37624Z" fill="black"/>
<path fill-rule="evenodd" clip-rule="evenodd" d="M11.183 6.1666C11.7405 6.10824 12.2879 5.84504 12.5133 5.50331L12.5264 5.50637L12.5439 5.62663C12.4248 5.80039 12.2243 5.95297 11.9763 6.05864C11.9757 6.0568 11.9864 6.0907 11.9897 6.10093C11.9953 6.1183 12.0005 6.13319 12.0058 6.14738C12.0496 6.26361 12.1012 6.31328 12.177 6.27825C12.1584 6.28714 12.1394 6.29582 12.1199 6.30432C12.0668 6.29775 12.0264 6.24359 11.9923 6.153C11.9868 6.13855 11.9816 6.12344 11.9759 6.10587C11.9726 6.09556 11.9619 6.06159 11.9665 6.05405C12.2163 5.93997 12.4147 5.78897 12.5308 5.62346L12.5151 5.5271C12.5185 5.52209 12.5219 5.51706 12.5253 5.51202L12.5121 5.50896L12.5151 5.5271C12.2809 5.86568 11.7376 6.12391 11.1845 6.18182C10.6497 6.23782 10.2398 6.40336 9.84168 6.66905C9.82508 6.63769 9.80516 6.61921 9.75506 6.58257L9.75487 6.58243C9.7416 6.57273 9.73563 6.56829 9.72837 6.56262C9.52675 6.40582 9.43449 6.20841 9.44791 6.02569C9.45729 5.89801 9.5206 5.80274 9.59352 5.7932C9.60709 5.80081 9.62115 5.8076 9.63629 5.81375L9.64149 5.79948C9.62535 5.79306 9.60922 5.79114 9.59352 5.7932C9.58035 5.78581 9.56764 5.77764 9.55485 5.76853C9.5428 5.75994 9.51087 5.73488 9.50154 5.72757C9.50002 5.72637 9.4991 5.72565 9.49897 5.72555C9.42854 5.67075 9.2849 5.89308 9.30283 6.12785C9.31096 6.23414 9.39692 6.40576 9.48591 6.51065L9.47917 6.52326C9.33191 6.49512 9.26212 6.45472 9.17907 6.33579C9.22184 6.30783 9.27862 6.28883 9.33096 6.28292L9.33487 6.2925L9.33511 6.2921L9.34103 6.28194C9.33776 6.2822 9.33447 6.28252 9.33116 6.2829C9.3311 6.2829 9.33103 6.28291 9.33096 6.28292L9.32023 6.25663C9.30983 6.23075 9.30215 6.20801 9.29808 6.1862C9.29492 6.16928 9.29393 6.15293 9.29552 6.13611C9.29334 6.13609 9.29115 6.13609 9.28896 6.13612C9.21797 6.13715 9.13657 6.16449 9.06022 6.21168C9.04934 6.2003 9.03808 6.18868 9.02622 6.17659C9.0058 6.15577 8.95283 6.10305 8.91574 6.06613C8.89745 6.04792 8.88302 6.03355 8.87825 6.02875C8.73552 5.88492 8.6546 5.78377 8.59401 5.65852C8.51395 5.49278 8.50445 5.34181 8.56057 5.26301C8.59798 5.21049 8.65716 5.19962 8.72409 5.23094C8.7321 5.23859 8.73997 5.24611 8.74758 5.25337C8.76108 5.26627 8.77373 5.27836 8.78478 5.2889C8.69649 5.21379 8.61648 5.21004 8.57223 5.27217C8.52005 5.34544 8.52918 5.49051 8.607 5.6516C8.66667 5.77496 8.74669 5.87498 8.88834 6.01771C8.89307 6.02248 8.90743 6.03678 8.92566 6.05493C8.96276 6.09186 9.01586 6.14472 9.03636 6.16561C9.04827 6.17775 9.05957 6.18941 9.06127 6.19993C9.12892 6.15169 9.20993 6.1236 9.28815 6.12685C9.27051 5.88239 9.4228 5.64725 9.50756 5.7132C9.50773 5.71333 9.50884 5.7142 9.51065 5.71562C9.52057 5.7234 9.55146 5.74764 9.56303 5.75588C9.58812 5.77376 9.61282 5.78781 9.64155 5.7995L9.63634 5.81378C9.55661 5.78208 9.47319 5.8804 9.46243 6.02686C9.44941 6.20417 9.53932 6.39657 9.73705 6.55034C9.74416 6.55589 9.75005 6.56027 9.7632 6.56989L9.76339 6.57003C9.81528 6.60798 9.83637 6.62755 9.84404 6.65896C10.2337 6.38929 10.6458 6.22286 11.183 6.1666ZM9.33753 6.2976C9.28594 6.30258 9.229 6.32087 9.18853 6.33741C9.26705 6.437 9.33125 6.47679 9.46132 6.50412C9.41463 6.44542 9.3699 6.37053 9.33753 6.2976ZM8.79483 5.27782C8.77072 5.25726 8.74695 5.24164 8.72409 5.23094C8.66741 5.17682 8.6038 5.11618 8.58021 5.09465C8.50199 5.02326 8.44312 4.9779 8.38619 4.94745C8.37408 4.94097 8.36211 4.93522 8.3502 4.93016C8.18109 4.85824 8.00277 5.03854 8.08676 5.30268C8.17999 5.5962 8.29869 5.76451 8.57292 6.05431L8.59317 6.0757C8.85779 6.35524 8.9686 6.50776 9.05951 6.77211C9.12114 6.95155 9.18681 7.06909 9.26985 7.12969C9.36865 7.2018 9.49025 7.18879 9.64407 7.07619C9.66228 7.06287 9.67494 7.05375 9.69623 7.03848L9.69687 7.03802C9.71116 7.02774 9.7224 7.01953 9.73815 7.00783C9.85543 6.93667 9.9991 7.0554 10.0048 7.24828C10.0003 7.2611 9.99532 7.27447 9.98975 7.28845L10.0037 7.29201C10.0049 7.27706 10.0052 7.26247 10.0048 7.24828C10.0435 7.13697 10.0407 7.06655 10.005 6.98955C9.99821 6.975 9.99027 6.9599 9.97932 6.94043C9.97912 6.94008 9.9789 6.93968 9.97865 6.93924C9.97293 6.9291 9.95424 6.89599 9.9583 6.88946C9.93979 6.89981 9.92482 6.89149 9.91429 6.86963C9.90706 6.85463 9.9023 6.83668 9.89468 6.80049L9.89283 6.79167C9.88318 6.74572 9.87699 6.72634 9.86847 6.72039L9.86866 6.70753C10.0936 6.56071 10.3209 6.44959 10.5911 6.37682C10.6051 6.51333 10.6403 6.58284 10.7124 6.57017C10.7469 6.56214 10.7805 6.55491 10.8141 6.54836C10.8292 6.55568 10.8467 6.55767 10.867 6.55411C10.8167 6.5629 10.767 6.5731 10.7152 6.58518C10.6304 6.60007 10.5914 6.52304 10.5859 6.38498C10.3294 6.46292 10.1056 6.57178 9.88431 6.71534C9.89283 6.72693 9.89851 6.74773 9.90705 6.78838L9.9089 6.79719C9.91623 6.83203 9.92082 6.84932 9.92728 6.86273C9.93454 6.87779 9.94138 6.8816 9.96114 6.87882L9.99186 6.93265C10.003 6.95244 10.0111 6.96787 10.0181 6.98285C10.0599 7.07292 10.0586 7.15516 10.0032 7.29435L9.98921 7.29079C10.005 7.08379 9.85995 6.95159 9.746 7.02069C9.73075 7.03205 9.71946 7.04031 9.7051 7.05064L9.70446 7.0511C9.68317 7.06636 9.67056 7.07545 9.6524 7.08874C9.49398 7.2047 9.36588 7.2184 9.26154 7.14225C9.17535 7.07935 9.10839 6.95949 9.04582 6.7773C8.95582 6.51561 8.84607 6.36455 8.58284 6.08648L8.56259 6.06509C8.2869 5.77375 8.16706 5.60381 8.07294 5.30752C7.98505 5.03111 8.17493 4.83913 8.35566 4.91599C8.36797 4.92121 8.38032 4.92715 8.3928 4.93382C8.451 4.96496 8.51073 5.01098 8.58976 5.08311C8.61683 5.10781 8.69616 5.18359 8.75759 5.24227C8.77112 5.25519 8.78378 5.26729 8.79483 5.27782ZM10.8646 6.53902L10.867 6.55411L10.8646 6.53902C10.8646 6.53902 10.8646 6.53902 10.8646 6.53902ZM10.8646 6.53902C10.7932 6.55156 10.7591 6.47813 10.7447 6.33536C10.8817 6.30921 11.0323 6.28483 11.1919 6.27113C11.3849 6.25451 11.5821 6.21331 11.7655 6.15078C11.8035 6.31851 11.8607 6.41693 11.9446 6.38745C12.0319 6.35812 12.1108 6.32678 12.1826 6.29234C12.1843 6.29155 12.1861 6.29072 12.1878 6.28986L12.1816 6.27601C12.1801 6.27676 12.1785 6.27751 12.177 6.27825C12.1785 6.27755 12.18 6.27682 12.1815 6.27605L12.1877 6.2899C12.186 6.29072 12.1843 6.29153 12.1826 6.29234C12.1599 6.30287 12.1391 6.30669 12.1199 6.30432C12.0642 6.32855 12.0045 6.35127 11.9401 6.37292C11.869 6.39789 11.8149 6.30479 11.7703 6.1414C11.5787 6.1984 11.3826 6.23937 11.1907 6.25589C11.0305 6.26965 10.8791 6.29414 10.7358 6.32872C10.7432 6.44973 10.7665 6.52537 10.8141 6.54836C10.8309 6.54508 10.8477 6.54198 10.8646 6.53902ZM8.79483 5.27782C8.80689 5.28811 8.81904 5.29964 8.83121 5.31241L8.82121 5.32352C8.81435 5.31708 8.80137 5.30473 8.78478 5.2889C8.7967 5.29904 8.80876 5.31048 8.82091 5.32323L8.83091 5.31212C8.82412 5.30575 8.81127 5.29351 8.79483 5.27782Z" fill="black"/>
<path fill-rule="evenodd" clip-rule="evenodd" d="M13.746 8.90432C13.65 9.3136 13.7629 9.77528 14.0221 10.023L14.0219 10.0344C13.6639 10.3577 13.2858 10.6108 12.8868 10.8144C12.7695 10.8743 12.6695 10.9414 12.5603 11.029C12.5332 11.0508 12.5064 11.073 12.4717 11.1023C12.4749 11.0997 12.4058 11.1583 12.3867 11.1743C12.3014 11.2458 12.2379 11.2939 12.1694 11.3361C12.5656 11.4066 13.0163 11.7907 13.318 12.2938C13.675 12.8888 14.0302 13.1808 14.6081 13.4833C14.9293 13.6516 14.9127 13.869 14.6543 14.1906C14.4822 14.4048 14.4138 14.5778 14.314 14.9642C14.2053 15.3851 14.1296 15.5717 13.9284 15.8101C13.7443 16.0282 13.4912 15.9516 13.464 15.7488C13.4544 15.6763 13.46 15.5942 13.4799 15.48C13.4888 15.4287 13.5253 15.2532 13.5433 15.1665L13.5532 15.1185C13.5556 15.1064 13.5577 15.0946 13.5594 15.0828C13.5591 15.0992 13.5613 15.1145 13.566 15.1288L13.5574 15.1701C13.5394 15.2571 13.5031 15.4318 13.4942 15.4827C13.4745 15.5955 13.469 15.6761 13.4784 15.7467C13.5038 15.9364 13.7416 16.0083 13.9175 15.7999C14.1168 15.5638 14.1918 15.379 14.3 14.9602C14.4003 14.5718 14.4694 14.3971 14.6432 14.1807C14.8964 13.8656 14.9121 13.6597 14.6016 13.497C14.0215 13.1933 13.6643 12.8997 13.3057 12.3019C13.0008 11.7936 12.5431 11.4078 12.1468 11.3479L12.1443 11.3336C12.219 11.2893 12.2855 11.2396 12.3777 11.1623C12.3967 11.1464 12.4657 11.0878 12.4626 11.0904C12.4973 11.061 12.5243 11.0387 12.5514 11.0169C12.6614 10.9287 12.7622 10.861 12.8804 10.8007C13.2761 10.5987 13.6511 10.3481 14.0062 10.0284L14.0123 10.0343L14.0124 10.0228L14.0062 10.0284C13.7472 9.77543 13.6354 9.31202 13.7334 8.90744C13.5442 8.67348 13.0717 8.57678 12.7081 8.67473C12.3584 8.93432 12.0672 9.26683 11.7908 9.69126C11.7148 9.80813 11.5609 10.0759 11.4111 10.3365L11.4111 10.3365C11.2555 10.6073 11.1043 10.8703 11.0494 10.9485C11.0321 10.9731 11.0151 10.9962 10.9984 11.0179C10.8313 11.2339 10.8273 11.6657 11.0738 11.8706C11.0853 11.8801 11.0964 11.8898 11.1073 11.8997C11.1406 11.9298 11.1709 11.961 11.2065 12.001L11.2485 12.0493L11.2485 12.0493L11.2485 12.0494C11.2766 12.0817 11.3103 12.1206 11.3257 12.1378C11.3791 12.1977 11.4324 12.2529 11.4962 12.3131C11.6608 12.4686 11.8836 12.6456 12.1996 12.8652C12.3604 12.9769 12.8661 13.3108 12.8635 13.3091C13.087 13.4599 13.2137 13.5581 13.2839 13.6418C13.5096 13.9105 13.5919 14.0664 13.5641 14.2726C13.5525 14.358 13.5491 14.4337 13.5524 14.5286L13.5455 14.5273L13.5381 14.5342C13.5344 14.4361 13.5378 14.3584 13.5496 14.2705C13.5767 14.0703 13.4959 13.9174 13.2729 13.6519C13.204 13.5697 13.078 13.472 12.8557 13.322C12.8583 13.3238 12.3525 12.9897 12.1916 12.8779C11.875 12.658 11.6517 12.4805 11.4865 12.3245C11.4224 12.2639 11.3688 12.2084 11.3151 12.1483C11.2996 12.1309 11.2656 12.0918 11.2376 12.0594L11.1958 12.0115C11.1606 11.9718 11.1307 11.941 11.0978 11.9112C11.0871 11.9015 11.0761 11.892 11.0647 11.8826C10.8112 11.6718 10.8153 11.2304 10.987 11.0083C11.0037 10.9867 11.0205 10.9638 11.0377 10.9394C11.0922 10.8619 11.2427 10.6 11.3979 10.3299L11.3979 10.3299L11.3979 10.3299L11.3979 10.3299L11.3979 10.3299L11.3979 10.3299L11.3979 10.3299C11.5479 10.0688 11.7024 9.8001 11.7788 9.68264C12.056 9.25682 12.3484 8.923 12.7021 8.66108C13.073 8.56064 13.5512 8.65851 13.746 8.90432ZM13.5388 14.5527L13.5381 14.5342L13.5369 14.5353C13.5373 14.5413 13.538 14.5471 13.5388 14.5527ZM13.5563 14.6062C13.5478 14.5901 13.5419 14.5723 13.5388 14.5527C13.5412 14.6057 13.5455 14.6648 13.5515 14.7345L13.5525 14.7461L13.5501 14.748C13.5514 14.7622 13.5534 14.7756 13.556 14.7884C13.5673 14.9279 13.5697 15.0001 13.5615 15.0675L13.5605 15.0681C13.5599 15.0731 13.5595 15.078 13.5594 15.0828L13.5615 15.0675L13.5709 15.0621L13.5765 15.065C13.5759 15.0704 13.5752 15.0757 13.5744 15.081L13.5741 15.0808C13.5742 15.0772 13.5745 15.0736 13.5749 15.0699L13.5645 15.0758L13.5741 15.0808C13.574 15.0819 13.574 15.0829 13.574 15.084C13.5722 15.0964 13.57 15.1089 13.5675 15.1217L13.566 15.1288C13.5969 15.2235 13.7326 15.2711 13.8951 15.2461L13.8972 15.2317L13.5765 15.065C13.5831 15.0079 13.5822 14.9468 13.575 14.8455C13.6272 14.9521 13.7629 14.9861 14.0488 14.9611L14.0509 14.9464L13.5668 14.743L13.566 14.7331C13.562 14.6865 13.5587 14.6446 13.5563 14.6062ZM13.5533 14.5509C13.5541 14.5686 13.5551 14.587 13.5563 14.6062C13.6197 14.7251 13.83 14.7474 14.1312 14.6545L14.1304 14.6397L13.5524 14.5286L13.5531 14.5443L13.5524 14.5441L13.5514 14.5342L13.5428 14.5423L13.5524 14.5441L13.5533 14.5509ZM14.0971 14.6488C13.7802 14.7403 13.5773 14.6976 13.5533 14.5509L13.5531 14.5443L14.0971 14.6488ZM14.0971 14.6488L14.1271 14.6399L14.1278 14.6547L14.0971 14.6488ZM13.5683 14.7601L13.5668 14.743L13.56 14.7402L13.5525 14.7461L13.556 14.7884C13.5604 14.8093 13.5666 14.8283 13.575 14.8455C13.5737 14.827 13.5722 14.8072 13.5704 14.7858C13.5995 14.9228 13.7151 14.971 14.0164 14.9484L14.0454 14.9606L14.0476 14.9459L14.0164 14.9484L13.5683 14.7601ZM13.5659 14.7591C13.5671 14.7684 13.5686 14.7773 13.5704 14.7858L13.5683 14.7601L13.5659 14.7591ZM13.5659 14.7591L13.5646 14.7465L13.5546 14.7544L13.5659 14.7591ZM13.8691 15.2341L13.5744 15.081C13.5743 15.082 13.5741 15.083 13.574 15.084C13.5726 15.1909 13.7017 15.2527 13.8691 15.2341ZM13.8691 15.2341L13.8908 15.2454L13.893 15.231C13.8849 15.2322 13.877 15.2332 13.8691 15.2341Z" fill="black"/>
<path fill-rule="evenodd" clip-rule="evenodd" d="M13.2617 9.73357C13.4754 9.6179 13.5642 9.5609 13.719 9.42383L13.7309 9.42827C13.733 9.44022 13.7362 9.45586 13.7395 9.47217C13.7443 9.4958 13.7493 9.52084 13.7519 9.53813C13.6137 9.65498 13.5333 9.70543 13.334 9.81329L13.293 9.83567C13.0839 9.9509 12.9426 10.0641 12.7362 10.3072C12.4783 10.6108 12.09 10.9589 11.8612 11.0939L11.7969 11.0157C12.0155 10.8805 12.4027 10.5334 12.6595 10.2309C12.8672 9.98636 13.0099 9.87202 13.2207 9.75593L13.2617 9.73357ZM13.7166 9.43107L13.7284 9.43552C13.7252 9.43833 13.7221 9.44112 13.7189 9.44387C13.7181 9.4393 13.7173 9.435 13.7166 9.43107ZM13.7189 9.44387C13.5689 9.57587 13.4786 9.63338 13.2683 9.74716L13.2274 9.76946C13.0182 9.88474 12.8769 9.99795 12.6704 10.2411C12.4126 10.5447 12.0243 10.8928 11.8056 11.0168L11.8626 11.0818C12.0812 10.9466 12.4684 10.5995 12.7253 10.297C12.9329 10.0525 13.0756 9.93819 13.2862 9.82213L13.3273 9.7997C13.5258 9.69228 13.6056 9.64226 13.7405 9.53463C13.7344 9.51581 13.7248 9.47411 13.7189 9.44387Z" fill="black"/>
<path fill-rule="evenodd" clip-rule="evenodd" d="M12.5967 11.8964L12.6056 11.8843C12.666 11.9311 12.7233 11.9799 12.7772 12.0309L12.7677 12.0425L12.5967 11.8964ZM12.597 11.8966C12.657 11.9431 12.7139 11.9916 12.7674 12.0423L12.7769 12.0307L12.6059 11.8845L12.597 11.8966ZM13.5603 13.0071C13.5605 13.0073 13.5607 13.0075 13.5608 13.0077L13.5721 12.996L13.5718 12.9957C13.572 12.9958 13.5721 12.996 13.5722 12.9961L13.5609 13.0078L13.5603 13.0071ZM13.4393 12.8798L13.5603 13.0071C13.5208 12.9678 13.4807 12.9256 13.4393 12.8798ZM13.4389 12.8793C13.439 12.8794 13.4392 12.8796 13.4393 12.8798L13.4389 12.8793L13.4389 12.8793ZM13.4504 12.8679L13.4389 12.8793C13.4388 12.8792 13.4388 12.8792 13.4387 12.8791L13.4503 12.8677L13.4504 12.8679ZM13.4508 12.8683L13.5718 12.9957C13.5323 12.9564 13.4923 12.9142 13.4508 12.8683ZM13.4508 12.8683L13.4504 12.8679L13.4504 12.8678C13.4506 12.868 13.4507 12.8681 13.4508 12.8683Z" fill="black"/>
<path fill-rule="evenodd" clip-rule="evenodd" d="M11.8745 11.6731L11.8705 11.6596C11.8763 11.6601 11.8822 11.6607 11.888 11.6613L11.8745 11.6731ZM12.7254 11.631C12.7375 11.6605 12.7354 11.6942 12.7207 11.7314C12.7074 11.7653 12.6847 11.8003 12.6522 11.8412C12.6401 11.8564 12.6281 11.8706 12.597 11.8968C12.3776 11.7265 12.154 11.6217 11.9596 11.599L11.888 11.6613C12.2844 11.7049 12.769 12.0698 13.0933 12.5439C13.4068 13.0021 13.7481 13.2918 14.1666 13.5212C14.149 13.5521 14.1437 13.5795 14.1386 13.6437L14.1385 13.6453C14.1373 13.6605 14.1366 13.6685 14.1356 13.6775C14.107 13.9393 13.9903 14.1218 13.8329 14.201C13.723 14.2562 13.6128 14.2464 13.5684 14.185C13.5679 14.1691 13.5664 14.1532 13.5638 14.1357L13.5495 14.1381C13.5523 14.156 13.5588 14.1717 13.5684 14.185C13.5692 14.2114 13.5673 14.238 13.5633 14.2728C13.5614 14.2892 13.5606 14.2966 13.5598 14.3047C13.5498 14.3961 13.805 14.4155 13.9896 14.2819C14.0732 14.2213 14.1717 14.0576 14.2139 13.924L14.2277 13.9239C14.278 14.0717 14.2795 14.1554 14.2231 14.2904C14.1787 14.2656 14.1347 14.2235 14.1035 14.1788C14.1063 14.1748 14.1085 14.1717 14.1094 14.1705L14.1089 14.1705L14.0976 14.1702C14.0995 14.173 14.1014 14.1758 14.1033 14.1786C14.1034 14.1787 14.1034 14.1787 14.1035 14.1788C14.1027 14.1799 14.1019 14.181 14.1011 14.1822C14.0943 14.1917 14.0854 14.2041 14.0816 14.2092C14.0698 14.2252 14.0589 14.2386 14.0468 14.2514C14.0401 14.2585 14.0331 14.2653 14.0261 14.2709C14.0175 14.2777 14.0088 14.2827 14.0001 14.2844C14.0012 14.2864 14.0023 14.2884 14.0034 14.2903C14.0397 14.3544 14.1029 14.4147 14.1801 14.4605C14.1669 14.5126 14.1639 14.5256 14.135 14.6529C14.077 14.9088 14.0375 15.0311 13.9569 15.161C13.8603 15.3166 13.7405 15.4007 13.6474 15.3891C13.5853 15.3814 13.5468 15.3329 13.5392 15.2562C13.5458 15.2241 13.5521 15.1942 13.5569 15.1707C13.5385 15.2895 13.5754 15.3647 13.6492 15.3739C13.7357 15.3848 13.8508 15.3039 13.9447 15.1526C14.0241 15.0246 14.0632 14.9036 14.1209 14.6494C14.1498 14.5219 14.1528 14.5088 14.1699 14.4654C14.0962 14.428 14.0325 14.3685 13.9961 14.2957C13.8034 14.434 13.5333 14.4131 13.5453 14.3031C13.5461 14.2949 13.5469 14.2873 13.5489 14.271C13.5552 14.2164 13.5561 14.1829 13.5494 14.138L13.5638 14.1356C13.5776 14.2239 13.7004 14.2506 13.8266 14.1872C13.9794 14.1104 14.0931 13.9324 14.1211 13.6758C14.1221 13.6669 14.1228 13.6591 14.124 13.6441L14.1241 13.6424C14.1294 13.576 14.135 13.5469 14.1571 13.5241C13.7396 13.3045 13.3964 13.0131 13.0814 12.5528C12.7546 12.075 12.2639 11.7089 11.8693 11.6749L11.8652 11.6614L11.9557 11.5855C12.1583 11.6067 12.3843 11.7127 12.5958 11.8855C12.6172 11.8604 12.6291 11.8464 12.641 11.8313C12.6727 11.7916 12.6946 11.7577 12.7073 11.7255C12.7288 11.6709 12.7209 11.6271 12.6762 11.5929C12.6925 11.6051 12.7089 11.6178 12.7254 11.631ZM13.5808 12.6975C13.5857 12.7522 13.535 12.8111 13.4388 12.8784C13.3388 12.7657 13.243 12.6403 13.1513 12.5012C13.0418 12.3351 12.91 12.1773 12.7671 12.0315C12.8796 11.909 12.9292 11.8134 12.8731 11.7612C12.8227 11.7131 12.7736 11.6697 12.7254 11.631C12.7177 11.6124 12.7043 11.5955 12.6847 11.5805C12.7492 11.6286 12.8148 11.6849 12.8828 11.7498C12.9491 11.8115 12.8966 11.9125 12.7772 12.0311C12.9206 12.1667 13.0532 12.3254 13.1633 12.4925C13.2545 12.631 13.35 12.7558 13.4398 12.8671C13.5505 12.7823 13.5939 12.7148 13.5478 12.6561C13.5587 12.6701 13.5698 12.6838 13.5808 12.6975ZM13.559 12.6463L13.5478 12.6561C13.5478 12.6561 13.5478 12.6561 13.5478 12.6561L13.559 12.6463ZM14.1833 13.4593C13.9543 13.3299 13.7528 13.1808 13.5602 12.9865C13.6713 12.9128 13.7154 12.8386 13.6606 12.7689C13.6256 12.7289 13.5922 12.6886 13.559 12.6464L13.559 12.6463C13.5721 12.663 13.5793 12.68 13.5808 12.6975C13.6034 12.7252 13.6262 12.7522 13.6496 12.779C13.6963 12.8382 13.6564 12.9052 13.5508 12.9858C13.746 13.1953 13.9513 13.3464 14.1848 13.4775L14.1955 13.4713C14.1962 13.4599 14.2085 13.4457 14.2476 13.4082L14.2543 13.4017C14.277 13.3797 14.2896 13.3657 14.2974 13.3522C14.3085 13.3329 14.307 13.3161 14.2902 13.305C14.2949 13.3096 14.3162 13.2705 14.3254 13.2535C14.3264 13.2518 14.3272 13.2502 14.3279 13.249C14.3826 13.1496 14.436 13.1062 14.5629 13.0832C14.4066 13.1848 14.3805 13.3749 14.4979 13.446C14.5149 13.4543 14.5268 13.4601 14.5431 13.4683L14.5436 13.4686C14.5768 13.4852 14.5802 13.487 14.6013 13.4973C14.7711 13.5809 14.8426 13.685 14.8325 13.8109C14.824 13.9167 14.7599 14.0351 14.6427 14.181C14.4689 14.3973 14.3999 14.572 14.2995 14.9604C14.1913 15.3792 14.1163 15.564 13.917 15.8001C13.7411 16.0086 13.5034 15.9366 13.478 15.7469C13.4686 15.6763 13.4741 15.5957 13.4938 15.483C13.5002 15.4459 13.5213 15.343 13.5392 15.2562C13.5366 15.2297 13.5377 15.1998 13.5428 15.167C13.5428 15.1669 13.5428 15.1668 13.5429 15.1667C13.5481 15.1414 13.5518 15.1237 13.5528 15.1188L13.5669 15.1223C13.5626 15.1391 13.5593 15.1553 13.5569 15.1707C13.557 15.1706 13.557 15.1705 13.557 15.1704C13.5623 15.1448 13.566 15.1269 13.567 15.1219L13.5529 15.1183C13.5486 15.1352 13.5452 15.1514 13.5428 15.167C13.5247 15.2539 13.4884 15.429 13.4794 15.4802C13.4595 15.5945 13.4539 15.6765 13.4636 15.749C13.4907 15.9518 13.7438 16.0284 13.9279 15.8103C14.1291 15.5719 14.2049 15.3853 14.3136 14.9644C14.4134 14.578 14.4818 14.405 14.6539 14.1908C14.7728 14.0427 14.8382 13.922 14.847 13.8122C14.8576 13.6792 14.7823 13.5695 14.6075 13.4834C14.5865 13.4731 14.583 13.4714 14.5499 13.4548L14.5494 13.4545C14.533 13.4463 14.5211 13.4404 14.5045 13.4324C14.3905 13.3634 14.427 13.1654 14.6056 13.0762L14.6016 13.0617C14.4403 13.0835 14.3778 13.1279 14.3153 13.2414C14.31 13.2509 14.295 13.2794 14.2863 13.2959C14.2831 13.3019 14.2807 13.3064 14.28 13.3078C14.2917 13.324 14.2923 13.3315 14.2849 13.3443C14.2781 13.3562 14.2661 13.3695 14.2444 13.3905L14.2378 13.3969C14.2031 13.4302 14.1884 13.4456 14.1833 13.4593ZM14.5629 13.0832C14.5744 13.0758 14.5865 13.0688 14.5994 13.0624L14.6034 13.0769C14.5891 13.0788 14.5757 13.0809 14.5629 13.0832ZM12.6847 11.5805C12.6834 11.5796 12.6821 11.5786 12.6809 11.5777L12.6726 11.5902C12.6738 11.5911 12.675 11.592 12.6762 11.5929C12.6749 11.592 12.6737 11.5911 12.6725 11.5902L12.6808 11.5776C12.6821 11.5786 12.6834 11.5795 12.6847 11.5805ZM14.1123 14.1655C14.1424 14.21 14.1859 14.2526 14.2197 14.281C14.2625 14.1598 14.2632 14.0814 14.2208 13.9496C14.1956 14.0215 14.1562 14.0996 14.1123 14.1655Z" fill="black"/>
<path fill-rule="evenodd" clip-rule="evenodd" d="M14.6235 12.873L14.5085 12.7271L14.4958 12.7302L14.4539 12.9205L14.2731 12.9188L14.2676 12.9312L14.3841 13.0843L14.2705 13.2305L14.2763 13.2428L14.4632 13.244L14.5004 13.4283L14.5131 13.4313L14.6304 13.2786L14.7927 13.362L14.8028 13.3533L14.7604 13.1627L14.9242 13.0822L14.9241 13.0685L14.7554 12.9828L14.7991 12.7994L14.7888 12.7908L14.6235 12.873ZM14.7817 12.8113L14.6246 12.8894L14.6159 12.8874L14.5063 12.7483L14.51 12.7336L14.4973 12.7368L14.5063 12.7483L14.4611 12.9299L14.2876 12.9337L14.279 12.9216L14.2734 12.9341L14.2876 12.9337L14.3956 13.0842L14.2907 13.228L14.2763 13.2275L14.2821 13.2398L14.2907 13.228L14.4704 13.2346L14.5111 13.4102L14.5018 13.4217L14.5145 13.4247L14.5111 13.4102L14.6278 13.2669L14.7857 13.3419L14.7886 13.3568L14.7987 13.3481L14.7857 13.3419L14.75 13.1576L14.905 13.0753L14.9177 13.0823L14.9176 13.0686L14.905 13.0753L14.7451 12.988L14.7817 12.8113ZM14.7817 12.8113L14.7951 12.8046L14.7848 12.7961L14.7817 12.8113Z" fill="black"/>
<path fill-rule="evenodd" clip-rule="evenodd" d="M14.0583 8.85343C14.4439 8.73597 14.7683 8.40242 14.8429 8.04312L14.8524 8.03753C15.2984 8.20152 15.6965 8.41887 16.0635 8.67964C16.2158 8.78781 16.3067 8.83125 16.5739 8.93949C16.7012 8.99106 16.7761 9.02542 16.8524 9.07103C16.7125 8.67543 16.804 8.07359 17.068 7.54772C17.3804 6.92571 17.4436 6.45704 17.4042 5.78001C17.3823 5.40363 17.5698 5.31012 17.9644 5.38425C18.2218 5.43266 18.4055 5.40871 18.7526 5.31247L18.7795 5.30499C19.1731 5.19562 19.3679 5.17128 19.6632 5.23469C19.9351 5.29297 19.9985 5.5616 19.8448 5.68747C19.7865 5.73521 19.7115 5.77245 19.5956 5.81467C19.5591 5.82796 19.4465 5.86571 19.3651 5.89301L19.3651 5.89302C19.3252 5.90639 19.2928 5.91724 19.2805 5.92149L19.2683 5.92588C19.2803 5.91821 19.2906 5.90923 19.2991 5.89911L19.3609 5.87836L19.3609 5.87835C19.4423 5.85107 19.5545 5.81344 19.5908 5.80022C19.7053 5.75851 19.7791 5.7219 19.8358 5.67541C19.9796 5.55764 19.9201 5.30537 19.6603 5.24967C19.3677 5.18686 19.1748 5.21096 18.7832 5.31977L18.7563 5.32725C18.4074 5.42402 18.2219 5.4482 17.9619 5.39931C17.5752 5.32666 17.3976 5.41524 17.4188 5.77908C17.4583 6.45866 17.3947 6.92996 17.0809 7.55486C16.8141 8.08621 16.7247 8.69537 16.8734 9.0857L16.8629 9.09512C16.781 9.04439 16.7052 9.00907 16.5687 8.95376C16.3005 8.8451 16.2089 8.80133 16.0554 8.6923C15.6914 8.43375 15.2969 8.218 14.8553 8.05481L14.8571 8.04637L14.8476 8.05196L14.8553 8.05481C14.7763 8.41662 14.4499 8.75004 14.0672 8.86335C13.9688 9.15227 14.1252 9.63004 14.3879 9.91193C14.5298 9.9806 14.6772 10.0377 14.8308 10.0842C15.3039 10.2276 15.6913 10.2589 16.4612 10.2608C16.8564 10.2617 17.0106 10.2673 17.1754 10.2949C17.4372 10.3387 17.7953 10.1265 17.8411 9.80009C17.8487 9.74589 17.8594 9.69622 17.8752 9.63936C17.8849 9.6042 17.9278 9.46412 17.9237 9.47788C17.9454 9.40524 17.9625 9.34171 17.9791 9.26836C18.0332 9.02974 18.0727 8.7216 18.0985 8.27902C18.1084 8.10841 18.1111 8.04083 18.124 7.67659C18.1402 7.2204 18.1551 7.03507 18.1969 6.90481C18.306 6.56495 18.3933 6.41236 18.5772 6.33466C18.6509 6.30352 18.7192 6.26612 18.7941 6.21711L18.7965 6.2242L18.8059 6.22742C18.7287 6.27818 18.6585 6.31677 18.5826 6.34884C18.4041 6.42427 18.3185 6.57395 18.2107 6.9097C18.1696 7.0379 18.1546 7.22293 18.1385 7.67716C18.1256 8.04154 18.1229 8.10917 18.113 8.27995C18.0872 8.72335 18.0475 9.03235 17.9933 9.2719C17.9766 9.34563 17.9594 9.4095 17.9376 9.48247C17.9416 9.46891 17.8989 9.60871 17.8892 9.64364C17.8736 9.69986 17.863 9.74886 17.8555 9.80231C17.8084 10.138 17.4422 10.355 17.1731 10.31C17.0094 10.2826 16.8555 10.277 16.4612 10.2761C15.69 10.2742 15.3015 10.2428 14.8267 10.0989C14.6725 10.0521 14.5244 9.99482 14.3796 9.92423C14.1113 9.63694 13.9529 9.15339 14.0583 8.85343ZM18.8208 6.2175L18.8059 6.22742L18.8075 6.22796C18.8122 6.22462 18.8166 6.22113 18.8208 6.2175ZM18.8561 6.17509C18.8471 6.19082 18.8354 6.20501 18.8208 6.2175C18.8451 6.20128 18.8701 6.18386 18.8962 6.16506C18.9109 6.1545 18.9432 6.13072 18.9735 6.10842L18.9763 6.10967C18.9874 6.10134 18.9975 6.09279 19.0067 6.08397L19.0372 6.06159C19.09 6.02332 19.1307 5.99603 19.1701 5.97326C19.1932 5.95987 19.2155 5.94838 19.2372 5.93868L19.2399 5.94022C19.2503 5.93615 19.2598 5.93135 19.2683 5.92588C19.258 5.92973 19.2477 5.934 19.2372 5.93868L19.2283 5.93368L19.2278 5.92626C19.2332 5.92383 19.2385 5.9215 19.2438 5.91928L19.244 5.92144C19.2405 5.92312 19.2369 5.92469 19.2332 5.92615L19.2447 5.9327L19.244 5.92144C19.249 5.91901 19.2537 5.91635 19.2582 5.91348C19.2641 5.91117 19.2701 5.909 19.276 5.90696L19.2991 5.89911C19.3641 5.82206 19.3302 5.67882 19.2165 5.5468L19.2017 5.55202L19.2278 5.92626C19.2068 5.93582 19.1853 5.94699 19.163 5.95986C19.1271 5.98063 19.0903 6.00503 19.0445 6.03782C19.1059 5.93702 19.066 5.79674 18.9028 5.54963L18.8896 5.55507L18.9638 6.09687C18.9339 6.11888 18.9024 6.14208 18.888 6.15245L18.8561 6.17509ZM18.8121 6.20522C18.8265 6.19562 18.8411 6.18558 18.8561 6.17509C18.9228 6.05804 18.836 5.85559 18.6086 5.62796L18.5967 5.63606L18.7941 6.21711L18.8067 6.20878L18.807 6.20949L18.7993 6.2153L18.8102 6.21906L18.807 6.20949L18.8121 6.20522ZM18.6209 5.66181C18.8549 5.90425 18.9211 6.11013 18.8121 6.20522L18.8067 6.20878L18.6209 5.66181ZM18.6209 5.66181L18.5986 5.63903L18.6104 5.63092L18.6209 5.66181ZM18.9772 6.08703L18.9638 6.09687L18.9649 6.10455L18.9735 6.10842L18.9898 6.09644L18.9898 6.09642L19.0067 6.08397C19.0219 6.06943 19.0345 6.05414 19.0445 6.03782L19.0289 6.049L18.9974 6.07216C19.0957 5.97712 19.0776 5.84791 18.9085 5.58537L18.904 5.55289L18.8908 5.55834L18.9085 5.58537L18.9772 6.08703ZM18.9775 6.08968C18.9846 6.08396 18.9912 6.07813 18.9974 6.07216L18.9813 6.08398L18.9772 6.08703L18.9775 6.08968ZM18.9775 6.08968L18.9678 6.09725L18.9793 6.10237L18.9775 6.08968ZM19.2198 5.57639L19.2438 5.91928C19.2486 5.91726 19.2534 5.91532 19.2582 5.91348C19.3473 5.85627 19.3288 5.71386 19.2198 5.57639ZM19.2198 5.57639L19.2181 5.55105L19.2032 5.55627C19.209 5.56296 19.2145 5.56967 19.2198 5.57639Z" fill="black"/>
<path fill-rule="evenodd" clip-rule="evenodd" d="M14.6097 8.6626C14.575 8.64728 14.5387 8.6324 14.5003 8.61787L14.498 8.60486C14.5074 8.59647 14.5192 8.58529 14.5314 8.57378C14.5482 8.55797 14.5656 8.54153 14.5782 8.53076C14.5973 8.5385 14.6158 8.54634 14.6339 8.5543C14.7749 8.61628 14.8365 8.65361 15.023 8.77923C15.2467 8.92986 15.4013 9.00041 15.7205 9.06998C16.1 9.15279 16.5813 9.33175 16.8067 9.47206L16.7745 9.56975C16.5536 9.43855 16.0737 9.26011 15.6958 9.17779C15.3748 9.10781 15.2186 9.03651 14.9934 8.88488C14.8087 8.76045 14.7481 8.72373 14.6097 8.6626ZM14.5075 8.61649L14.5052 8.60348C14.5091 8.60496 14.513 8.60644 14.5169 8.60793C14.5136 8.61099 14.5104 8.61387 14.5075 8.61649ZM14.5811 8.54291C14.5686 8.5579 14.5393 8.58718 14.5169 8.60793C14.5512 8.62114 14.5839 8.63464 14.6153 8.6485C14.7548 8.71008 14.8159 8.74712 15.0013 8.87201C15.225 9.02268 15.3796 9.09324 15.6988 9.16282C16.0781 9.24544 16.5593 9.42441 16.771 9.56128L16.7961 9.4769C16.5756 9.3459 16.0956 9.16745 15.7175 9.08495C15.3965 9.01498 15.2403 8.94368 15.0152 8.7921C14.8293 8.66694 14.7682 8.62994 14.6283 8.5684C14.6273 8.56797 14.6263 8.56754 14.6253 8.5671C14.6083 8.55964 14.5913 8.55217 14.5811 8.54291Z" fill="black"/>
<path fill-rule="evenodd" clip-rule="evenodd" d="M17.4921 7.14561C17.5109 7.08932 17.5271 7.03618 17.5409 6.98484L17.5248 6.98096L17.5247 6.98117L17.5247 6.98117C17.5247 6.98121 17.5247 6.98125 17.5247 6.98129L17.4763 7.14098C17.4762 7.14103 17.4762 7.14108 17.4762 7.14113L17.4762 7.14114L17.4761 7.14132L17.4921 7.14561ZM17.4762 7.14114L17.4922 7.14543L17.5409 6.98506L17.5247 6.98117L17.5247 6.98129C17.511 7.03226 17.4949 7.08505 17.4763 7.14098L17.4762 7.14114ZM15.0007 8.27959C14.9417 8.25663 14.8749 8.22228 14.8102 8.18226L14.807 8.17326L14.8151 8.14738L14.8151 8.14738C14.8264 8.11051 14.8395 8.06829 14.8531 8.03781C15.2991 8.2018 15.6972 8.41915 16.0643 8.67992C16.2165 8.78809 16.3074 8.83153 16.5746 8.93977C16.7119 8.99537 16.7883 9.03096 16.8736 9.09271L16.7822 9.24012C16.6682 9.17001 16.3866 9.04378 16.1777 8.96374C16.1769 8.98536 16.1674 9.01015 16.1498 9.04243C16.1458 9.04977 16.1415 9.05719 16.1356 9.06728C16.1082 9.11427 16.1028 9.12434 16.098 9.14074C16.0923 9.16032 16.0964 9.1705 16.1138 9.17592L16.1098 9.19062L16.1097 9.19058L16.1137 9.17589L16.0828 9.16677C16.0802 9.15827 16.0807 9.14801 16.0841 9.13626C16.0894 9.11801 16.0949 9.10791 16.1232 9.05929C16.129 9.04932 16.1332 9.04201 16.1371 9.03483C16.1566 8.99915 16.1652 8.97379 16.1628 8.95363L16.1725 8.94548C16.3831 9.02556 16.6727 9.15508 16.7796 9.22964L16.8636 9.0954C16.7817 9.04467 16.7059 9.00935 16.5694 8.95404C16.3012 8.84538 16.2096 8.80161 16.0561 8.69258C15.69 8.43252 15.293 8.21577 14.8578 8.04683C14.8505 8.07832 14.8355 8.13119 14.8227 8.1722L14.8176 8.16908L14.8208 8.17808L14.8227 8.1722C14.8851 8.21046 14.9493 8.24347 15.0102 8.27459C15.008 8.28239 15.0053 8.2903 15.0021 8.29833C14.9837 8.3444 14.9519 8.3901 14.8993 8.45244L14.8739 8.48209L14.8436 8.51758C14.824 8.54085 14.8108 8.55813 14.8013 8.57324C14.7797 8.60751 14.7796 8.62649 14.8023 8.63807C14.8248 8.64996 14.885 8.68803 14.9502 8.73072C14.9503 8.74263 14.9553 8.75207 14.9656 8.75889L14.9733 8.74595L14.9733 8.74596L14.9656 8.7589C14.8925 8.71066 14.8203 8.66471 14.7958 8.65178C14.7632 8.63513 14.7634 8.60572 14.7891 8.56481C14.7991 8.54898 14.8127 8.53123 14.8326 8.50747L14.8632 8.47173L14.8884 8.4423C14.94 8.38114 14.9711 8.33651 14.9887 8.29242L14.9891 8.29125C14.992 8.28415 14.9946 8.27762 15.0007 8.27959ZM14.9733 8.74595L14.9502 8.73072C14.9499 8.71505 14.9579 8.69511 14.9728 8.67126C14.992 8.64058 15.0187 8.60763 15.0696 8.54949L15.0761 8.54203C15.1701 8.43472 15.1987 8.39687 15.198 8.37125L15.2075 8.36376C15.3251 8.40458 15.4349 8.46358 15.5774 8.55582L15.5825 8.55919L15.5825 8.55919L15.5825 8.55919L15.5825 8.5592L15.5825 8.5592L15.5826 8.55922C15.6113 8.57819 15.7513 8.67059 15.7912 8.69511C15.8662 8.74122 15.9247 8.77013 15.983 8.79473C15.9766 8.82023 15.9647 8.8481 15.9471 8.8806C15.9381 8.89713 15.9282 8.91403 15.9147 8.93607L15.914 8.93722C15.87 9.00899 15.8613 9.02327 15.8549 9.03854C15.8533 9.04233 15.8518 9.04618 15.85 9.05098L15.8498 9.05161C15.8379 9.08312 15.8423 9.09885 15.8666 9.1052C15.8933 9.11133 15.9377 9.12386 16.0119 9.14578L16.0176 9.14746L16.068 9.16243L16.0828 9.16677C16.0862 9.1779 16.095 9.18603 16.1097 9.19058L16.0641 9.17714L16.0136 9.16218L16.0079 9.1605C15.9341 9.13868 15.8898 9.12618 15.8633 9.12009C15.8288 9.11106 15.8215 9.08511 15.8362 9.04599L15.8366 9.04499L15.8366 9.04498L15.8366 9.04497L15.8366 9.04496C15.8385 9.03983 15.8401 9.03575 15.8418 9.03173C15.8484 9.01605 15.8574 9.00137 15.9014 8.9295L15.9024 8.9278C15.9158 8.90597 15.9256 8.88928 15.9344 8.87304C15.9405 8.86179 15.9459 8.85114 15.9508 8.84143L15.9508 8.84142C15.9596 8.82399 15.9669 8.80959 15.974 8.80017C15.9194 8.78445 15.8599 8.75503 15.7838 8.7083C15.7435 8.68353 15.6021 8.59018 15.5744 8.57193L15.5744 8.57191L15.5744 8.57189L15.5697 8.56884C15.4317 8.4795 15.3248 8.42164 15.2118 8.38139C15.2068 8.41151 15.1758 8.45075 15.0868 8.55238L15.0803 8.55983C15.03 8.61733 15.0036 8.64991 14.985 8.67965C14.9628 8.7152 14.9593 8.73663 14.9733 8.74595ZM18.0862 8.69853C18.0967 8.60598 17.989 8.54146 17.7887 8.50002C17.6285 8.46688 17.4137 8.44994 17.1859 8.44802L17.184 8.46307L18.0771 8.70503L18.0862 8.69853ZM18.0723 8.68792L18.0808 8.69022L18.0717 8.69672C18.0721 8.69376 18.0723 8.69083 18.0723 8.68792ZM17.2464 8.46419C17.4507 8.46838 17.641 8.48504 17.7859 8.51502C17.9718 8.55349 18.0733 8.6116 18.0723 8.68792L17.2464 8.46419ZM17.2464 8.46419C17.2263 8.46378 17.2061 8.46348 17.1858 8.46331L17.1877 8.44827L17.2464 8.46419ZM17.1035 8.40185C17.1131 8.32379 17.1264 8.24779 17.1435 8.17408L17.1271 8.17127L17.087 8.39977L17.1035 8.40185ZM17.1034 8.40221L17.0869 8.40013C17.0966 8.32159 17.11 8.24511 17.1272 8.1709L17.1436 8.1737L17.1034 8.40221Z" fill="black"/>
<path fill-rule="evenodd" clip-rule="evenodd" d="M17.4 7.63297C17.1693 8.16906 17.1126 8.79837 17.2818 9.1742L17.2727 9.18464L17.1649 9.14049C17.0811 8.94538 17.0556 8.68692 17.0924 8.4082L17.0556 8.40027C17.0253 8.39391 17.0015 8.38976 16.9784 8.38725C16.877 8.37623 16.819 8.40154 16.8108 8.48139C16.8128 8.4602 16.8151 8.43865 16.8178 8.41672C16.8467 8.37598 16.9025 8.36363 16.9799 8.37204C17.0035 8.37461 17.0277 8.37883 17.0584 8.38528C17.0668 8.38704 17.0931 8.39275 17.1011 8.40157C17.0703 8.68612 17.0956 8.94189 17.1741 9.13017L17.2613 9.16393C17.2637 9.16958 17.2662 9.17519 17.2687 9.18073L17.2778 9.17029L17.2613 9.16393C17.0991 8.78177 17.1578 8.15861 17.3867 7.62668C17.6079 7.11243 17.6763 6.65699 17.6561 6.16212C17.6898 6.16273 17.7157 6.15375 17.7686 6.12767L17.7711 6.12643C17.7856 6.11927 17.7924 6.11601 17.8007 6.11223C18.0308 6.00735 18.2397 6.02219 18.3837 6.12575C18.4838 6.19771 18.5307 6.30212 18.5031 6.37317C18.4906 6.38123 18.4796 6.39002 18.4643 6.40295L18.4734 6.41483C18.4871 6.40306 18.497 6.38894 18.5031 6.37317C18.5228 6.36039 18.5462 6.34945 18.596 6.32676L18.6057 6.32226C18.6861 6.28545 18.5746 6.04384 18.372 5.94278C18.372 5.94278 18.372 5.94278 18.372 5.94278C18.2804 5.89701 18.0961 5.88933 17.9647 5.91768L17.9576 5.90524C18.0546 5.78554 18.1227 5.74235 18.2623 5.72619C18.2641 5.77902 18.2514 5.84009 18.2301 5.89076L18.2202 5.88952L18.2204 5.88996L18.2258 5.9004C18.2273 5.8973 18.2286 5.89416 18.23 5.89097C18.23 5.8909 18.23 5.89083 18.2301 5.89076L18.2353 5.89142C18.2767 5.89641 18.3041 5.90088 18.3274 5.90959C18.342 5.91502 18.355 5.92211 18.3689 5.932C18.37 5.93003 18.3711 5.92804 18.3721 5.92602C18.4068 5.86091 18.4249 5.77328 18.4242 5.68018C18.4627 5.66928 18.5003 5.65789 18.5542 5.64108C18.7255 5.58756 18.7549 5.57882 18.8278 5.56196C18.9318 5.53793 19.0231 5.52789 19.1135 5.53301C19.2902 5.54304 19.4195 5.60986 19.4565 5.70029C19.4811 5.76054 19.4606 5.81976 19.4013 5.86493C19.3875 5.86957 19.3741 5.87408 19.3614 5.87834C19.3476 5.88297 19.3347 5.88729 19.3232 5.89115C19.4292 5.84847 19.4723 5.77761 19.4431 5.70632C19.4087 5.62224 19.2845 5.55802 19.1127 5.54828C19.0238 5.54324 18.9337 5.55314 18.8309 5.57689C18.7585 5.59364 18.7292 5.60235 18.5583 5.65573C18.5044 5.67258 18.4666 5.68401 18.4333 5.687C18.4393 5.77273 18.422 5.86037 18.3802 5.92993C18.5906 6.03608 18.7084 6.29196 18.6116 6.33623L18.6018 6.34079C18.5219 6.37719 18.5116 6.38263 18.4734 6.41486L18.4642 6.40298C18.5303 6.34635 18.4909 6.22137 18.3755 6.13836C18.2358 6.03788 18.0321 6.02341 17.8065 6.12626C17.7983 6.12996 17.7917 6.13318 17.7773 6.14027L17.7748 6.14151C17.7199 6.16855 17.6925 6.17807 17.6632 6.16931C17.6909 6.65844 17.6222 7.11633 17.4 7.63297ZM19.3273 5.90583C19.3563 5.89419 19.3811 5.88038 19.4013 5.86493C19.4759 5.8399 19.5606 5.81137 19.5912 5.80022C19.7057 5.75851 19.7795 5.7219 19.8362 5.67541C19.98 5.55764 19.9205 5.30537 19.6607 5.24967C19.3681 5.18686 19.1752 5.21096 18.7836 5.31977L18.7567 5.32725C18.4078 5.42402 18.2223 5.4482 17.9623 5.39931C17.7834 5.36569 17.6536 5.36666 17.5622 5.41185C17.4533 5.46563 17.4032 5.5827 17.4192 5.7789C17.4198 5.78699 17.4202 5.79219 17.4206 5.79739C17.4214 5.80678 17.4221 5.81618 17.424 5.8426L17.4242 5.84577C17.4256 5.86415 17.4267 5.87839 17.4285 5.89857C17.4285 6.04081 17.2589 6.11204 17.097 6.02083C17.0886 6.01034 17.0801 5.99909 17.0713 5.98703L17.0614 5.99795C17.0732 6.00649 17.0851 6.0141 17.097 6.02083C17.1448 6.08049 17.1875 6.11529 17.2322 6.13337C17.274 6.15034 17.3059 6.15284 17.3942 6.1511C17.4084 6.15082 17.4148 6.15071 17.416 6.158C17.4168 6.13622 17.4309 6.1267 17.4538 6.12784C17.4696 6.12862 17.487 6.13327 17.5197 6.14408L17.524 6.1455C17.5726 6.16166 17.5908 6.16581 17.6004 6.16083L17.6109 6.16743C17.6196 6.44492 17.5976 6.7074 17.5224 6.98972C17.4028 6.93411 17.328 6.93135 17.3023 7.00337C17.2918 7.03846 17.281 7.07265 17.2695 7.10659C17.256 7.11668 17.2456 7.13167 17.2384 7.15192L17.252 7.15727C17.252 7.15727 17.252 7.15727 17.252 7.15727C17.258 7.14038 17.2638 7.12352 17.2695 7.10659C17.3122 7.07486 17.3862 7.09149 17.4898 7.14534C17.4468 7.29263 17.3913 7.44257 17.3225 7.59542C17.2402 7.77786 17.176 7.97654 17.1271 8.17963C16.9701 8.1385 16.8662 8.14114 16.8512 8.21835C16.8368 8.28817 16.8256 8.35402 16.8178 8.41672C16.8063 8.433 16.799 8.45382 16.7964 8.47965C16.7962 8.48141 16.7961 8.48316 16.7959 8.48491L16.8104 8.48621C16.8105 8.48458 16.8107 8.48297 16.8108 8.48139C16.8107 8.48303 16.8106 8.48466 16.8104 8.4863L16.7959 8.485M17.5967 6.17786C17.5828 6.17995 17.5627 6.17442 17.5196 6.16008L17.5153 6.15866C17.4839 6.14827 17.4671 6.14381 17.4531 6.14311C17.4374 6.14233 17.431 6.14665 17.4234 6.16591L17.3945 6.16639C17.3042 6.16817 17.2711 6.16556 17.2269 6.14764C17.1716 6.12522 17.1198 6.07907 17.0597 5.99629L17.0697 5.98536C17.2324 6.10324 17.4139 6.0375 17.414 5.89927C17.4122 5.87972 17.4111 5.86541 17.4097 5.84696L17.4095 5.84378C17.4075 5.81738 17.4069 5.808 17.4061 5.79863C17.4057 5.79345 17.4053 5.78826 17.4046 5.7802C17.3882 5.57813 17.441 5.45481 17.556 5.39801C17.6509 5.35111 17.7832 5.35013 17.9648 5.38425C18.2222 5.43266 18.4059 5.40871 18.753 5.31247L18.7799 5.30499C19.1735 5.19562 19.3683 5.17128 19.6636 5.23469C19.9355 5.29297 19.9989 5.5616 19.8452 5.68747C19.7869 5.73521 19.7119 5.77245 19.596 5.81467C19.5595 5.82796 19.4469 5.86571 19.3655 5.89301C19.3517 5.89764 19.3388 5.90197 19.3273 5.90583C19.3127 5.91165 19.2972 5.91694 19.2805 5.92161L19.2764 5.90696C19.2845 5.90416 19.3013 5.8985 19.3232 5.89115C19.3088 5.89692 19.2934 5.90217 19.2768 5.90684L19.2809 5.92149C19.289 5.91871 19.3056 5.91311 19.3273 5.90583M17.9824 5.89861C18.0543 5.88557 18.1384 5.88237 18.2147 5.88941C18.2364 5.83988 18.2498 5.77902 18.2563 5.734C18.1349 5.75569 18.07 5.79411 17.9824 5.89861Z" fill="black"/>
</g>
</svg>
