<svg width="28" height="20" viewBox="0 0 28 20" fill="none" xmlns="http://www.w3.org/2000/svg">
<rect x="0.25" y="0.25" width="27.5" height="19.5" rx="1.75" fill="white" stroke="#F5F5F5" stroke-width="0.5"/>
<mask id="mask0_6748_104254" style="mask-type:luminance" maskUnits="userSpaceOnUse" x="0" y="0" width="28" height="20">
<rect x="0.25" y="0.25" width="27.5" height="19.5" rx="1.75" fill="white" stroke="white" stroke-width="0.5"/>
</mask>
<g mask="url(#mask0_6748_104254)">
<path fill-rule="evenodd" clip-rule="evenodd" d="M0 6.66667H28V0H0V6.66667Z" fill="#38BB56"/>
<path fill-rule="evenodd" clip-rule="evenodd" d="M0 20.0002H28V13.3335H0V20.0002Z" fill="#DE1B27"/>
<path fill-rule="evenodd" clip-rule="evenodd" d="M1.66634 5.3335C1.48225 5.3335 1.33301 5.48273 1.33301 5.66683V6.3335C1.33301 6.51759 1.48225 6.66683 1.66634 6.66683H2.33301C2.5171 6.66683 2.66634 6.51759 2.66634 6.3335V5.66683C2.66634 5.48273 2.5171 5.3335 2.33301 5.3335H1.66634ZM4.33301 5.3335C4.14891 5.3335 3.99967 5.48273 3.99967 5.66683V6.3335C3.99967 6.51759 4.14891 6.66683 4.33301 6.66683H4.99967C5.18377 6.66683 5.33301 6.51759 5.33301 6.3335V5.66683C5.33301 5.48273 5.18377 5.3335 4.99967 5.3335H4.33301ZM6.66634 5.66683C6.66634 5.48273 6.81558 5.3335 6.99967 5.3335H7.66634C7.85044 5.3335 7.99967 5.48273 7.99967 5.66683V6.3335C7.99967 6.51759 7.85044 6.66683 7.66634 6.66683H6.99967C6.81558 6.66683 6.66634 6.51759 6.66634 6.3335V5.66683ZM9.66634 5.3335C9.48225 5.3335 9.33301 5.48273 9.33301 5.66683V6.3335C9.33301 6.51759 9.48225 6.66683 9.66634 6.66683H10.333C10.5171 6.66683 10.6663 6.51759 10.6663 6.3335V5.66683C10.6663 5.48273 10.5171 5.3335 10.333 5.3335H9.66634ZM11.9997 5.66683C11.9997 5.48273 12.1489 5.3335 12.333 5.3335H12.9997C13.1838 5.3335 13.333 5.48273 13.333 5.66683V6.3335C13.333 6.51759 13.1838 6.66683 12.9997 6.66683H12.333C12.1489 6.66683 11.9997 6.51759 11.9997 6.3335V5.66683ZM14.9997 5.3335C14.8156 5.3335 14.6663 5.48273 14.6663 5.66683V6.3335C14.6663 6.51759 14.8156 6.66683 14.9997 6.66683H15.6663C15.8504 6.66683 15.9997 6.51759 15.9997 6.3335V5.66683C15.9997 5.48273 15.8504 5.3335 15.6663 5.3335H14.9997ZM17.333 5.66683C17.333 5.48273 17.4822 5.3335 17.6663 5.3335H18.333C18.5171 5.3335 18.6663 5.48273 18.6663 5.66683V6.3335C18.6663 6.51759 18.5171 6.66683 18.333 6.66683H17.6663C17.4822 6.66683 17.333 6.51759 17.333 6.3335V5.66683ZM20.333 5.3335C20.1489 5.3335 19.9997 5.48273 19.9997 5.66683V6.3335C19.9997 6.51759 20.1489 6.66683 20.333 6.66683H20.9997C21.1838 6.66683 21.333 6.51759 21.333 6.3335V5.66683C21.333 5.48273 21.1838 5.3335 20.9997 5.3335H20.333ZM22.6663 5.66683C22.6663 5.48273 22.8156 5.3335 22.9997 5.3335H23.6663C23.8504 5.3335 23.9997 5.48273 23.9997 5.66683V6.3335C23.9997 6.51759 23.8504 6.66683 23.6663 6.66683H22.9997C22.8156 6.66683 22.6663 6.51759 22.6663 6.3335V5.66683ZM25.6663 5.3335C25.4822 5.3335 25.333 5.48273 25.333 5.66683V6.3335C25.333 6.51759 25.4822 6.66683 25.6663 6.66683H26.333C26.5171 6.66683 26.6663 6.51759 26.6663 6.3335V5.66683C26.6663 5.48273 26.5171 5.3335 26.333 5.3335H25.6663ZM1.33301 13.6668C1.33301 13.4827 1.48225 13.3335 1.66634 13.3335H2.33301C2.5171 13.3335 2.66634 13.4827 2.66634 13.6668V14.3335C2.66634 14.5176 2.5171 14.6668 2.33301 14.6668H1.66634C1.48225 14.6668 1.33301 14.5176 1.33301 14.3335V13.6668ZM4.33301 13.3335C4.14891 13.3335 3.99967 13.4827 3.99967 13.6668V14.3335C3.99967 14.5176 4.14891 14.6668 4.33301 14.6668H4.99967C5.18377 14.6668 5.33301 14.5176 5.33301 14.3335V13.6668C5.33301 13.4827 5.18377 13.3335 4.99967 13.3335H4.33301ZM6.66634 13.6668C6.66634 13.4827 6.81558 13.3335 6.99967 13.3335H7.66634C7.85044 13.3335 7.99967 13.4827 7.99967 13.6668V14.3335C7.99967 14.5176 7.85044 14.6668 7.66634 14.6668H6.99967C6.81558 14.6668 6.66634 14.5176 6.66634 14.3335V13.6668ZM9.66634 13.3335C9.48225 13.3335 9.33301 13.4827 9.33301 13.6668V14.3335C9.33301 14.5176 9.48225 14.6668 9.66634 14.6668H10.333C10.5171 14.6668 10.6663 14.5176 10.6663 14.3335V13.6668C10.6663 13.4827 10.5171 13.3335 10.333 13.3335H9.66634ZM11.9997 13.6668C11.9997 13.4827 12.1489 13.3335 12.333 13.3335H12.9997C13.1838 13.3335 13.333 13.4827 13.333 13.6668V14.3335C13.333 14.5176 13.1838 14.6668 12.9997 14.6668H12.333C12.1489 14.6668 11.9997 14.5176 11.9997 14.3335V13.6668ZM14.9997 13.3335C14.8156 13.3335 14.6663 13.4827 14.6663 13.6668V14.3335C14.6663 14.5176 14.8156 14.6668 14.9997 14.6668H15.6663C15.8504 14.6668 15.9997 14.5176 15.9997 14.3335V13.6668C15.9997 13.4827 15.8504 13.3335 15.6663 13.3335H14.9997ZM17.333 13.6668C17.333 13.4827 17.4822 13.3335 17.6663 13.3335H18.333C18.5171 13.3335 18.6663 13.4827 18.6663 13.6668V14.3335C18.6663 14.5176 18.5171 14.6668 18.333 14.6668H17.6663C17.4822 14.6668 17.333 14.5176 17.333 14.3335V13.6668ZM20.333 13.3335C20.1489 13.3335 19.9997 13.4827 19.9997 13.6668V14.3335C19.9997 14.5176 20.1489 14.6668 20.333 14.6668H20.9997C21.1838 14.6668 21.333 14.5176 21.333 14.3335V13.6668C21.333 13.4827 21.1838 13.3335 20.9997 13.3335H20.333ZM22.6663 13.6668C22.6663 13.4827 22.8156 13.3335 22.9997 13.3335H23.6663C23.8504 13.3335 23.9997 13.4827 23.9997 13.6668V14.3335C23.9997 14.5176 23.8504 14.6668 23.6663 14.6668H22.9997C22.8156 14.6668 22.6663 14.5176 22.6663 14.3335V13.6668ZM25.6663 13.3335C25.4822 13.3335 25.333 13.4827 25.333 13.6668V14.3335C25.333 14.5176 25.4822 14.6668 25.6663 14.6668H26.333C26.5171 14.6668 26.6663 14.5176 26.6663 14.3335V13.6668C26.6663 13.4827 26.5171 13.3335 26.333 13.3335H25.6663Z" fill="white" fill-opacity="0.5"/>
<mask id="path-6-inside-1_6748_104254" fill="white">
<path fill-rule="evenodd" clip-rule="evenodd" d="M12.6535 8.521C12.252 8.88679 12 9.41389 12 9.99985C12 11.1044 12.8954 11.9999 14 11.9999C15.1046 11.9999 16 11.1044 16 9.99985C16 9.42495 15.7574 8.90671 15.3691 8.54188"/>
</mask>
<path d="M12.2045 8.02818C11.6702 8.51498 11.3333 9.21855 11.3333 9.99985H12.6667C12.6667 9.60924 12.8338 9.2586 13.1025 9.01382L12.2045 8.02818ZM11.3333 9.99985C11.3333 11.4726 12.5272 12.6665 14 12.6665V11.3332C13.2636 11.3332 12.6667 10.7362 12.6667 9.99985H11.3333ZM14 12.6665C15.4728 12.6665 16.6667 11.4726 16.6667 9.99985H15.3333C15.3333 10.7362 14.7364 11.3332 14 11.3332V12.6665ZM16.6667 9.99985C16.6667 9.23336 16.3424 8.54155 15.8255 8.05598L14.9126 9.02778C15.1724 9.27186 15.3333 9.61654 15.3333 9.99985H16.6667Z" fill="#D80915" mask="url(#path-6-inside-1_6748_104254)"/>
<rect x="13.333" y="9.3335" width="1.33333" height="2.66667" rx="0.666667" fill="#D80915"/>
</g>
</svg>
