<svg width="28" height="20" viewBox="0 0 28 20" fill="none" xmlns="http://www.w3.org/2000/svg">
<rect x="0.25" y="0.25" width="27.5" height="19.5" rx="1.75" fill="white" stroke="#F5F5F5" stroke-width="0.5"/>
<mask id="mask0_6748_104312" style="mask-type:luminance" maskUnits="userSpaceOnUse" x="0" y="0" width="28" height="20">
<rect x="0.25" y="0.25" width="27.5" height="19.5" rx="1.75" fill="white" stroke="white" stroke-width="0.5"/>
</mask>
<g mask="url(#mask0_6748_104312)">
<path fill-rule="evenodd" clip-rule="evenodd" d="M0 20.0002H28V13.3335H0V20.0002Z" fill="#199E56"/>
<path fill-rule="evenodd" clip-rule="evenodd" d="M0 6.66667H28V0H0V6.66667Z" fill="#262626"/>
<path fill-rule="evenodd" clip-rule="evenodd" d="M0 0L13.3333 10L0 20V0Z" fill="#E6223A"/>
<path fill-rule="evenodd" clip-rule="evenodd" d="M4.66699 11L3.79922 11.8019L3.88516 10.6235L2.71714 10.445L3.69206 9.77748L3.10333 8.75302L4.23311 9.09903L4.66699 8L5.10088 9.09903L6.23066 8.75302L5.64192 9.77748L6.61685 10.445L5.44882 10.6235L5.53476 11.8019L4.66699 11Z" fill="white"/>
</g>
</svg>
