<svg width="28" height="20" viewBox="0 0 28 20" fill="none" xmlns="http://www.w3.org/2000/svg">
<rect width="28" height="20" rx="2" fill="white"/>
<mask id="mask0_6748_104364" style="mask-type:luminance" maskUnits="userSpaceOnUse" x="0" y="0" width="28" height="20">
<rect width="28" height="20" rx="2" fill="white"/>
</mask>
<g mask="url(#mask0_6748_104364)">
<path fill-rule="evenodd" clip-rule="evenodd" d="M0 5.33333H28V0H0V5.33333Z" fill="#262626"/>
<path fill-rule="evenodd" clip-rule="evenodd" d="M0 19.9998H28V14.6665H0V19.9998Z" fill="#018301"/>
<path fill-rule="evenodd" clip-rule="evenodd" d="M0 14.6668H28V5.3335H0V14.6668Z" fill="white"/>
<path fill-rule="evenodd" clip-rule="evenodd" d="M0 13.3332H28V6.6665H0V13.3332Z" fill="#DC0808"/>
<path fill-rule="evenodd" clip-rule="evenodd" d="M14.0003 16.6668C15.3337 16.6668 17.3337 14.0503 17.3337 10.0002C17.3337 5.95007 15.3337 3.3335 14.0003 3.3335C12.667 3.3335 10.667 5.95007 10.667 10.0002C10.667 14.0503 12.667 16.6668 14.0003 16.6668Z" fill="#BC0000"/>
<mask id="mask1_6748_104364" style="mask-type:luminance" maskUnits="userSpaceOnUse" x="10" y="3" width="8" height="14">
<path fill-rule="evenodd" clip-rule="evenodd" d="M14.0003 16.6668C15.3337 16.6668 17.3337 14.0503 17.3337 10.0002C17.3337 5.95007 15.3337 3.3335 14.0003 3.3335C12.667 3.3335 10.667 5.95007 10.667 10.0002C10.667 14.0503 12.667 16.6668 14.0003 16.6668Z" fill="white"/>
</mask>
<g mask="url(#mask1_6748_104364)">
<path fill-rule="evenodd" clip-rule="evenodd" d="M8.66732 17.3337C10.5083 17.3337 12.0007 14.0504 12.0007 10.0003C12.0007 5.95024 10.5083 2.66699 8.66732 2.66699C6.82637 2.66699 5.33398 5.95024 5.33398 10.0003C5.33398 14.0504 6.82637 17.3337 8.66732 17.3337Z" fill="#262626"/>
<path fill-rule="evenodd" clip-rule="evenodd" d="M19.3333 17.3337C21.1743 17.3337 22.6667 14.0504 22.6667 10.0003C22.6667 5.95024 21.1743 2.66699 19.3333 2.66699C17.4924 2.66699 16 5.95024 16 10.0003C16 14.0504 17.4924 17.3337 19.3333 17.3337Z" fill="#262626"/>
<g filter="url(#filter0_d_6748_104364)">
<path fill-rule="evenodd" clip-rule="evenodd" d="M14.0007 8.00033C14.3688 8.00033 14.6673 6.80642 14.6673 5.33366C14.6673 3.8609 14.3688 2.66699 14.0007 2.66699C13.6325 2.66699 13.334 3.8609 13.334 5.33366C13.334 6.80642 13.6325 8.00033 14.0007 8.00033ZM14.0007 12.0003C14.3688 12.0003 14.6673 11.1049 14.6673 10.0003C14.6673 8.89576 14.3688 8.00033 14.0007 8.00033C13.6325 8.00033 13.334 8.89576 13.334 10.0003C13.334 11.1049 13.6325 12.0003 14.0007 12.0003ZM14.0007 12.0003C13.6325 12.0003 13.334 13.1942 13.334 14.667C13.334 16.1398 13.6325 17.3337 14.0007 17.3337C14.3688 17.3337 14.6673 16.1398 14.6673 14.667C14.6673 13.1942 14.3688 12.0003 14.0007 12.0003Z" fill="url(#paint0_linear_6748_104364)"/>
</g>
</g>
</g>
<defs>
<filter id="filter0_d_6748_104364" x="13.334" y="2.66699" width="1.33301" height="15.6665" filterUnits="userSpaceOnUse" color-interpolation-filters="sRGB">
<feFlood flood-opacity="0" result="BackgroundImageFix"/>
<feColorMatrix in="SourceAlpha" type="matrix" values="0 0 0 0 0 0 0 0 0 0 0 0 0 0 0 0 0 0 127 0" result="hardAlpha"/>
<feOffset dy="1"/>
<feColorMatrix type="matrix" values="0 0 0 0 0 0 0 0 0 0 0 0 0 0 0 0 0 0 0.06 0"/>
<feBlend mode="normal" in2="BackgroundImageFix" result="effect1_dropShadow_6748_104364"/>
<feBlend mode="normal" in="SourceGraphic" in2="effect1_dropShadow_6748_104364" result="shape"/>
</filter>
<linearGradient id="paint0_linear_6748_104364" x1="13.334" y1="2.66699" x2="13.334" y2="17.3337" gradientUnits="userSpaceOnUse">
<stop stop-color="white"/>
<stop offset="1" stop-color="#F0F0F0"/>
</linearGradient>
</defs>
</svg>
