<svg width="28" height="20" viewBox="0 0 28 20" fill="none" xmlns="http://www.w3.org/2000/svg">
<rect width="28" height="20" rx="2" fill="white"/>
<mask id="mask0_6748_104380" style="mask-type:luminance" maskUnits="userSpaceOnUse" x="0" y="0" width="28" height="20">
<rect width="28" height="20" rx="2" fill="white"/>
</mask>
<g mask="url(#mask0_6748_104380)">
<rect width="28" height="20" fill="#F22A46"/>
<path fill-rule="evenodd" clip-rule="evenodd" d="M14.0003 13.3332C15.8413 13.3332 17.3337 11.8408 17.3337 9.99984C17.3337 8.15889 15.8413 6.6665 14.0003 6.6665C12.1594 6.6665 10.667 8.15889 10.667 9.99984C10.667 11.8408 12.1594 13.3332 14.0003 13.3332Z" fill="#FFF04D"/>
<path fill-rule="evenodd" clip-rule="evenodd" d="M12.3685 17.1495L14.0003 14.7137L15.6321 17.1495L16.0455 14.2469L18.5726 15.7335L17.6856 12.9389L20.6074 13.1819L18.5958 11.0489L21.3337 10.0001L18.5958 8.95118L20.6074 6.81824L17.6856 7.06117L18.5726 4.26663L16.0455 5.75324L15.6321 2.85059L14.0003 5.28644L12.3685 2.85059L11.9552 5.75324L9.42807 4.26663L10.3151 7.06117L7.39322 6.81824L9.40489 8.95118L6.66699 10.0001L9.40489 11.0489L7.39322 13.1819L10.3151 12.9389L9.42807 15.7335L11.9552 14.2469L12.3685 17.1495ZM18.667 10.0001C18.667 12.5774 16.5777 14.6667 14.0003 14.6667C11.423 14.6667 9.33366 12.5774 9.33366 10.0001C9.33366 7.42273 11.423 5.33339 14.0003 5.33339C16.5777 5.33339 18.667 7.42273 18.667 10.0001Z" fill="#FFF04D"/>
</g>
</svg>
