<svg width="28" height="20" viewBox="0 0 28 20" fill="none" xmlns="http://www.w3.org/2000/svg">
<rect x="0.25" y="0.25" width="27.5" height="19.5" rx="1.75" fill="white" stroke="#F5F5F5" stroke-width="0.5"/>
<mask id="mask0_6748_103816" style="mask-type:luminance" maskUnits="userSpaceOnUse" x="0" y="0" width="28" height="20">
<rect x="0.25" y="0.25" width="27.5" height="19.5" rx="1.75" fill="white" stroke="white" stroke-width="0.5"/>
</mask>
<g mask="url(#mask0_6748_103816)">
<path fill-rule="evenodd" clip-rule="evenodd" d="M0 5.33333H28V0H0V5.33333Z" fill="#FFCB49"/>
<path fill-rule="evenodd" clip-rule="evenodd" d="M0 14.6668H28V9.3335H0V14.6668Z" fill="#DC1D34"/>
<path fill-rule="evenodd" clip-rule="evenodd" d="M0 19.9998H28V14.6665H0V19.9998Z" fill="#4985D4"/>
<path fill-rule="evenodd" clip-rule="evenodd" d="M0 20L13.3333 10L0 0V20Z" fill="#4BA343"/>
<path fill-rule="evenodd" clip-rule="evenodd" d="M5.33301 14C5.67831 14 6.01339 13.9562 6.33301 13.874C4.60778 13.4299 3.33301 11.8638 3.33301 10C3.33301 8.13616 4.60778 6.57006 6.33301 6.12602C6.01339 6.04375 5.67831 6 5.33301 6C3.12387 6 1.33301 7.79086 1.33301 10C1.33301 12.2091 3.12387 14 5.33301 14ZM7.99967 7.33333C7.99967 7.70152 7.7012 8 7.33301 8C6.96482 8 6.66634 7.70152 6.66634 7.33333C6.66634 6.96514 6.96482 6.66667 7.33301 6.66667C7.7012 6.66667 7.99967 6.96514 7.99967 7.33333ZM7.33301 10.6667C7.7012 10.6667 7.99967 10.3682 7.99967 10C7.99967 9.63181 7.7012 9.33333 7.33301 9.33333C6.96482 9.33333 6.66634 9.63181 6.66634 10C6.66634 10.3682 6.96482 10.6667 7.33301 10.6667ZM7.99967 12.6667C7.99967 13.0349 7.7012 13.3333 7.33301 13.3333C6.96482 13.3333 6.66634 13.0349 6.66634 12.6667C6.66634 12.2985 6.96482 12 7.33301 12C7.7012 12 7.99967 12.2985 7.99967 12.6667Z" fill="white"/>
</g>
</svg>
