<svg width="28" height="20" viewBox="0 0 28 20" fill="none" xmlns="http://www.w3.org/2000/svg">
<rect width="28" height="20" rx="2" fill="white"/>
<mask id="mask0_6748_104431" style="mask-type:luminance" maskUnits="userSpaceOnUse" x="0" y="0" width="28" height="20">
<rect width="28" height="20" rx="2" fill="white"/>
</mask>
<g mask="url(#mask0_6748_104431)">
<rect width="28" height="20" fill="#07319C"/>
<path fill-rule="evenodd" clip-rule="evenodd" d="M20.667 6.66667C21.7716 6.66667 22.667 6.06971 22.667 5.33333C22.667 4.59695 21.7716 4 20.667 4C19.5624 4 18.667 4.59695 18.667 5.33333C18.667 6.06971 19.5624 6.66667 20.667 6.66667Z" fill="#FAD051"/>
<path fill-rule="evenodd" clip-rule="evenodd" d="M17.333 10.0002C17.333 8.00016 17.333 5.3335 17.333 5.3335H23.9997C23.9997 5.3335 23.9997 8.00016 23.9997 10.0002C23.9997 13.3335 20.6663 14.6668 20.6663 14.6668C20.6663 14.6668 17.333 13.3335 17.333 10.0002Z" fill="url(#paint0_linear_6748_104431)"/>
<mask id="mask1_6748_104431" style="mask-type:luminance" maskUnits="userSpaceOnUse" x="17" y="5" width="7" height="10">
<path fill-rule="evenodd" clip-rule="evenodd" d="M17.333 10.0002C17.333 8.00016 17.333 5.3335 17.333 5.3335H23.9997C23.9997 5.3335 23.9997 8.00016 23.9997 10.0002C23.9997 13.3335 20.6663 14.6668 20.6663 14.6668C20.6663 14.6668 17.333 13.3335 17.333 10.0002Z" fill="white"/>
</mask>
<g mask="url(#mask1_6748_104431)">
<path fill-rule="evenodd" clip-rule="evenodd" d="M17.333 5.3335H23.9997V6.66683H21.333H19.9997H17.333V5.3335Z" fill="#CF142C"/>
<path fill-rule="evenodd" clip-rule="evenodd" d="M23.9997 8H17.333V9.33333H19.9997H21.333H23.9997V8ZM17.333 10.6667H23.9997V12H21.333H19.9997H17.333V10.6667ZM17.333 13.3333H23.9997V14.6667H21.333H19.9997H17.333V13.3333Z" fill="#125FBA"/>
</g>
<path d="M0 -0.333333H-0.901086L-0.21693 0.253086L4.33333 4.15331V5.16179L-0.193746 8.39542L-0.333333 8.49513V8.66667V9.33333V9.93475L0.176666 9.616L5.42893 6.33333H6.55984L11.0821 9.56351C11.176 9.6306 11.2886 9.66667 11.404 9.66667C11.9182 9.66667 12.1548 9.02698 11.7644 8.69237L7.66667 5.18002V4.17154L12.0542 1.03762C12.2294 0.912475 12.3333 0.710428 12.3333 0.495127V0V-0.601416L11.8233 -0.282666L6.57107 3H5.44016L0.860413 -0.271244L0.773488 -0.333333H0.666667H0Z" fill="#DB1E36" stroke="white" stroke-width="0.666667"/>
<path fill-rule="evenodd" clip-rule="evenodd" d="M0 3.33333V6H4.66667V9.33333C4.66667 9.70152 4.96514 10 5.33333 10H6.66667C7.03486 10 7.33333 9.70152 7.33333 9.33333V6H12C12.3682 6 12.6667 5.70152 12.6667 5.33333V4C12.6667 3.63181 12.3682 3.33333 12 3.33333H7.33333V0H4.66667V3.33333H0Z" fill="white"/>
<path fill-rule="evenodd" clip-rule="evenodd" d="M0 4H5.33333V3.33333V0H6.66667V3.33333V4H12V5.33333H6.66667V6V9.33333H5.33333V6V5.33333H0V4Z" fill="#DB1E36"/>
</g>
<defs>
<linearGradient id="paint0_linear_6748_104431" x1="17.333" y1="5.3335" x2="17.333" y2="14.6668" gradientUnits="userSpaceOnUse">
<stop stop-color="white"/>
<stop offset="1" stop-color="#F0F0F0"/>
</linearGradient>
</defs>
</svg>
