<svg width="28" height="20" viewBox="0 0 28 20" fill="none" xmlns="http://www.w3.org/2000/svg">
<rect width="28" height="20" rx="2" fill="white"/>
<mask id="mask0_6748_104342" style="mask-type:luminance" maskUnits="userSpaceOnUse" x="0" y="0" width="28" height="20">
<rect width="28" height="20" rx="2" fill="white"/>
</mask>
<g mask="url(#mask0_6748_104342)">
<rect width="28" height="20" fill="#30C6E0"/>
<path fill-rule="evenodd" clip-rule="evenodd" d="M14 14C16.2091 14 18 12.2091 18 10C18 7.79086 16.2091 6 14 6C11.7909 6 10 7.79086 10 10C10 12.2091 11.7909 14 14 14Z" fill="#FFCD4B"/>
<path fill-rule="evenodd" clip-rule="evenodd" d="M12.3685 17.1495L14.0003 14.7137L15.6321 17.1495L16.0455 14.2469L18.5726 15.7335L17.6856 12.9389L20.6074 13.1819L18.5958 11.0489L21.3337 10.0001L18.5958 8.95118L20.6074 6.81824L17.6856 7.06117L18.5726 4.26663L16.0455 5.75324L15.6321 2.85059L14.0003 5.28644L12.3685 2.85059L11.9552 5.75324L9.42807 4.26663L10.3151 7.06117L7.39322 6.81824L9.40489 8.95118L6.66699 10.0001L9.40489 11.0489L7.39322 13.1819L10.3151 12.9389L9.42807 15.7335L11.9552 14.2469L12.3685 17.1495ZM18.667 10.0001C18.667 12.5774 16.5777 14.6667 14.0003 14.6667C11.423 14.6667 9.33366 12.5774 9.33366 10.0001C9.33366 7.42273 11.423 5.33339 14.0003 5.33339C16.5777 5.33339 18.667 7.42273 18.667 10.0001Z" fill="#FFCD4B"/>
<path fill-rule="evenodd" clip-rule="evenodd" d="M1.33301 1.66683C1.33301 1.48273 1.48225 1.3335 1.66634 1.3335H2.33301C2.5171 1.3335 2.66634 1.48273 2.66634 1.66683V2.3335C2.66634 2.51759 2.5171 2.66683 2.33301 2.66683H1.66634C1.48225 2.66683 1.33301 2.51759 1.33301 2.3335V1.66683ZM1.33301 4.3335C1.33301 4.1494 1.48225 4.00016 1.66634 4.00016H2.33301C2.5171 4.00016 2.66634 4.1494 2.66634 4.3335V5.00016C2.66634 5.18426 2.5171 5.3335 2.33301 5.3335H1.66634C1.48225 5.3335 1.33301 5.18426 1.33301 5.00016V4.3335ZM1.66634 6.66683C1.48225 6.66683 1.33301 6.81607 1.33301 7.00016V7.66683C1.33301 7.85092 1.48225 8.00016 1.66634 8.00016H2.33301C2.5171 8.00016 2.66634 7.85092 2.66634 7.66683V7.00016C2.66634 6.81607 2.5171 6.66683 2.33301 6.66683H1.66634ZM1.33301 9.66683C1.33301 9.48273 1.48225 9.3335 1.66634 9.3335H2.33301C2.5171 9.3335 2.66634 9.48273 2.66634 9.66683V10.3335C2.66634 10.5176 2.5171 10.6668 2.33301 10.6668H1.66634C1.48225 10.6668 1.33301 10.5176 1.33301 10.3335V9.66683ZM1.66634 12.0002C1.48225 12.0002 1.33301 12.1494 1.33301 12.3335V13.0002C1.33301 13.1843 1.48225 13.3335 1.66634 13.3335H2.33301C2.5171 13.3335 2.66634 13.1843 2.66634 13.0002V12.3335C2.66634 12.1494 2.5171 12.0002 2.33301 12.0002H1.66634ZM1.33301 15.0002C1.33301 14.8161 1.48225 14.6668 1.66634 14.6668H2.33301C2.5171 14.6668 2.66634 14.8161 2.66634 15.0002V15.6668C2.66634 15.8509 2.5171 16.0002 2.33301 16.0002H1.66634C1.48225 16.0002 1.33301 15.8509 1.33301 15.6668V15.0002ZM1.66634 17.3335C1.48225 17.3335 1.33301 17.4827 1.33301 17.6668V18.3335C1.33301 18.5176 1.48225 18.6668 1.66634 18.6668H2.33301C2.5171 18.6668 2.66634 18.5176 2.66634 18.3335V17.6668C2.66634 17.4827 2.5171 17.3335 2.33301 17.3335H1.66634ZM2.66634 16.3335C2.66634 16.1494 2.81558 16.0002 2.99967 16.0002H3.66634C3.85044 16.0002 3.99967 16.1494 3.99967 16.3335V17.0002C3.99967 17.1843 3.85044 17.3335 3.66634 17.3335H2.99967C2.81558 17.3335 2.66634 17.1843 2.66634 17.0002V16.3335ZM2.99967 13.3335C2.81558 13.3335 2.66634 13.4827 2.66634 13.6668V14.3335C2.66634 14.5176 2.81558 14.6668 2.99967 14.6668H3.66634C3.85044 14.6668 3.99967 14.5176 3.99967 14.3335V13.6668C3.99967 13.4827 3.85044 13.3335 3.66634 13.3335H2.99967ZM2.66634 11.0002C2.66634 10.8161 2.81558 10.6668 2.99967 10.6668H3.66634C3.85044 10.6668 3.99967 10.8161 3.99967 11.0002V11.6668C3.99967 11.8509 3.85044 12.0002 3.66634 12.0002H2.99967C2.81558 12.0002 2.66634 11.8509 2.66634 11.6668V11.0002ZM2.99967 8.00016C2.81558 8.00016 2.66634 8.1494 2.66634 8.3335V9.00016C2.66634 9.18426 2.81558 9.3335 2.99967 9.3335H3.66634C3.85044 9.3335 3.99967 9.18426 3.99967 9.00016V8.3335C3.99967 8.1494 3.85044 8.00016 3.66634 8.00016H2.99967ZM2.66634 5.66683C2.66634 5.48273 2.81558 5.3335 2.99967 5.3335H3.66634C3.85044 5.3335 3.99967 5.48273 3.99967 5.66683V6.3335C3.99967 6.51759 3.85044 6.66683 3.66634 6.66683H2.99967C2.81558 6.66683 2.66634 6.51759 2.66634 6.3335V5.66683ZM2.99967 2.66683C2.81558 2.66683 2.66634 2.81607 2.66634 3.00016V3.66683C2.66634 3.85092 2.81558 4.00016 2.99967 4.00016H3.66634C3.85044 4.00016 3.99967 3.85092 3.99967 3.66683V3.00016C3.99967 2.81607 3.85044 2.66683 3.66634 2.66683H2.99967Z" fill="#FFCD4B"/>
</g>
</svg>
