<svg width="28" height="20" viewBox="0 0 28 20" fill="none" xmlns="http://www.w3.org/2000/svg">
<rect x="0.25" y="0.25" width="27.5" height="19.5" rx="1.75" fill="white" stroke="#F5F5F5" stroke-width="0.5"/>
<mask id="mask0_6748_104492" style="mask-type:luminance" maskUnits="userSpaceOnUse" x="0" y="0" width="28" height="20">
<rect x="0.25" y="0.25" width="27.5" height="19.5" rx="1.75" fill="white" stroke="white" stroke-width="0.5"/>
</mask>
<g mask="url(#mask0_6748_104492)">
<path fill-rule="evenodd" clip-rule="evenodd" d="M0 6.66667H28V0H0V6.66667Z" fill="#0C33B8"/>
<path fill-rule="evenodd" clip-rule="evenodd" d="M0 20.0002H28V13.3335H0V20.0002Z" fill="#1DB158"/>
<path fill-rule="evenodd" clip-rule="evenodd" d="M13.3336 9.99992L13.3678 9.89729C13.5704 9.28949 14.4301 9.28949 14.6327 9.89729L14.6669 9.99992L15.8487 11.7726C15.9368 11.9048 15.9174 12.0791 15.7856 12.1677C15.4919 12.3652 14.8968 12.6666 14.0003 12.6666C13.1038 12.6666 12.5087 12.3652 12.2149 12.1677C12.0831 12.0791 12.0637 11.9048 12.1518 11.7726L13.3336 9.99992Z" fill="#262626"/>
<path d="M15.0003 8.66683C15.0003 9.21911 14.5526 9.66683 14.0003 9.66683C13.448 9.66683 13.0003 9.21911 13.0003 8.66683C13.0003 8.11454 13.448 7.66683 14.0003 7.66683C14.5526 7.66683 15.0003 8.11454 15.0003 8.66683Z" stroke="#262626" stroke-width="0.666667"/>
</g>
</svg>
