<svg width="28" height="20" viewBox="0 0 28 20" fill="none" xmlns="http://www.w3.org/2000/svg">
<rect width="28" height="20" rx="2" fill="white"/>
<mask id="mask0_6748_104658" style="mask-type:luminance" maskUnits="userSpaceOnUse" x="0" y="0" width="28" height="20">
<rect width="28" height="20" rx="2" fill="white"/>
</mask>
<g mask="url(#mask0_6748_104658)">
<rect width="28" height="20" fill="#E6BE53"/>
<path fill-rule="evenodd" clip-rule="evenodd" d="M1.33301 17.6668C1.33301 18.2191 1.78072 18.6668 2.33301 18.6668H25.6663C26.2186 18.6668 26.6663 18.2191 26.6663 17.6668V2.3335C26.6663 1.78121 26.2186 1.3335 25.6663 1.3335H2.33301C1.78072 1.3335 1.33301 1.78121 1.33301 2.3335V17.6668Z" fill="#E01826"/>
<path fill-rule="evenodd" clip-rule="evenodd" d="M13.023 3.65912C12.5529 3.81584 12.412 4.41255 12.7624 4.76298L13.1377 5.13831C13.2628 5.26333 13.4323 5.33357 13.6092 5.33357H14.3902C14.567 5.33357 14.7366 5.26333 14.8616 5.1383L15.2369 4.76298C15.5874 4.41255 15.4465 3.81584 14.9763 3.65912L14.2105 3.40384C14.0736 3.35823 13.9257 3.35823 13.7889 3.40384L13.023 3.65912ZM14.4711 6.86216C14.2107 7.12251 13.7886 7.12251 13.5283 6.86216L13.333 6.6669L12.3394 5.67334C12.1365 5.47043 11.8266 5.42013 11.5699 5.54846L11.4936 5.58658C11.0866 5.79008 10.9986 6.33251 11.3204 6.65427L11.333 6.6669L12.3266 7.66046C12.5295 7.86337 12.5798 8.17335 12.4515 8.43001L12.0376 9.25765C12.0127 9.30757 11.9997 9.36263 11.9997 9.41845C11.9997 9.68574 11.7184 9.85959 11.4793 9.74005L11.1564 9.5786C10.9153 9.45805 10.8632 9.13674 11.0538 8.94614C11.208 8.79192 11.208 8.54188 11.0538 8.38766L10.7428 8.07673C10.6922 8.02606 10.65 7.96756 10.618 7.90347L10.0324 6.73236C10.0106 6.68885 9.99372 6.64309 9.98193 6.5959L9.67271 5.35906C9.53657 4.81447 8.82943 4.67167 8.49262 5.12075L7.46634 6.48912C7.37979 6.60452 7.33301 6.74488 7.33301 6.88912V9.17619C7.33301 9.27969 7.3571 9.38176 7.40339 9.47433L7.95129 10.5701C7.98334 10.6342 8.02551 10.6927 8.07617 10.7434L9.25651 11.9237C9.30718 11.9744 9.36568 12.0166 9.42977 12.0486L10.6034 12.6354C10.6448 12.6561 10.6904 12.6669 10.7367 12.6669C11.0513 12.6669 11.1514 13.091 10.8701 13.2317L10.7155 13.309C10.683 13.3253 10.6532 13.3467 10.6275 13.3725L10.333 13.6669C10.1489 13.851 9.85044 13.851 9.66634 13.6669C9.48225 13.4828 9.18377 13.4828 8.99967 13.6669L8.94558 13.721C8.77882 13.8878 8.73748 14.1425 8.84295 14.3534L9.14875 14.965C9.26167 15.1909 9.49252 15.3336 9.74503 15.3336H10.509C10.6125 15.3336 10.7145 15.3095 10.8071 15.2632L11.8009 14.7663C11.9299 14.7018 12.0345 14.5972 12.0991 14.4681L12.4013 13.8636C12.5317 13.6029 12.8792 13.5465 13.0854 13.7526C13.2294 13.8966 13.2517 14.1222 13.1388 14.2916L12.3695 15.4455C12.1652 15.7519 12.248 16.1658 12.5544 16.37L13.6299 17.087C13.8538 17.2363 14.1455 17.2363 14.3695 17.087L15.445 16.37C15.7513 16.1658 15.8341 15.7519 15.6299 15.4455L14.8606 14.2916C14.7476 14.1222 14.77 13.8966 14.914 13.7526C15.1201 13.5465 15.4677 13.6029 15.598 13.8636L15.9003 14.4681C15.9648 14.5972 16.0694 14.7018 16.1984 14.7663L17.1922 15.2632C17.2848 15.3095 17.3869 15.3336 17.4904 15.3336H18.2543C18.5068 15.3336 18.7377 15.1909 18.8506 14.965L19.1564 14.3534C19.2619 14.1425 19.2205 13.8878 19.0538 13.721L18.9997 13.6669C18.8156 13.4828 18.5171 13.4828 18.333 13.6669C18.1489 13.851 17.8504 13.851 17.6663 13.6669L17.3719 13.3725C17.3461 13.3467 17.3164 13.3253 17.2838 13.309L17.1293 13.2317C16.8479 13.091 16.948 12.6669 17.2626 12.6669C17.3089 12.6669 17.3546 12.6561 17.396 12.6354L18.5696 12.0486C18.6337 12.0166 18.6922 11.9744 18.7428 11.9237L19.9232 10.7434C19.9738 10.6927 20.016 10.6342 20.0481 10.5701L20.596 9.47433C20.6422 9.38176 20.6663 9.27969 20.6663 9.17619V6.88912C20.6663 6.74488 20.6196 6.60452 20.533 6.48912L19.5067 5.12075C19.1699 4.67167 18.4628 4.81447 18.3266 5.35906L18.0174 6.5959C18.0056 6.64309 17.9887 6.68885 17.9669 6.73236L17.3814 7.90347C17.3493 7.96756 17.3072 8.02606 17.2565 8.07673L16.9456 8.38766C16.7914 8.54188 16.7914 8.79192 16.9456 8.94614C17.1362 9.13674 17.084 9.45805 16.8429 9.5786L16.52 9.74005C16.281 9.85959 15.9997 9.68574 15.9997 9.41845C15.9997 9.36263 15.9867 9.30757 15.9617 9.25765L15.5479 8.43001C15.4196 8.17335 15.4699 7.86337 15.6728 7.66046L16.6663 6.6669L16.679 6.65427C17.0007 6.33251 16.9127 5.79008 16.5057 5.58658L16.4295 5.54846C16.1728 5.42013 15.8628 5.47043 15.6599 5.67334L14.6663 6.6669L14.4711 6.86216Z" fill="#E6BE53"/>
<path fill-rule="evenodd" clip-rule="evenodd" d="M12.667 11.3335C12.667 11.5789 13.0804 11.6606 13.2 11.4463C13.4324 11.0297 13.7164 10.6668 14.0003 10.6668C14.2843 10.6668 14.5682 11.0297 14.8007 11.4463C14.9203 11.6606 15.3337 11.5789 15.3337 11.3335C15.3337 10.2289 14.7367 9.3335 14.0003 9.3335C13.2639 9.3335 12.667 10.2289 12.667 11.3335Z" fill="#215F90"/>
</g>
</svg>
