<svg width="28" height="20" viewBox="0 0 28 20" fill="none" xmlns="http://www.w3.org/2000/svg">
<rect x="0.25" y="0.25" width="27.5" height="19.5" rx="1.75" fill="white" stroke="#F5F5F5" stroke-width="0.5"/>
<mask id="mask0_6748_104650" style="mask-type:luminance" maskUnits="userSpaceOnUse" x="0" y="0" width="28" height="20">
<rect x="0.25" y="0.25" width="27.5" height="19.5" rx="1.75" fill="white" stroke="white" stroke-width="0.5"/>
</mask>
<g mask="url(#mask0_6748_104650)">
<path fill-rule="evenodd" clip-rule="evenodd" d="M14.667 20H28.0003V0H14.667V20Z" fill="#DE233C"/>
<mask id="path-4-outside-1_6748_104650" maskUnits="userSpaceOnUse" x="1.66699" y="1.6665" width="6" height="6" fill="black">
<rect fill="white" x="1.66699" y="1.6665" width="6" height="6"/>
<path fill-rule="evenodd" clip-rule="evenodd" d="M5.33366 2.6665H4.00033V3.99984H2.66699V5.33317H4.00033V6.6665H5.33366V5.33317H6.66699V3.99984H5.33366V2.6665Z"/>
</mask>
<path fill-rule="evenodd" clip-rule="evenodd" d="M5.33366 2.6665H4.00033V3.99984H2.66699V5.33317H4.00033V6.6665H5.33366V5.33317H6.66699V3.99984H5.33366V2.6665Z" fill="#CCCCCD"/>
<path d="M4.00033 2.6665V1.99984H3.33366V2.6665H4.00033ZM5.33366 2.6665H6.00033V1.99984H5.33366V2.6665ZM4.00033 3.99984V4.6665H4.66699V3.99984H4.00033ZM2.66699 3.99984V3.33317H2.00033V3.99984H2.66699ZM2.66699 5.33317H2.00033V5.99984H2.66699V5.33317ZM4.00033 5.33317H4.66699V4.6665H4.00033V5.33317ZM4.00033 6.6665H3.33366V7.33317H4.00033V6.6665ZM5.33366 6.6665V7.33317H6.00033V6.6665H5.33366ZM5.33366 5.33317V4.6665H4.66699V5.33317H5.33366ZM6.66699 5.33317V5.99984H7.33366V5.33317H6.66699ZM6.66699 3.99984H7.33366V3.33317H6.66699V3.99984ZM5.33366 3.99984H4.66699V4.6665H5.33366V3.99984ZM4.00033 3.33317H5.33366V1.99984H4.00033V3.33317ZM4.66699 3.99984V2.6665H3.33366V3.99984H4.66699ZM2.66699 4.6665H4.00033V3.33317H2.66699V4.6665ZM3.33366 5.33317V3.99984H2.00033V5.33317H3.33366ZM4.00033 4.6665H2.66699V5.99984H4.00033V4.6665ZM4.66699 6.6665V5.33317H3.33366V6.6665H4.66699ZM5.33366 5.99984H4.00033V7.33317H5.33366V5.99984ZM4.66699 5.33317V6.6665H6.00033V5.33317H4.66699ZM6.66699 4.6665H5.33366V5.99984H6.66699V4.6665ZM6.00033 3.99984V5.33317H7.33366V3.99984H6.00033ZM5.33366 4.6665H6.66699V3.33317H5.33366V4.6665ZM4.66699 2.6665V3.99984H6.00033V2.6665H4.66699Z" fill="#7B716A" fill-opacity="0.66" mask="url(#path-4-outside-1_6748_104650)"/>
<path fill-rule="evenodd" clip-rule="evenodd" d="M4.66667 5.33333C5.03486 5.33333 5.33333 5.03486 5.33333 4.66667C5.33333 4.29848 5.03486 4 4.66667 4C4.29848 4 4 4.29848 4 4.66667C4 5.03486 4.29848 5.33333 4.66667 5.33333Z" fill="#7B716A"/>
</g>
</svg>
