<svg width="28" height="20" viewBox="0 0 28 20" fill="none" xmlns="http://www.w3.org/2000/svg">
<rect x="0.25" y="0.25" width="27.5" height="19.5" rx="1.75" fill="white" stroke="#F5F5F5" stroke-width="0.5"/>
<mask id="mask0_6748_104609" style="mask-type:luminance" maskUnits="userSpaceOnUse" x="0" y="0" width="28" height="20">
<rect x="0.25" y="0.25" width="27.5" height="19.5" rx="1.75" fill="white" stroke="white" stroke-width="0.5"/>
</mask>
<g mask="url(#mask0_6748_104609)">
<rect x="18.667" width="9.33333" height="20" fill="#E3283E"/>
<path fill-rule="evenodd" clip-rule="evenodd" d="M0 20H9.33333V0H0V20Z" fill="#128A60"/>
<path d="M11.9997 9.3335C11.9997 8.96531 11.7012 8.66683 11.333 8.66683C10.9648 8.66683 10.6663 8.96531 10.6663 9.3335H11.9997ZM12.3287 12.2183C12.6472 12.4031 13.0551 12.2947 13.2399 11.9762C13.4247 11.6578 13.3163 11.2498 12.9979 11.065L12.3287 12.2183ZM15.0753 11.02C14.7652 11.2184 14.6745 11.6306 14.8729 11.9408C15.0713 12.251 15.4835 12.3416 15.7937 12.1433L15.0753 11.02ZM17.333 9.3335C17.333 8.96531 17.0345 8.66683 16.6663 8.66683C16.2982 8.66683 15.9997 8.96531 15.9997 9.3335H17.333ZM10.6663 9.3335C10.6663 10.5666 11.3362 11.6424 12.3287 12.2183L12.9979 11.065C12.3996 10.7179 11.9997 10.072 11.9997 9.3335H10.6663ZM15.7937 12.1433C16.7179 11.5521 17.333 10.5149 17.333 9.3335H15.9997C15.9997 10.0412 15.6326 10.6636 15.0753 11.02L15.7937 12.1433Z" fill="#8C9157"/>
<path fill-rule="evenodd" clip-rule="evenodd" d="M14.0003 10.6665C14.7367 10.6665 15.3337 9.77107 15.3337 8.6665C15.3337 7.56193 14.7367 6.6665 14.0003 6.6665C13.2639 6.6665 12.667 7.56193 12.667 8.6665C12.667 9.77107 13.2639 10.6665 14.0003 10.6665Z" fill="#C59262"/>
</g>
</svg>
