<svg width="28" height="20" viewBox="0 0 28 20" fill="none" xmlns="http://www.w3.org/2000/svg">
<rect x="0.25" y="0.25" width="27.5" height="19.5" rx="1.75" fill="white" stroke="#F5F5F5" stroke-width="0.5"/>
<mask id="mask0_6748_105423" style="mask-type:luminance" maskUnits="userSpaceOnUse" x="0" y="0" width="28" height="20">
<rect x="0.25" y="0.25" width="27.5" height="19.5" rx="1.75" fill="white" stroke="white" stroke-width="0.5"/>
</mask>
<g mask="url(#mask0_6748_105423)">
<path fill-rule="evenodd" clip-rule="evenodd" d="M0 5.33333H28V0H0V5.33333Z" fill="#D82332"/>
<path fill-rule="evenodd" clip-rule="evenodd" d="M0 19.9998H28V14.6665H0V19.9998Z" fill="#D82332"/>
<path fill-rule="evenodd" clip-rule="evenodd" d="M13.0676 10.7524L12.7832 11.0177C13.0403 11.0899 13.3971 11.0059 13.5391 10.7524H13.0676Z" fill="#064A89"/>
<path fill-rule="evenodd" clip-rule="evenodd" d="M10.7725 10.933C10.9649 11.1255 11.2838 11.103 11.4763 10.9812C11.6689 10.8593 11.8103 10.8515 11.9303 10.8643C11.943 10.9729 11.9714 11.1122 12.0201 11.2498H10.8782C10.8498 11.1793 10.7945 11.0149 10.7725 10.933Z" fill="#064A89"/>
<path fill-rule="evenodd" clip-rule="evenodd" d="M10.9844 11.4474C11.2085 11.3415 11.4376 11.4255 11.5368 11.5018C11.7198 11.643 12.0223 11.6047 12.1706 11.5246C12.2272 11.617 12.296 11.7078 12.379 11.7772H11.1572C11.1075 11.6971 11.0002 11.5002 10.9844 11.4474Z" fill="#064A89"/>
<path fill-rule="evenodd" clip-rule="evenodd" d="M16.2983 12.325C16.3519 12.2704 16.4245 12.1807 16.4719 12.1166C16.393 12.1069 16.3012 12.0498 16.2037 12.0011C16.0237 11.9112 15.8517 11.9112 15.6986 12.0171C15.4714 12.1742 15.1873 12.2127 14.9663 12.0556C14.7239 11.8831 14.4992 11.9209 14.3098 12.03C14.1204 12.1389 14.0005 12.1454 13.8868 12.1454C13.7732 12.1454 13.6533 12.1389 13.4639 12.03C13.2745 11.9209 13.0498 11.8831 12.8074 12.0556C12.5864 12.2127 12.3023 12.1742 12.0751 12.0171C11.922 11.9112 11.75 11.9112 11.57 12.0011C11.4723 12.0498 11.3807 12.1069 11.3018 12.1166C11.3492 12.1807 11.4218 12.2704 11.4754 12.325H16.2983Z" fill="#064A89"/>
<path fill-rule="evenodd" clip-rule="evenodd" d="M15.707 12.8612C15.7575 12.8292 15.8965 12.7234 15.9659 12.6688C15.8901 12.6849 15.7174 12.6286 15.6282 12.5822C15.3693 12.4474 15.1989 12.4603 15.0064 12.5629C14.8138 12.6656 14.5424 12.7201 14.3435 12.6111C14.1447 12.5021 14.0026 12.4731 13.8985 12.4731C13.7943 12.4731 13.6522 12.5021 13.4534 12.6111C13.2545 12.7201 12.9831 12.6656 12.7905 12.5629C12.598 12.4603 12.4277 12.4474 12.1687 12.5822C12.0795 12.6286 11.9068 12.6849 11.8311 12.6688C11.9005 12.7234 12.0394 12.8292 12.0899 12.8612H15.707Z" fill="#064A89"/>
<path fill-rule="evenodd" clip-rule="evenodd" d="M14.5687 11.7947C14.515 11.7658 14.4523 11.6986 14.395 11.6124C14.3035 11.4745 14.1583 11.3975 13.9405 11.3975C13.7228 11.3975 13.5776 11.4745 13.486 11.6124C13.4288 11.6986 13.366 11.7658 13.3125 11.7947H14.5687Z" fill="#064A89"/>
<path fill-rule="evenodd" clip-rule="evenodd" d="M14.2106 11.2998C14.1885 11.2613 14.1412 11.1394 14.1254 11.0752C14.0749 11.0913 13.9771 11.0977 13.9203 11.0977C13.8634 11.0977 13.7657 11.0913 13.7151 11.0752C13.6993 11.1394 13.652 11.2613 13.6299 11.2998H14.2106Z" fill="#064A89"/>
<path fill-rule="evenodd" clip-rule="evenodd" d="M14.7361 10.7524L15.0205 11.0177C14.7634 11.0899 14.4067 11.0059 14.2646 10.7524H14.7361Z" fill="#064A89"/>
<path fill-rule="evenodd" clip-rule="evenodd" d="M17.1002 10.933C16.9077 11.1255 16.5888 11.103 16.3963 10.9812C16.2038 10.8593 16.0623 10.8515 15.9423 10.8643C15.9295 10.9729 15.9012 11.1122 15.8525 11.2498H16.9944C17.0228 11.1793 17.078 11.0149 17.1002 10.933Z" fill="#064A89"/>
<path fill-rule="evenodd" clip-rule="evenodd" d="M16.9298 11.4474C16.7056 11.3415 16.4765 11.4255 16.3774 11.5018C16.1943 11.643 15.8919 11.6047 15.7435 11.5246C15.6869 11.617 15.6181 11.7078 15.5352 11.7772H16.757C16.8066 11.6971 16.914 11.5002 16.9298 11.4474Z" fill="#064A89"/>
<path fill-rule="evenodd" clip-rule="evenodd" d="M15.1593 13.0712C14.7766 13.2299 14.3577 13.3175 13.9188 13.3175C13.4794 13.3175 13.0608 13.23 12.6777 13.071C12.7597 13.0614 12.8684 13.0212 12.956 12.9716C13.0982 12.8914 13.3569 12.8754 13.4801 12.9556C13.6031 13.0358 13.7515 13.1159 13.9188 13.1159C14.0861 13.1159 14.2345 13.0358 14.3575 12.9556C14.4806 12.8754 14.7394 12.8914 14.8815 12.9716C14.9691 13.0212 15.0772 13.0616 15.1593 13.0712Z" fill="#064A89"/>
<path fill-rule="evenodd" clip-rule="evenodd" d="M14.6255 6.72676C13.9343 6.58246 13.3125 6.66579 13.3125 7.32654C13.3125 7.97439 13.3125 8.93654 13.3125 9.13547C13.3125 9.33429 13.3164 9.35945 13.5492 9.4145C14.0542 9.53396 14.1015 9.54601 14.6507 9.67418V7.81407C14.2215 7.7659 14.0574 7.52117 14.0574 7.23676C14.0574 6.96095 14.2467 6.78128 14.6255 6.72676Z" fill="#514537"/>
<path fill-rule="evenodd" clip-rule="evenodd" d="M12.8545 11.8282C12.4694 11.8282 12.0654 11.4882 12.0654 10.8404C12.0654 10.1924 12.0654 9.37779 12.0654 9.23026C12.0654 9.08435 12.0816 9.06381 12.0481 9.02983C12.0284 9.00983 12.0702 8.98016 12.0985 8.95123C12.1412 8.9079 12.1704 8.87188 12.1128 8.81328C12.0551 8.75478 12.0797 8.73951 12.116 8.70274C12.1523 8.66575 12.1665 8.62897 12.1318 8.5936C12.0971 8.55833 12.0891 8.54715 12.127 8.50865C12.1649 8.47016 12.1491 8.45414 12.1176 8.42199C12.0859 8.38994 12.071 8.36672 12.1112 8.32586C12.1507 8.28575 12.1538 8.2793 12.1996 8.2793C12.2454 8.2793 12.3448 8.2793 12.389 8.2793C12.4332 8.2793 12.434 8.29295 12.3968 8.33069C12.3487 8.37951 12.3345 8.39876 12.389 8.45414C12.4434 8.5094 12.4411 8.5279 12.4064 8.56317C12.3542 8.61607 12.3313 8.6522 12.3842 8.70596C12.4372 8.75962 12.4418 8.78371 12.4016 8.82457C12.3614 8.86543 12.3574 8.90155 12.4016 8.94639C12.4356 8.98091 12.4379 9.00102 12.4379 9.06188C12.4379 9.42919 12.4379 10.4298 12.4379 10.7056C12.4379 10.9814 12.6336 11.1482 13.006 11.1482C13.3785 11.1482 13.5048 10.9942 13.6121 10.8917C13.5427 11.3855 13.3407 11.8282 12.8545 11.8282Z" fill="#514537"/>
<path fill-rule="evenodd" clip-rule="evenodd" d="M13.9406 10.2546C13.9926 10.2705 14.0431 10.3475 14.0431 10.4309H14.1458C14.1458 10.3604 14.1157 10.2513 14.0613 10.1839C14.0605 10.1663 14.0581 10.1511 14.0542 10.1359C14.0921 10.0877 14.1473 10.0107 14.1458 9.93693C14.1447 9.89037 14.0905 9.89209 14.0842 9.92897C14.079 9.95929 14.059 10.006 14.0211 10.022C14.0211 9.96263 13.9879 9.89209 13.9406 9.89209C13.8933 9.89209 13.86 9.96263 13.86 10.022C13.8222 10.006 13.8022 9.95929 13.797 9.92897C13.7906 9.89209 13.7363 9.89037 13.7354 9.93693C13.7338 10.0107 13.789 10.0877 13.8269 10.1359C13.823 10.1511 13.8207 10.1663 13.8198 10.1839C13.7654 10.2513 13.7354 10.3604 13.7354 10.4309H13.838C13.838 10.3475 13.8885 10.2705 13.9406 10.2546Z" fill="#514537"/>
<path fill-rule="evenodd" clip-rule="evenodd" d="M13.4122 10.2546C13.4643 10.2705 13.5149 10.3475 13.5149 10.4309H13.6174C13.6174 10.3604 13.5875 10.2513 13.533 10.1839C13.5322 10.1663 13.5298 10.1511 13.5259 10.1359C13.5638 10.0877 13.619 10.0107 13.6174 9.93693C13.6165 9.89037 13.5622 9.89209 13.5558 9.92897C13.5507 9.95929 13.5306 10.006 13.4928 10.022C13.4928 9.96263 13.4597 9.89209 13.4122 9.89209C13.3649 9.89209 13.3318 9.96263 13.3318 10.022C13.2939 10.006 13.2738 9.95929 13.2687 9.92897C13.2623 9.89209 13.2081 9.89037 13.2071 9.93693C13.2055 10.0107 13.2607 10.0877 13.2986 10.1359C13.2947 10.1511 13.2924 10.1663 13.2915 10.1839C13.2371 10.2513 13.2071 10.3604 13.2071 10.4309H13.3097C13.3097 10.3475 13.3602 10.2705 13.4122 10.2546Z" fill="#514537"/>
<path fill-rule="evenodd" clip-rule="evenodd" d="M12.883 10.2546C12.935 10.2705 12.9855 10.3475 12.9855 10.4309H13.0881C13.0881 10.3604 13.0581 10.2513 13.0037 10.1839C13.0028 10.1663 13.0005 10.1511 12.9966 10.1359C13.0345 10.0877 13.0897 10.0107 13.0881 9.93693C13.0871 9.89037 13.0329 9.89209 13.0266 9.92897C13.0214 9.95929 13.0013 10.006 12.9634 10.022C12.9634 9.96263 12.9303 9.89209 12.883 9.89209C12.8355 9.89209 12.8024 9.96263 12.8024 10.022C12.7645 10.006 12.7445 9.95929 12.7394 9.92897C12.733 9.89209 12.6787 9.89037 12.6778 9.93693C12.6762 10.0107 12.7314 10.0877 12.7693 10.1359C12.7654 10.1511 12.763 10.1663 12.7622 10.1839C12.7077 10.2513 12.6778 10.3604 12.6778 10.4309H12.7803C12.7803 10.3475 12.8309 10.2705 12.883 10.2546Z" fill="#514537"/>
<path fill-rule="evenodd" clip-rule="evenodd" d="M14.4699 10.2546C14.4178 10.2705 14.3673 10.3475 14.3673 10.4309H14.2647C14.2647 10.3604 14.2946 10.2513 14.3491 10.1839C14.3499 10.1663 14.3523 10.1511 14.3563 10.1359C14.3183 10.0877 14.2631 10.0107 14.2647 9.93693C14.2657 9.89037 14.3199 9.89209 14.3263 9.92897C14.3315 9.95929 14.3516 10.006 14.3893 10.022C14.3893 9.96263 14.4226 9.89209 14.4699 9.89209C14.5173 9.89209 14.5504 9.96263 14.5504 10.022C14.5882 10.006 14.6083 9.95929 14.6135 9.92897C14.6198 9.89209 14.674 9.89037 14.6751 9.93693C14.6766 10.0107 14.6214 10.0877 14.5835 10.1359C14.5874 10.1511 14.5899 10.1663 14.5906 10.1839C14.6451 10.2513 14.6751 10.3604 14.6751 10.4309H14.5724C14.5724 10.3475 14.5219 10.2705 14.4699 10.2546Z" fill="#514537"/>
<path fill-rule="evenodd" clip-rule="evenodd" d="M14.9992 10.2546C14.9471 10.2705 14.8966 10.3475 14.8966 10.4309H14.794C14.794 10.3604 14.824 10.2513 14.8784 10.1839C14.8793 10.1663 14.8816 10.1511 14.8855 10.1359C14.8476 10.0877 14.7924 10.0107 14.794 9.93693C14.7949 9.89037 14.8492 9.89209 14.8556 9.92897C14.8608 9.95929 14.8808 10.006 14.9186 10.022C14.9186 9.96263 14.9519 9.89209 14.9992 9.89209C15.0466 9.89209 15.0797 9.96263 15.0797 10.022C15.1176 10.006 15.1376 9.95929 15.1428 9.92897C15.1491 9.89209 15.2033 9.89037 15.2043 9.93693C15.2059 10.0107 15.1507 10.0877 15.1128 10.1359C15.1167 10.1511 15.1191 10.1663 15.1199 10.1839C15.1744 10.2513 15.2043 10.3604 15.2043 10.4309H15.1018C15.1018 10.3475 15.0512 10.2705 14.9992 10.2546Z" fill="#514537"/>
<path fill-rule="evenodd" clip-rule="evenodd" d="M12.5713 10.5376H15.3489V10.6709H12.5713V10.5376Z" fill="#514537"/>
<path fill-rule="evenodd" clip-rule="evenodd" d="M15.0222 11.8282C15.4073 11.8282 15.8113 11.4882 15.8113 10.8404C15.8113 10.1924 15.8113 9.37779 15.8113 9.23026C15.8113 9.08435 15.7951 9.06381 15.8287 9.02983C15.8484 9.00983 15.8066 8.98016 15.7782 8.95123C15.7355 8.9079 15.7063 8.87188 15.7639 8.81328C15.8216 8.75478 15.797 8.73951 15.7608 8.70274C15.7244 8.66575 15.7103 8.62897 15.745 8.5936C15.7797 8.55833 15.7876 8.54715 15.7497 8.50865C15.7118 8.47016 15.7276 8.45414 15.7591 8.42199C15.7908 8.38994 15.8057 8.36672 15.7655 8.32586C15.726 8.28575 15.723 8.2793 15.6771 8.2793C15.6313 8.2793 15.532 8.2793 15.4877 8.2793C15.4436 8.2793 15.4427 8.29295 15.4799 8.33069C15.528 8.37951 15.5422 8.39876 15.4877 8.45414C15.4333 8.5094 15.4357 8.5279 15.4704 8.56317C15.5225 8.61607 15.5453 8.6522 15.4925 8.70596C15.4396 8.75962 15.4348 8.78371 15.4751 8.82457C15.5153 8.86543 15.5194 8.90155 15.4751 8.94639C15.4412 8.98091 15.4388 9.00102 15.4388 9.06188C15.4388 9.42919 15.4388 10.4298 15.4388 10.7056C15.4388 10.9814 15.2431 11.1482 14.8707 11.1482C14.4982 11.1482 14.3721 10.9942 14.2646 10.8917C14.3341 11.3855 14.5361 11.8282 15.0222 11.8282Z" fill="#514537"/>
<path fill-rule="evenodd" clip-rule="evenodd" d="M12.5713 9.67434C12.5713 9.67434 12.5714 9.57971 12.5714 9.4624L13.1266 9.67445L12.5713 9.67434Z" fill="#EEA339"/>
<path fill-rule="evenodd" clip-rule="evenodd" d="M11.9094 9.77249L10.667 9.60227C10.7031 9.33173 10.7713 9.06797 10.8695 8.81689L11.9094 9.23636V9.77249Z" fill="#EEA339"/>
<path fill-rule="evenodd" clip-rule="evenodd" d="M14.4766 7.69565L14.6974 6.77393C14.9558 6.83758 15.207 6.9335 15.4451 7.05995L14.7329 8.44532L14.7354 7.74973C14.6532 7.75016 14.527 7.73737 14.4766 7.69565Z" fill="#EEA339"/>
<path fill-rule="evenodd" clip-rule="evenodd" d="M11.9387 9.86273L10.6731 9.78467C10.6568 10.0543 10.673 10.3265 10.7217 10.595C10.7217 10.595 11.9387 10.6027 11.9387 10.595V9.86273Z" fill="#EEA339"/>
<path fill-rule="evenodd" clip-rule="evenodd" d="M11.9261 8.99525C11.8851 8.94073 11.9104 8.9117 11.9545 8.88278C11.9988 8.85396 11.9924 8.83149 11.9704 8.78987C11.9483 8.74815 11.9262 8.70321 11.9672 8.65837C12.0083 8.61342 11.9924 8.59417 11.9609 8.56213C11.9293 8.53009 11.9262 8.49482 11.9545 8.46912C11.983 8.44342 11.9767 8.42417 11.9578 8.39858C11.9388 8.37288 11.9016 8.32084 11.9349 8.28719L11.4186 7.84912C11.248 8.05643 11.1019 8.28525 10.9844 8.53063L11.9261 8.99525Z" fill="#EEA339"/>
<path fill-rule="evenodd" clip-rule="evenodd" d="M13.1628 9.23421L12.5475 8.62786C12.6343 8.53969 12.643 8.52528 12.5815 8.4627C12.5144 8.39453 12.5119 8.38743 12.6485 8.24862C12.695 8.20141 12.669 8.1684 12.6027 8.1684C12.5365 8.1684 12.2318 8.1684 12.1971 8.1684C12.1624 8.1684 12.1351 8.17023 12.1097 8.19604L11.6191 7.71346C11.8063 7.51765 12.0154 7.34679 12.2413 7.2041L13.1628 8.71002V9.23421Z" fill="#EEA339"/>
<path fill-rule="evenodd" clip-rule="evenodd" d="M12.523 9.32636C12.523 9.17571 12.5231 9.02657 12.5231 9.00539C12.5231 8.96044 12.5199 8.94281 12.4852 8.90754C12.4505 8.87227 12.4678 8.85539 12.4947 8.81689L13.0784 9.31098V9.60109L12.523 9.32636Z" fill="#EEA339"/>
<path fill-rule="evenodd" clip-rule="evenodd" d="M13.0701 8.44608C13.0701 8.15672 13.0701 7.88909 13.0701 7.73489C13.0701 7.27307 13.0956 7.0421 13.1618 6.99565L13.1088 6.77393C12.8497 6.84479 12.5984 6.9407 12.3604 7.06715L13.0701 8.44608Z" fill="#EEA339"/>
<path fill-rule="evenodd" clip-rule="evenodd" d="M15.3493 9.67434C15.3493 9.67434 15.3492 9.57971 15.3492 9.4624L14.7939 9.67445L15.3493 9.67434Z" fill="#EEA339"/>
<path fill-rule="evenodd" clip-rule="evenodd" d="M15.958 9.77249L17.2004 9.60227C17.1644 9.33173 17.0961 9.06797 16.9979 8.81689L15.958 9.23636V9.77249Z" fill="#EEA339"/>
<path fill-rule="evenodd" clip-rule="evenodd" d="M15.958 9.86273L17.2235 9.78467C17.2398 10.0543 17.2237 10.3265 17.1749 10.595C17.1749 10.595 15.958 10.6027 15.958 10.595V9.86273Z" fill="#EEA339"/>
<path fill-rule="evenodd" clip-rule="evenodd" d="M15.9184 8.99525C15.9594 8.94073 15.934 8.9117 15.8899 8.88278C15.8457 8.85396 15.852 8.83149 15.874 8.78987C15.8961 8.74815 15.9183 8.70321 15.8772 8.65837C15.8361 8.61342 15.852 8.59417 15.8836 8.56213C15.9151 8.53009 15.9183 8.49482 15.8899 8.46912C15.8614 8.44342 15.8678 8.42417 15.8866 8.39858C15.9057 8.37288 15.9427 8.32084 15.9096 8.28719L16.4259 7.84912C16.5965 8.05643 16.7424 8.28525 16.86 8.53063L15.9184 8.99525Z" fill="#EEA339"/>
<path fill-rule="evenodd" clip-rule="evenodd" d="M14.7939 9.23421L15.4093 8.62786C15.3224 8.53969 15.3137 8.52528 15.3753 8.4627C15.4424 8.39453 15.4448 8.38743 15.3083 8.24862C15.2617 8.20141 15.2878 8.1684 15.3541 8.1684C15.4203 8.1684 15.725 8.1684 15.7597 8.1684C15.7944 8.1684 15.8217 8.17023 15.8471 8.19604L16.3376 7.71346C16.1505 7.51765 15.9414 7.34679 15.7155 7.2041L14.7939 8.71002V9.23421Z" fill="#EEA339"/>
<path fill-rule="evenodd" clip-rule="evenodd" d="M15.3494 9.32636C15.3494 9.17571 15.3493 9.02657 15.3493 9.00539C15.3493 8.96044 15.3525 8.94281 15.3872 8.90754C15.4219 8.87227 15.4045 8.85539 15.3776 8.81689L14.7939 9.31098V9.60109L15.3494 9.32636Z" fill="#EEA339"/>
<path fill-rule="evenodd" clip-rule="evenodd" d="M12.1484 9.03223C12.1706 9.0547 12.1801 9.07707 12.1801 9.13158C12.1801 9.1861 12.1801 10.3792 12.1801 10.8475C12.1801 11.4184 12.5209 11.7359 12.8713 11.7359C13.1932 11.7359 13.4047 11.4376 13.5152 11.0913C13.3732 11.2035 13.1648 11.2388 12.9659 11.2388C12.7355 11.2388 12.3631 11.0817 12.3631 10.7417C12.3631 10.4274 12.3631 9.26309 12.3631 9.07707C12.3631 9.03223 12.3189 9.03223 12.1484 9.03223Z" fill="#D82332"/>
<path fill-rule="evenodd" clip-rule="evenodd" d="M14.1614 6.78377C13.7213 6.7385 13.313 6.83151 13.313 7.44162C13.313 8.08313 13.313 8.8656 13.313 9.06259C13.313 9.33323 13.2921 9.30108 13.5178 9.35796C13.9273 9.46119 13.9738 9.47431 14.4705 9.58958V7.94033C14.0463 7.89313 13.8625 7.61087 13.8625 7.29829C13.8625 7.04958 13.9707 6.81549 14.1614 6.78377Z" fill="#D82332"/>
<path fill-rule="evenodd" clip-rule="evenodd" d="M15.7379 9.03223C15.7157 9.0547 15.7062 9.07707 15.7062 9.13158C15.7062 9.1861 15.7062 10.3792 15.7062 10.8475C15.7062 11.4184 15.3654 11.7359 15.015 11.7359C14.6931 11.7359 14.4816 11.4376 14.3711 11.0913C14.5132 11.2035 14.7215 11.2388 14.9204 11.2388C15.1508 11.2388 15.5232 11.0817 15.5232 10.7417C15.5232 10.4274 15.5232 9.26309 15.5232 9.07707C15.5232 9.03223 15.5674 9.03223 15.7379 9.03223Z" fill="#D82332"/>
<mask id="mask1_6748_105423" style="mask-type:luminance" maskUnits="userSpaceOnUse" x="10" y="6" width="8" height="8">
<path fill-rule="evenodd" clip-rule="evenodd" d="M14.0003 13.3332C15.8413 13.3332 17.3337 11.8408 17.3337 9.99984C17.3337 8.15889 15.8413 6.6665 14.0003 6.6665C12.1594 6.6665 10.667 8.15889 10.667 9.99984C10.667 11.8408 12.1594 13.3332 14.0003 13.3332Z" fill="white"/>
</mask>
<g mask="url(#mask1_6748_105423)">
<path fill-rule="evenodd" clip-rule="evenodd" d="M14.0003 18.6667C15.8413 18.6667 17.3337 17.1743 17.3337 15.3333C17.3337 13.4924 15.8413 12 14.0003 12C12.1594 12 10.667 13.4924 10.667 15.3333C10.667 17.1743 12.1594 18.6667 14.0003 18.6667Z" fill="#064A89"/>
</g>
</g>
</svg>
