<svg width="28" height="20" viewBox="0 0 28 20" fill="none" xmlns="http://www.w3.org/2000/svg">
<rect width="28" height="20" rx="2" fill="white"/>
<mask id="mask0_6748_104822" style="mask-type:luminance" maskUnits="userSpaceOnUse" x="0" y="0" width="28" height="20">
<rect width="28" height="20" rx="2" fill="white"/>
</mask>
<g mask="url(#mask0_6748_104822)">
<rect width="28" height="20" fill="#262626"/>
<path fill-rule="evenodd" clip-rule="evenodd" d="M0 0H28V20L0 0Z" fill="#E8283F"/>
<path fill-rule="evenodd" clip-rule="evenodd" d="M6.66634 16.6665L5.72353 16.9426L5.99967 15.9998L5.72353 15.057L6.66634 15.3332L7.60915 15.057L7.33301 15.9998L7.60915 16.9426L6.66634 16.6665Z" fill="white"/>
<path fill-rule="evenodd" clip-rule="evenodd" d="M6.66634 8.6665L5.72353 8.94265L5.99967 7.99984L5.72353 7.05703L6.66634 7.33317L7.60915 7.05703L7.33301 7.99984L7.60915 8.94265L6.66634 8.6665Z" fill="white"/>
<path fill-rule="evenodd" clip-rule="evenodd" d="M3.33333 12L2.39052 12.2761L2.66667 11.3333L2.39052 10.3905L3.33333 10.6667L4.27614 10.3905L4 11.3333L4.27614 12.2761L3.33333 12Z" fill="white"/>
<path fill-rule="evenodd" clip-rule="evenodd" d="M9.33333 11.3335L8.39052 11.6096L8.66667 10.6668L8.39052 9.72402L9.33333 10.0002L10.2761 9.72402L10 10.6668L10.2761 11.6096L9.33333 11.3335Z" fill="white"/>
<path fill-rule="evenodd" clip-rule="evenodd" d="M18.8615 9.26541C18.7019 9.16964 18.5725 8.94404 18.5725 8.76355L18.5725 7.53483C18.5725 7.35343 18.442 7.24988 18.2445 7.31571L17.4863 7.56845C17.3052 7.62883 17.0278 7.63428 16.8303 7.56845L16.0721 7.31571C15.8909 7.25533 15.8708 7.13034 16.0331 7.03297L17.8121 5.96558C17.9717 5.8698 18.0576 5.66165 17.9918 5.46416L17.739 4.70596C17.6787 4.5248 17.7602 4.42146 17.9577 4.48729L18.7159 4.74002C18.8971 4.80041 19.12 4.72263 19.2173 4.56034L20.2847 2.78135C20.3805 2.62173 20.5016 2.62284 20.5675 2.82034L20.8202 3.57854C20.8806 3.75969 20.886 4.03706 20.8202 4.23455L20.5675 4.99276C20.5071 5.17391 20.6061 5.32076 20.7866 5.32076H22.0153C22.1967 5.32076 22.4198 5.44748 22.5172 5.60978L23.5846 7.38877C23.6803 7.54839 23.6033 7.70871 23.4302 7.74333L21.7287 8.08364C21.5477 8.11984 21.37 8.30384 21.3354 8.47692L20.9951 10.1785C20.9589 10.3595 20.8028 10.4302 20.6405 10.3328L18.8615 9.26541Z" fill="#FFD84E"/>
</g>
</svg>
