<svg width="28" height="20" viewBox="0 0 28 20" fill="none" xmlns="http://www.w3.org/2000/svg">
<rect x="0.25" y="0.25" width="27.5" height="19.5" rx="1.75" fill="white" stroke="#F5F5F5" stroke-width="0.5"/>
<mask id="mask0_6748_104802" style="mask-type:luminance" maskUnits="userSpaceOnUse" x="0" y="0" width="28" height="20">
<rect x="0.25" y="0.25" width="27.5" height="19.5" rx="1.75" fill="white" stroke="white" stroke-width="0.5"/>
</mask>
<g mask="url(#mask0_6748_104802)">
<path fill-rule="evenodd" clip-rule="evenodd" d="M0 20.0002H28V9.3335H12.4444L13.3333 10.0002L0 20.0002Z" fill="#DD1C34"/>
<path fill-rule="evenodd" clip-rule="evenodd" d="M28 9.33333H12.4444L0 0H28V9.33333Z" fill="#0D4BC3"/>
<path fill-rule="evenodd" clip-rule="evenodd" d="M1.99967 3.99984C2.36786 3.99984 2.66634 3.70136 2.66634 3.33317C2.66634 2.96498 2.36786 2.6665 1.99967 2.6665C1.63148 2.6665 1.33301 2.96498 1.33301 3.33317C1.33301 3.70136 1.63148 3.99984 1.99967 3.99984ZM9.99967 10.6665C10.3679 10.6665 10.6663 10.368 10.6663 9.99984C10.6663 9.63165 10.3679 9.33317 9.99967 9.33317C9.63148 9.33317 9.33301 9.63165 9.33301 9.99984C9.33301 10.368 9.63148 10.6665 9.99967 10.6665ZM2.66634 16.6665C2.66634 17.0347 2.36786 17.3332 1.99967 17.3332C1.63148 17.3332 1.33301 17.0347 1.33301 16.6665C1.33301 16.2983 1.63148 15.9998 1.99967 15.9998C2.36786 15.9998 2.66634 16.2983 2.66634 16.6665ZM4.53175 11.3265L3.39073 13.0794L3.82346 11.033C3.75383 10.9761 3.69005 10.9124 3.63317 10.8427L1.58674 11.2754L3.33972 10.1344C3.33528 10.0902 3.33301 10.0453 3.33301 9.99984C3.33301 9.95441 3.33528 9.90951 3.33972 9.86525L1.58674 8.72423L3.63317 9.15696C3.69005 9.08732 3.75383 9.02354 3.82346 8.96667L3.39073 6.92024L4.53175 8.67321C4.57601 8.66878 4.62091 8.6665 4.66634 8.6665C4.71177 8.6665 4.75667 8.66878 4.80093 8.67321L5.94195 6.92024L5.50922 8.96667C5.57886 9.02354 5.64263 9.08732 5.69951 9.15696L7.74594 8.72423L5.99297 9.86525C5.9974 9.90951 5.99967 9.95441 5.99967 9.99984C5.99967 10.0453 5.9974 10.0902 5.99297 10.1344L7.74594 11.2754L5.69951 10.8427C5.64263 10.9124 5.57886 10.9761 5.50922 11.033L5.94195 13.0794L4.80093 11.3265C4.75667 11.3309 4.71177 11.3332 4.66634 11.3332C4.62091 11.3332 4.57601 11.3309 4.53175 11.3265Z" fill="#FDD64D"/>
</g>
</svg>
