<svg width="28" height="20" viewBox="0 0 28 20" fill="none" xmlns="http://www.w3.org/2000/svg">
<rect width="28" height="20" rx="2" fill="white"/>
<mask id="mask0_6748_104880" style="mask-type:luminance" maskUnits="userSpaceOnUse" x="0" y="0" width="28" height="20">
<rect width="28" height="20" rx="2" fill="white"/>
</mask>
<g mask="url(#mask0_6748_104880)">
<g filter="url(#filter0_d_6748_104880)">
<path fill-rule="evenodd" clip-rule="evenodd" d="M0 19.9998H28V14.6665H0V19.9998Z" fill="#2D754D"/>
</g>
<path fill-rule="evenodd" clip-rule="evenodd" d="M0 9.33333H28V0H0V9.33333Z" fill="#25B1EB"/>
<path fill-rule="evenodd" clip-rule="evenodd" d="M0 14.6668H28V9.3335H0V14.6668Z" fill="#FECB2F"/>
<path fill-rule="evenodd" clip-rule="evenodd" d="M21.3337 6L20.3132 7.13035L20.3908 5.60948L18.87 5.68716L20.0003 4.66667L18.87 3.64618L20.3908 3.72386L20.3132 2.20299L21.3337 3.33333L22.3541 2.20299L22.2765 3.72386L23.7973 3.64618L22.667 4.66667L23.7973 5.68716L22.2765 5.60948L22.3541 7.13035L21.3337 6Z" fill="#FECB2F"/>
</g>
<defs>
<filter id="filter0_d_6748_104880" x="0" y="14.6665" width="28" height="5.3335" filterUnits="userSpaceOnUse" color-interpolation-filters="sRGB">
<feFlood flood-opacity="0" result="BackgroundImageFix"/>
<feColorMatrix in="SourceAlpha" type="matrix" values="0 0 0 0 0 0 0 0 0 0 0 0 0 0 0 0 0 0 127 0" result="hardAlpha"/>
<feOffset/>
<feColorMatrix type="matrix" values="0 0 0 0 0 0 0 0 0 0 0 0 0 0 0 0 0 0 0.06 0"/>
<feBlend mode="normal" in2="BackgroundImageFix" result="effect1_dropShadow_6748_104880"/>
<feBlend mode="normal" in="SourceGraphic" in2="effect1_dropShadow_6748_104880" result="shape"/>
</filter>
</defs>
</svg>
