<svg width="28" height="20" viewBox="0 0 28 20" fill="none" xmlns="http://www.w3.org/2000/svg">
<rect width="28" height="20" rx="2" fill="white"/>
<mask id="mask0_6748_104404" style="mask-type:luminance" maskUnits="userSpaceOnUse" x="0" y="0" width="28" height="20">
<rect width="28" height="20" rx="2" fill="white"/>
</mask>
<g mask="url(#mask0_6748_104404)">
<rect width="28" height="20" fill="#128C4B"/>
<path fill-rule="evenodd" clip-rule="evenodd" d="M6.66699 12.0002H17.3337V11.0788C17.3337 10.5833 17.8552 10.2609 18.2985 10.4826L18.667 10.6668V12.0002H20.667C21.0352 12.0002 21.3337 12.2986 21.3337 12.6668V13.3335C21.3337 14.0699 20.7367 14.6668 20.0003 14.6668H18.0003C17.6321 14.6668 17.3337 14.3683 17.3337 14.0002V13.3335H8.27647C8.09966 13.3335 7.93009 13.2632 7.80506 13.1382L6.66699 12.0002Z" fill="white"/>
<path fill-rule="evenodd" clip-rule="evenodd" d="M6.66699 8.13823C6.66699 8.04983 6.70211 7.96504 6.76462 7.90253L7.09796 7.5692C7.22813 7.43902 7.22813 7.22797 7.09796 7.09779L6.76462 6.76446C6.70211 6.70195 6.66699 6.61716 6.66699 6.52876V5.66683C6.66699 5.48273 6.81623 5.3335 7.00033 5.3335H7.74568C7.88632 5.3335 8.00033 5.4475 8.00033 5.58814C8.00033 5.85685 8.36256 5.94236 8.48273 5.70202L8.58211 5.50326C8.63413 5.39922 8.74047 5.3335 8.85679 5.3335H10.3337C10.5178 5.3335 10.667 5.48273 10.667 5.66683C10.667 5.85092 10.5178 6.00016 10.3337 6.00016H9.66699C9.4829 6.00016 9.33366 6.1494 9.33366 6.3335C9.33366 6.51759 9.4829 6.66683 9.66699 6.66683H10.3337C10.5178 6.66683 10.667 6.81607 10.667 7.00016V9.00016C10.667 9.18426 10.5178 9.3335 10.3337 9.3335H9.66699C9.4829 9.3335 9.33366 9.18426 9.33366 9.00016V8.3335C9.33366 8.1494 9.4829 8.00016 9.66699 8.00016C9.85109 8.00016 10.0003 7.85092 10.0003 7.66683C10.0003 7.48273 9.85109 7.3335 9.66699 7.3335H9.00033C8.81623 7.3335 8.66699 7.48273 8.66699 7.66683V9.00016C8.66699 9.18426 8.51775 9.3335 8.33366 9.3335C8.14956 9.3335 8.00033 9.18426 8.00033 9.00016V8.3335C8.00033 8.1494 7.85109 8.00016 7.66699 8.00016C7.4829 8.00016 7.33366 8.1494 7.33366 8.3335V9.00016C7.33366 9.18426 7.18442 9.3335 7.00033 9.3335C6.81623 9.3335 6.66699 9.18426 6.66699 9.00016V8.13823Z" fill="white"/>
<path fill-rule="evenodd" clip-rule="evenodd" d="M17.333 8.13823C17.333 8.04983 17.3681 7.96504 17.4306 7.90253L17.764 7.5692C17.8941 7.43902 17.8941 7.22797 17.764 7.09779L17.4306 6.76446C17.3681 6.70195 17.333 6.61716 17.333 6.52876V5.66683C17.333 5.48273 17.4822 5.3335 17.6663 5.3335H18.4117C18.5523 5.3335 18.6663 5.4475 18.6663 5.58814C18.6663 5.85685 19.0286 5.94236 19.1487 5.70202L19.2481 5.50326C19.3001 5.39922 19.4065 5.3335 19.5228 5.3335H20.9997C21.1838 5.3335 21.333 5.48273 21.333 5.66683C21.333 5.85092 21.1838 6.00016 20.9997 6.00016H20.333C20.1489 6.00016 19.9997 6.1494 19.9997 6.3335C19.9997 6.51759 20.1489 6.66683 20.333 6.66683H20.9997C21.1838 6.66683 21.333 6.81607 21.333 7.00016V9.00016C21.333 9.18426 21.1838 9.3335 20.9997 9.3335H20.333C20.1489 9.3335 19.9997 9.18426 19.9997 9.00016V8.3335C19.9997 8.1494 20.1489 8.00016 20.333 8.00016C20.5171 8.00016 20.6663 7.85092 20.6663 7.66683C20.6663 7.48273 20.5171 7.3335 20.333 7.3335H19.6663C19.4822 7.3335 19.333 7.48273 19.333 7.66683V9.00016C19.333 9.18426 19.1838 9.3335 18.9997 9.3335C18.8156 9.3335 18.6663 9.18426 18.6663 9.00016V8.3335C18.6663 8.1494 18.5171 8.00016 18.333 8.00016C18.1489 8.00016 17.9997 8.1494 17.9997 8.3335V9.00016C17.9997 9.18426 17.8504 9.3335 17.6663 9.3335C17.4822 9.3335 17.333 9.18426 17.333 9.00016V8.13823Z" fill="white"/>
<path fill-rule="evenodd" clip-rule="evenodd" d="M16 6.33037C16 6.51619 15.8958 6.771 15.7593 6.90751L15.574 7.09281C15.4411 7.22574 15.4375 7.43766 15.574 7.57418L15.7593 7.75948C15.8922 7.89241 16 8.14285 16 8.33662V8.99704C16 9.18286 15.8573 9.3335 15.6635 9.3335H15.0031C14.8173 9.3335 14.6667 9.19081 14.6667 8.99704V8.33662C14.6667 8.1508 14.6051 8.12321 14.512 8.30941L14.1546 9.02425C14.0692 9.19504 13.8431 9.3335 13.6697 9.3335H12.3303C12.1479 9.3335 12 9.17887 12 9.00016C12 8.81607 12.1427 8.66683 12.3365 8.66683H12.9969C13.1827 8.66683 13.3333 8.51221 13.3333 8.3335C13.3333 8.1494 13.1906 8.00016 12.9969 8.00016H12.3365C12.1506 8.00016 12 7.85679 12 7.67318V5.66048C12 5.47989 12.1427 5.3335 12.3365 5.3335H12.9969C13.1827 5.3335 13.3333 5.47619 13.3333 5.66995V6.33037C13.3333 6.51619 13.1787 6.66683 13 6.66683C12.8159 6.66683 12.6667 6.82145 12.6667 7.00016C12.6667 7.18426 12.8094 7.3335 13.0031 7.3335H13.6635C13.8494 7.3335 14 7.17656 14 7.00324V5.66376C14 5.48136 14.1546 5.3335 14.3333 5.3335C14.5174 5.3335 14.6667 5.47619 14.6667 5.66995V6.33037C14.6667 6.51619 14.8213 6.66683 15 6.66683C15.1841 6.66683 15.3333 6.52414 15.3333 6.33037V5.66995C15.3333 5.48413 15.488 5.3335 15.6667 5.3335C15.8508 5.3335 16 5.47619 16 5.66995V6.33037Z" fill="white"/>
</g>
</svg>
