<svg width="28" height="20" viewBox="0 0 28 20" fill="none" xmlns="http://www.w3.org/2000/svg">
<rect x="0.25" y="0.25" width="27.5" height="19.5" rx="1.75" fill="white" stroke="#F5F5F5" stroke-width="0.5"/>
<mask id="mask0_6748_104986" style="mask-type:luminance" maskUnits="userSpaceOnUse" x="0" y="0" width="28" height="20">
<rect x="0.25" y="0.25" width="27.5" height="19.5" rx="1.75" fill="white" stroke="white" stroke-width="0.5"/>
</mask>
<g mask="url(#mask0_6748_104986)">
<path fill-rule="evenodd" clip-rule="evenodd" d="M0 10.6667H28V0H0V10.6667Z" fill="#E12237"/>
<path fill-rule="evenodd" clip-rule="evenodd" d="M6.66699 9.3335C7.6121 9.3335 8.48065 9.00572 9.16517 8.45764C8.80257 8.5929 8.41008 8.66683 8.00033 8.66683C6.15938 8.66683 4.66699 7.17445 4.66699 5.3335C4.66699 3.49255 6.15938 2.00016 8.00033 2.00016C8.41008 2.00016 8.80257 2.0741 9.16517 2.20935C8.48065 1.66127 7.6121 1.3335 6.66699 1.3335C4.45785 1.3335 2.66699 3.12436 2.66699 5.3335C2.66699 7.54263 4.45785 9.3335 6.66699 9.3335ZM8.00033 4.66683C8.00033 5.03502 7.70185 5.3335 7.33366 5.3335C6.96547 5.3335 6.66699 5.03502 6.66699 4.66683C6.66699 4.29864 6.96547 4.00016 7.33366 4.00016C7.70185 4.00016 8.00033 4.29864 8.00033 4.66683ZM8.66699 8.00016C9.03518 8.00016 9.33366 7.70169 9.33366 7.3335C9.33366 6.96531 9.03518 6.66683 8.66699 6.66683C8.2988 6.66683 8.00033 6.96531 8.00033 7.3335C8.00033 7.70169 8.2988 8.00016 8.66699 8.00016ZM12.0003 7.3335C12.0003 7.70169 11.7018 8.00016 11.3337 8.00016C10.9655 8.00016 10.667 7.70169 10.667 7.3335C10.667 6.96531 10.9655 6.66683 11.3337 6.66683C11.7018 6.66683 12.0003 6.96531 12.0003 7.3335ZM12.667 5.3335C13.0352 5.3335 13.3337 5.03502 13.3337 4.66683C13.3337 4.29864 13.0352 4.00016 12.667 4.00016C12.2988 4.00016 12.0003 4.29864 12.0003 4.66683C12.0003 5.03502 12.2988 5.3335 12.667 5.3335ZM10.667 2.66683C10.667 3.03502 10.3685 3.3335 10.0003 3.3335C9.63214 3.3335 9.33366 3.03502 9.33366 2.66683C9.33366 2.29864 9.63214 2.00016 10.0003 2.00016C10.3685 2.00016 10.667 2.29864 10.667 2.66683Z" fill="white"/>
</g>
</svg>
