<svg width="28" height="20" viewBox="0 0 28 20" fill="none" xmlns="http://www.w3.org/2000/svg">
<rect x="0.25" y="0.25" width="27.5" height="19.5" rx="1.75" fill="white" stroke="#F5F5F5" stroke-width="0.5"/>
<mask id="mask0_6748_104932" style="mask-type:luminance" maskUnits="userSpaceOnUse" x="0" y="0" width="28" height="20">
<rect x="0.25" y="0.25" width="27.5" height="19.5" rx="1.75" fill="white" stroke="white" stroke-width="0.5"/>
</mask>
<g mask="url(#mask0_6748_104932)">
<path fill-rule="evenodd" clip-rule="evenodd" d="M0 13.3332H28V6.6665H0V13.3332Z" fill="#0C47B7"/>
<path fill-rule="evenodd" clip-rule="evenodd" d="M0 20.0002H28V13.3335H0V20.0002Z" fill="#E53B35"/>
<path d="M6.95014 3.33333C5.87548 3.33333 4.99292 4.1826 4.95162 5.25647L4.69237 11.9969C4.66889 12.6073 4.92558 13.1948 5.38931 13.5923L8.26499 16.0572C9.26363 16.9132 10.7372 16.9132 11.7359 16.0572L14.6116 13.5923C15.0753 13.1948 15.332 12.6073 15.3085 11.9969L15.0493 5.25647C15.008 4.1826 14.1254 3.33333 13.0507 3.33333H6.95014Z" fill="#F73744" stroke="white" stroke-width="1.33333"/>
<mask id="mask1_6748_104932" style="mask-type:luminance" maskUnits="userSpaceOnUse" x="4" y="2" width="12" height="16">
<path d="M6.95014 3.33333C5.87548 3.33333 4.99292 4.1826 4.95162 5.25647L4.69237 11.9969C4.66889 12.6073 4.92558 13.1948 5.38931 13.5923L8.26499 16.0572C9.26363 16.9132 10.7372 16.9132 11.7359 16.0572L14.6116 13.5923C15.0753 13.1948 15.332 12.6073 15.3085 11.9969L15.0493 5.25647C15.008 4.1826 14.1254 3.33333 13.0507 3.33333H6.95014Z" fill="white" stroke="white" stroke-width="1.33333"/>
</mask>
<g mask="url(#mask1_6748_104932)">
<path fill-rule="evenodd" clip-rule="evenodd" d="M9.33398 11.0002C9.33398 10.8161 9.18475 10.6668 9.00065 10.6668H7.66732C7.48322 10.6668 7.33398 10.5176 7.33398 10.3335V9.66683C7.33398 9.48273 7.48322 9.3335 7.66732 9.3335H9.00065C9.18475 9.3335 9.33398 9.18426 9.33398 9.00016V8.3335C9.33398 8.1494 9.18475 8.00016 9.00065 8.00016H8.33398C8.14989 8.00016 8.00065 7.85092 8.00065 7.66683V7.00016C8.00065 6.81607 8.14989 6.66683 8.33398 6.66683H9.00065C9.18475 6.66683 9.33398 6.51759 9.33398 6.3335V5.66683C9.33398 5.48273 9.48322 5.3335 9.66732 5.3335H10.334C10.5181 5.3335 10.6673 5.48273 10.6673 5.66683V6.3335C10.6673 6.51759 10.8166 6.66683 11.0007 6.66683H11.6673C11.8514 6.66683 12.0007 6.81607 12.0007 7.00016V7.66683C12.0007 7.85092 11.8514 8.00016 11.6673 8.00016H11.0007C10.8166 8.00016 10.6673 8.1494 10.6673 8.3335V9.00016C10.6673 9.18426 10.8166 9.3335 11.0007 9.3335H12.334C12.5181 9.3335 12.6673 9.48273 12.6673 9.66683V10.3335C12.6673 10.5176 12.5181 10.6668 12.334 10.6668H11.0007C10.8166 10.6668 10.6673 10.8161 10.6673 11.0002V13.0002C10.6673 13.1843 10.5181 13.3335 10.334 13.3335H9.66732C9.48322 13.3335 9.33398 13.1843 9.33398 13.0002V11.0002Z" fill="white"/>
<path fill-rule="evenodd" clip-rule="evenodd" d="M11.2035 13.4253C10.9889 12.9765 10.5307 12.6665 10 12.6665C9.46934 12.6665 9.01109 12.9765 8.79647 13.4253C7.17545 13.6807 6 14.4383 6 15.3332C6 16.4377 7.79086 17.3332 10 17.3332C12.2091 17.3332 14 16.4377 14 15.3332C14 14.4383 12.8246 13.6807 11.2035 13.4253Z" fill="#1251A1"/>
</g>
</g>
</svg>
