<svg width="28" height="20" viewBox="0 0 28 20" fill="none" xmlns="http://www.w3.org/2000/svg">
<rect width="28" height="20" rx="2" fill="white"/>
<mask id="mask0_6748_105143" style="mask-type:luminance" maskUnits="userSpaceOnUse" x="0" y="0" width="28" height="20">
<rect width="28" height="20" rx="2" fill="white"/>
</mask>
<g mask="url(#mask0_6748_105143)">
<path fill-rule="evenodd" clip-rule="evenodd" d="M0 20H28V0H0V20Z" fill="#30C375"/>
<rect x="4" width="4" height="20" fill="#DE414F"/>
<path fill-rule="evenodd" clip-rule="evenodd" d="M6 4.00016C7.10457 4.00016 8 3.40321 8 2.66683C8 1.93045 7.10457 1.3335 6 1.3335C4.89543 1.3335 4 1.93045 4 2.66683C4 3.40321 4.89543 4.00016 6 4.00016Z" fill="white"/>
<mask id="mask1_6748_105143" style="mask-type:luminance" maskUnits="userSpaceOnUse" x="4" y="1" width="4" height="3">
<path fill-rule="evenodd" clip-rule="evenodd" d="M6 4.00016C7.10457 4.00016 8 3.40321 8 2.66683C8 1.93045 7.10457 1.3335 6 1.3335C4.89543 1.3335 4 1.93045 4 2.66683C4 3.40321 4.89543 4.00016 6 4.00016Z" fill="white"/>
</mask>
<g mask="url(#mask1_6748_105143)">
<path fill-rule="evenodd" clip-rule="evenodd" d="M5.99967 3.33333C6.36786 3.33333 6.66634 3.03486 6.66634 2.66667C6.66634 2.29848 6.36786 2 5.99967 2C5.63148 2 5.33301 2.29848 5.33301 2.66667C5.33301 3.03486 5.63148 3.33333 5.99967 3.33333Z" fill="#DD404F"/>
<rect x="4" y="1.3335" width="2" height="1.33333" fill="#FBAF29"/>
<rect x="6" y="2.66699" width="2" height="1.33333" fill="#FBAF29"/>
</g>
<path fill-rule="evenodd" clip-rule="evenodd" d="M6 18.6667C7.10457 18.6667 8 18.0697 8 17.3333C8 16.597 7.10457 16 6 16C4.89543 16 4 16.597 4 17.3333C4 18.0697 4.89543 18.6667 6 18.6667Z" fill="white"/>
<mask id="mask2_6748_105143" style="mask-type:luminance" maskUnits="userSpaceOnUse" x="4" y="16" width="4" height="3">
<path fill-rule="evenodd" clip-rule="evenodd" d="M6 18.6667C7.10457 18.6667 8 18.0697 8 17.3333C8 16.597 7.10457 16 6 16C4.89543 16 4 16.597 4 17.3333C4 18.0697 4.89543 18.6667 6 18.6667Z" fill="white"/>
</mask>
<g mask="url(#mask2_6748_105143)">
<path fill-rule="evenodd" clip-rule="evenodd" d="M5.99967 17.9998C6.36786 17.9998 6.66634 17.7014 6.66634 17.3332C6.66634 16.965 6.36786 16.6665 5.99967 16.6665C5.63148 16.6665 5.33301 16.965 5.33301 17.3332C5.33301 17.7014 5.63148 17.9998 5.99967 17.9998Z" fill="#DD404F"/>
<rect x="4" y="16" width="2" height="1.33333" fill="#FBAF29"/>
<rect x="6" y="17.3335" width="2" height="1.33333" fill="#FBAF29"/>
</g>
<path fill-rule="evenodd" clip-rule="evenodd" d="M6 12.0002C7.10457 12.0002 8 11.4032 8 10.6668C8 9.93045 7.10457 9.3335 6 9.3335C4.89543 9.3335 4 9.93045 4 10.6668C4 11.4032 4.89543 12.0002 6 12.0002Z" fill="#28AE67"/>
<mask id="mask3_6748_105143" style="mask-type:luminance" maskUnits="userSpaceOnUse" x="4" y="9" width="4" height="3">
<path fill-rule="evenodd" clip-rule="evenodd" d="M6 12.0002C7.10457 12.0002 8 11.4032 8 10.6668C8 9.93045 7.10457 9.3335 6 9.3335C4.89543 9.3335 4 9.93045 4 10.6668C4 11.4032 4.89543 12.0002 6 12.0002Z" fill="white"/>
</mask>
<g mask="url(#mask3_6748_105143)">
<path fill-rule="evenodd" clip-rule="evenodd" d="M6.00033 11.3333C6.73671 11.3333 7.33366 11.0349 7.33366 10.6667C7.33366 10.2985 6.73671 10 6.00033 10C5.26395 10 4.66699 10.2985 4.66699 10.6667C4.66699 11.0349 5.26395 11.3333 6.00033 11.3333Z" fill="#DD404F"/>
</g>
<path fill-rule="evenodd" clip-rule="evenodd" d="M6 14.6668C7.10457 14.6668 8 14.3684 8 14.0002C8 13.632 7.10457 13.3335 6 13.3335C4.89543 13.3335 4 13.632 4 14.0002C4 14.3684 4.89543 14.6668 6 14.6668Z" fill="#28AE67"/>
<mask id="mask4_6748_105143" style="mask-type:luminance" maskUnits="userSpaceOnUse" x="4" y="13" width="4" height="2">
<path fill-rule="evenodd" clip-rule="evenodd" d="M6 14.6668C7.10457 14.6668 8 14.3684 8 14.0002C8 13.632 7.10457 13.3335 6 13.3335C4.89543 13.3335 4 13.632 4 14.0002C4 14.3684 4.89543 14.6668 6 14.6668Z" fill="white"/>
</mask>
<g mask="url(#mask4_6748_105143)">
</g>
<path fill-rule="evenodd" clip-rule="evenodd" d="M6 8.00016C7.10457 8.00016 8 7.40321 8 6.66683C8 5.93045 7.10457 5.3335 6 5.3335C4.89543 5.3335 4 5.93045 4 6.66683C4 7.40321 4.89543 8.00016 6 8.00016Z" fill="#FBAF29"/>
<mask id="mask5_6748_105143" style="mask-type:luminance" maskUnits="userSpaceOnUse" x="4" y="5" width="4" height="3">
<path fill-rule="evenodd" clip-rule="evenodd" d="M6 8.00016C7.10457 8.00016 8 7.40321 8 6.66683C8 5.93045 7.10457 5.3335 6 5.3335C4.89543 5.3335 4 5.93045 4 6.66683C4 7.40321 4.89543 8.00016 6 8.00016Z" fill="white"/>
</mask>
<g mask="url(#mask5_6748_105143)">
<path fill-rule="evenodd" clip-rule="evenodd" d="M5.99967 7.33333C6.36786 7.33333 6.66634 7.03486 6.66634 6.66667C6.66634 6.29848 6.36786 6 5.99967 6C5.63148 6 5.33301 6.29848 5.33301 6.66667C5.33301 7.03486 5.63148 7.33333 5.99967 7.33333Z" fill="#DD404F"/>
<rect x="4" y="5.3335" width="1.33333" height="2.66667" fill="#28AE67"/>
<rect x="6.66699" y="5.3335" width="1.33333" height="2.66667" fill="#28AE67"/>
</g>
<path fill-rule="evenodd" clip-rule="evenodd" d="M14.823 4.23799C14.5863 4.52004 14.6231 4.94055 14.9051 5.17722C15.1872 5.41388 15.6077 5.37709 15.8444 5.09504C16.081 4.81299 16.0442 4.39249 15.7622 4.15582C15.4801 3.91916 15.0596 3.95594 14.823 4.23799ZM13.0955 6.82249C12.8135 6.58582 12.393 6.62261 12.1563 6.90466C11.9196 7.18671 11.9564 7.60721 12.2385 7.84388C12.5205 8.08055 12.941 8.04376 13.1777 7.76171C13.4144 7.47966 13.3776 7.05916 13.0955 6.82249ZM11.7622 5.48916C11.4801 5.25249 11.0596 5.28928 10.823 5.57133C10.5863 5.85338 10.6231 6.27388 10.9051 6.51055C11.1872 6.74722 11.6077 6.71043 11.8444 6.42838C12.081 6.14633 12.0442 5.72582 11.7622 5.48916ZM14.4289 2.82249C14.1468 2.58582 13.7263 2.62261 13.4896 2.90466C13.253 3.18671 13.2898 3.60721 13.5718 3.84388C13.8539 4.08055 14.2744 4.04376 14.511 3.76171C14.7477 3.47966 14.7109 3.05916 14.4289 2.82249ZM13.7622 4.82249C13.4801 4.58582 13.0596 4.62261 12.823 4.90466C12.5863 5.18671 12.6231 5.60721 12.9051 5.84388C13.1872 6.08055 13.6077 6.04376 13.8444 5.76171C14.081 5.47966 14.0442 5.05916 13.7622 4.82249Z" fill="white"/>
<path fill-rule="evenodd" clip-rule="evenodd" d="M17.4763 9.45045C15.8883 11.0385 13.3135 11.0385 11.7255 9.45045C11.5716 9.29658 11.4327 9.13343 11.3086 8.96282C12.8987 10.1191 15.1376 9.98009 16.5718 8.54592C18.006 7.11175 18.1449 4.87284 16.9887 3.28271C17.1593 3.40677 17.3225 3.54574 17.4763 3.69962C19.0644 5.28767 19.0644 7.8624 17.4763 9.45045Z" fill="white"/>
</g>
</svg>
