<svg width="28" height="20" viewBox="0 0 28 20" fill="none" xmlns="http://www.w3.org/2000/svg">
<rect width="28" height="20" rx="2" fill="white"/>
<mask id="mask0_6748_105099" style="mask-type:luminance" maskUnits="userSpaceOnUse" x="0" y="0" width="28" height="20">
<rect width="28" height="20" rx="2" fill="white"/>
</mask>
<g mask="url(#mask0_6748_105099)">
<rect width="28" height="20" fill="#E92434"/>
<path fill-rule="evenodd" clip-rule="evenodd" d="M19.0204 10.7682L17.7956 12.2532L17.879 10.3301L16.0882 9.62407L17.943 9.10914L18.0611 7.18783L19.1239 8.79271L20.9877 8.31127L19.7898 9.81807L20.8236 11.4418L19.0204 10.7682Z" fill="white"/>
<path fill-rule="evenodd" clip-rule="evenodd" d="M17.4031 13.6841C16.3052 15.0935 14.5919 16 12.667 16C9.35328 16 6.66699 13.3137 6.66699 10C6.66699 6.68629 9.35328 4 12.667 4C14.5919 4 16.3052 4.90649 17.4031 6.31588C16.5559 5.70011 15.4907 5.33333 14.3337 5.33333C11.5722 5.33333 9.33366 7.42267 9.33366 10C9.33366 12.5773 11.5722 14.6667 14.3337 14.6667C15.4907 14.6667 16.5559 14.2999 17.4031 13.6841Z" fill="white"/>
</g>
</svg>
