<svg width="28" height="20" viewBox="0 0 28 20" fill="none" xmlns="http://www.w3.org/2000/svg">
<rect width="28" height="20" rx="2" fill="white"/>
<mask id="mask0_6748_105225" style="mask-type:luminance" maskUnits="userSpaceOnUse" x="0" y="0" width="28" height="20">
<rect width="28" height="20" rx="2" fill="white"/>
</mask>
<g mask="url(#mask0_6748_105225)">
<path fill-rule="evenodd" clip-rule="evenodd" d="M28 0H0V1.33333H28V0ZM28 2.66667H0V4H28V2.66667ZM0 5.33333H28V6.66667H0V5.33333ZM28 8H0V9.33333H28V8ZM0 10.6667H28V12H0V10.6667ZM28 13.3333H0V14.6667H28V13.3333ZM0 16H28V17.3333H0V16ZM28 18.6667H0V20H28V18.6667Z" fill="#D02F44"/>
<rect width="12" height="9.33333" fill="#46467F"/>
<g filter="url(#filter0_d_6748_105225)">
<path fill-rule="evenodd" clip-rule="evenodd" d="M2.66634 2.00016C2.66634 2.36835 2.36786 2.66683 1.99967 2.66683C1.63148 2.66683 1.33301 2.36835 1.33301 2.00016C1.33301 1.63197 1.63148 1.3335 1.99967 1.3335C2.36786 1.3335 2.66634 1.63197 2.66634 2.00016ZM5.33301 2.00016C5.33301 2.36835 5.03453 2.66683 4.66634 2.66683C4.29815 2.66683 3.99967 2.36835 3.99967 2.00016C3.99967 1.63197 4.29815 1.3335 4.66634 1.3335C5.03453 1.3335 5.33301 1.63197 5.33301 2.00016ZM7.33301 2.66683C7.7012 2.66683 7.99967 2.36835 7.99967 2.00016C7.99967 1.63197 7.7012 1.3335 7.33301 1.3335C6.96482 1.3335 6.66634 1.63197 6.66634 2.00016C6.66634 2.36835 6.96482 2.66683 7.33301 2.66683ZM10.6663 2.00016C10.6663 2.36835 10.3679 2.66683 9.99967 2.66683C9.63148 2.66683 9.33301 2.36835 9.33301 2.00016C9.33301 1.63197 9.63148 1.3335 9.99967 1.3335C10.3679 1.3335 10.6663 1.63197 10.6663 2.00016ZM3.33301 4.00016C3.7012 4.00016 3.99967 3.70169 3.99967 3.3335C3.99967 2.96531 3.7012 2.66683 3.33301 2.66683C2.96482 2.66683 2.66634 2.96531 2.66634 3.3335C2.66634 3.70169 2.96482 4.00016 3.33301 4.00016ZM6.66634 3.3335C6.66634 3.70169 6.36786 4.00016 5.99967 4.00016C5.63148 4.00016 5.33301 3.70169 5.33301 3.3335C5.33301 2.96531 5.63148 2.66683 5.99967 2.66683C6.36786 2.66683 6.66634 2.96531 6.66634 3.3335ZM8.66634 4.00016C9.03453 4.00016 9.33301 3.70169 9.33301 3.3335C9.33301 2.96531 9.03453 2.66683 8.66634 2.66683C8.29815 2.66683 7.99967 2.96531 7.99967 3.3335C7.99967 3.70169 8.29815 4.00016 8.66634 4.00016ZM10.6663 4.66683C10.6663 5.03502 10.3679 5.3335 9.99967 5.3335C9.63148 5.3335 9.33301 5.03502 9.33301 4.66683C9.33301 4.29864 9.63148 4.00016 9.99967 4.00016C10.3679 4.00016 10.6663 4.29864 10.6663 4.66683ZM7.33301 5.3335C7.7012 5.3335 7.99967 5.03502 7.99967 4.66683C7.99967 4.29864 7.7012 4.00016 7.33301 4.00016C6.96482 4.00016 6.66634 4.29864 6.66634 4.66683C6.66634 5.03502 6.96482 5.3335 7.33301 5.3335ZM5.33301 4.66683C5.33301 5.03502 5.03453 5.3335 4.66634 5.3335C4.29815 5.3335 3.99967 5.03502 3.99967 4.66683C3.99967 4.29864 4.29815 4.00016 4.66634 4.00016C5.03453 4.00016 5.33301 4.29864 5.33301 4.66683ZM1.99967 5.3335C2.36786 5.3335 2.66634 5.03502 2.66634 4.66683C2.66634 4.29864 2.36786 4.00016 1.99967 4.00016C1.63148 4.00016 1.33301 4.29864 1.33301 4.66683C1.33301 5.03502 1.63148 5.3335 1.99967 5.3335ZM3.99967 6.00016C3.99967 6.36835 3.7012 6.66683 3.33301 6.66683C2.96482 6.66683 2.66634 6.36835 2.66634 6.00016C2.66634 5.63197 2.96482 5.3335 3.33301 5.3335C3.7012 5.3335 3.99967 5.63197 3.99967 6.00016ZM5.99967 6.66683C6.36786 6.66683 6.66634 6.36835 6.66634 6.00016C6.66634 5.63197 6.36786 5.3335 5.99967 5.3335C5.63148 5.3335 5.33301 5.63197 5.33301 6.00016C5.33301 6.36835 5.63148 6.66683 5.99967 6.66683ZM9.33301 6.00016C9.33301 6.36835 9.03453 6.66683 8.66634 6.66683C8.29815 6.66683 7.99967 6.36835 7.99967 6.00016C7.99967 5.63197 8.29815 5.3335 8.66634 5.3335C9.03453 5.3335 9.33301 5.63197 9.33301 6.00016ZM9.99967 8.00016C10.3679 8.00016 10.6663 7.70169 10.6663 7.3335C10.6663 6.96531 10.3679 6.66683 9.99967 6.66683C9.63148 6.66683 9.33301 6.96531 9.33301 7.3335C9.33301 7.70169 9.63148 8.00016 9.99967 8.00016ZM7.99967 7.3335C7.99967 7.70169 7.7012 8.00016 7.33301 8.00016C6.96482 8.00016 6.66634 7.70169 6.66634 7.3335C6.66634 6.96531 6.96482 6.66683 7.33301 6.66683C7.7012 6.66683 7.99967 6.96531 7.99967 7.3335ZM4.66634 8.00016C5.03453 8.00016 5.33301 7.70169 5.33301 7.3335C5.33301 6.96531 5.03453 6.66683 4.66634 6.66683C4.29815 6.66683 3.99967 6.96531 3.99967 7.3335C3.99967 7.70169 4.29815 8.00016 4.66634 8.00016ZM2.66634 7.3335C2.66634 7.70169 2.36786 8.00016 1.99967 8.00016C1.63148 8.00016 1.33301 7.70169 1.33301 7.3335C1.33301 6.96531 1.63148 6.66683 1.99967 6.66683C2.36786 6.66683 2.66634 6.96531 2.66634 7.3335Z" fill="url(#paint0_linear_6748_105225)"/>
</g>
</g>
<defs>
<filter id="filter0_d_6748_105225" x="1.33301" y="1.3335" width="9.33301" height="7.6665" filterUnits="userSpaceOnUse" color-interpolation-filters="sRGB">
<feFlood flood-opacity="0" result="BackgroundImageFix"/>
<feColorMatrix in="SourceAlpha" type="matrix" values="0 0 0 0 0 0 0 0 0 0 0 0 0 0 0 0 0 0 127 0" result="hardAlpha"/>
<feOffset dy="1"/>
<feColorMatrix type="matrix" values="0 0 0 0 0 0 0 0 0 0 0 0 0 0 0 0 0 0 0.06 0"/>
<feBlend mode="normal" in2="BackgroundImageFix" result="effect1_dropShadow_6748_105225"/>
<feBlend mode="normal" in="SourceGraphic" in2="effect1_dropShadow_6748_105225" result="shape"/>
</filter>
<linearGradient id="paint0_linear_6748_105225" x1="1.33301" y1="1.3335" x2="1.33301" y2="8.00016" gradientUnits="userSpaceOnUse">
<stop stop-color="white"/>
<stop offset="1" stop-color="#F0F0F0"/>
</linearGradient>
</defs>
</svg>
