<svg width="28" height="20" viewBox="0 0 28 20" fill="none" xmlns="http://www.w3.org/2000/svg">
<rect x="0.25" y="0.25" width="27.5" height="19.5" rx="1.75" fill="white" stroke="#F5F5F5" stroke-width="0.5"/>
<mask id="mask0_6748_105210" style="mask-type:luminance" maskUnits="userSpaceOnUse" x="0" y="0" width="28" height="20">
<rect x="0.25" y="0.25" width="27.5" height="19.5" rx="1.75" fill="white" stroke="white" stroke-width="0.5"/>
</mask>
<g mask="url(#mask0_6748_105210)">
<path fill-rule="evenodd" clip-rule="evenodd" d="M28 2.6665H13.3333V5.33317H28V2.6665ZM13.3333 7.99984V10.6665H28V7.99984H13.3333ZM13.3333 13.3332L0 13.3332V15.9998H28V13.3332H13.3333ZM0 19.9998V18.6665H28V19.9998H0Z" fill="#0E4DC5"/>
<path fill-rule="evenodd" clip-rule="evenodd" d="M6.66699 9.32136L5.77691 10.65L5.55145 9.06674L4.17303 9.87762L4.65686 8.35333L3.06312 8.48583L4.16039 7.32241L2.66699 6.7503L4.16039 6.17818L3.06312 5.01476L4.65686 5.14727L4.17303 3.62297L5.55145 4.43385L5.77691 2.85059L6.66699 4.17924L7.55708 2.85059L7.78253 4.43385L9.16095 3.62297L8.67713 5.14727L10.2709 5.01476L9.17359 6.17818L10.667 6.7503L9.17359 7.32241L10.2709 8.48583L8.67713 8.35333L9.16095 9.87762L7.78253 9.06674L7.55708 10.65L6.66699 9.32136ZM6.66699 9.29575C8.07281 9.29575 9.21245 8.15611 9.21245 6.7503C9.21245 5.34448 8.07281 4.20484 6.66699 4.20484C5.26118 4.20484 4.12154 5.34448 4.12154 6.7503C4.12154 8.15611 5.26118 9.29575 6.66699 9.29575ZM8.66699 6.66672C8.66699 7.77129 7.77156 8.66672 6.66699 8.66672C5.56242 8.66672 4.66699 7.77129 4.66699 6.66672C4.66699 5.56215 5.56242 4.66672 6.66699 4.66672C7.77156 4.66672 8.66699 5.56215 8.66699 6.66672Z" fill="#FED443"/>
</g>
</svg>
