<svg width="28" height="20" viewBox="0 0 28 20" fill="none" xmlns="http://www.w3.org/2000/svg">
<rect x="0.25" y="0.25" width="27.5" height="19.5" rx="1.75" fill="white" stroke="#F5F5F5" stroke-width="0.5"/>
<mask id="mask0_6748_105180" style="mask-type:luminance" maskUnits="userSpaceOnUse" x="0" y="0" width="28" height="20">
<rect x="0.25" y="0.25" width="27.5" height="19.5" rx="1.75" fill="white" stroke="white" stroke-width="0.5"/>
</mask>
<g mask="url(#mask0_6748_105180)">
<path fill-rule="evenodd" clip-rule="evenodd" d="M0 6.66667H28V0H0V6.66667Z" fill="#04AAC8"/>
<path fill-rule="evenodd" clip-rule="evenodd" d="M0 20.0002H28V13.3335H0V20.0002Z" fill="#23C840"/>
<path fill-rule="evenodd" clip-rule="evenodd" d="M4.66699 5.3335C5.07827 5.3335 5.46056 5.20935 5.77842 4.9965C5.74159 4.99893 5.70444 5.00016 5.66699 5.00016C4.74652 5.00016 4.00033 4.25397 4.00033 3.3335C4.00033 2.41302 4.74652 1.66683 5.66699 1.66683C5.70444 1.66683 5.74159 1.66806 5.77842 1.6705C5.46056 1.45764 5.07827 1.3335 4.66699 1.3335C3.56242 1.3335 2.66699 2.22893 2.66699 3.3335C2.66699 4.43807 3.56242 5.3335 4.66699 5.3335ZM8.00033 4.66683C8.00033 5.03502 7.70185 5.3335 7.33366 5.3335C6.96547 5.3335 6.66699 5.03502 6.66699 4.66683C6.66699 4.29864 6.96547 4.00016 7.33366 4.00016C7.70185 4.00016 8.00033 4.29864 8.00033 4.66683ZM10.0003 2.66683C10.3685 2.66683 10.667 2.36835 10.667 2.00016C10.667 1.63197 10.3685 1.3335 10.0003 1.3335C9.63214 1.3335 9.33366 1.63197 9.33366 2.00016C9.33366 2.36835 9.63214 2.66683 10.0003 2.66683ZM13.3337 2.00016C13.3337 2.36835 13.0352 2.66683 12.667 2.66683C12.2988 2.66683 12.0003 2.36835 12.0003 2.00016C12.0003 1.63197 12.2988 1.3335 12.667 1.3335C13.0352 1.3335 13.3337 1.63197 13.3337 2.00016ZM12.667 5.3335C13.0352 5.3335 13.3337 5.03502 13.3337 4.66683C13.3337 4.29864 13.0352 4.00016 12.667 4.00016C12.2988 4.00016 12.0003 4.29864 12.0003 4.66683C12.0003 5.03502 12.2988 5.3335 12.667 5.3335ZM10.667 4.66683C10.667 5.03502 10.3685 5.3335 10.0003 5.3335C9.63214 5.3335 9.33366 5.03502 9.33366 4.66683C9.33366 4.29864 9.63214 4.00016 10.0003 4.00016C10.3685 4.00016 10.667 4.29864 10.667 4.66683Z" fill="white"/>
</g>
</svg>
