<svg width="28" height="20" viewBox="0 0 28 20" fill="none" xmlns="http://www.w3.org/2000/svg">
<rect width="28" height="20" rx="2" fill="white"/>
<mask id="mask0_6748_105309" style="mask-type:luminance" maskUnits="userSpaceOnUse" x="0" y="0" width="28" height="20">
<rect width="28" height="20" rx="2" fill="white"/>
</mask>
<g mask="url(#mask0_6748_105309)">
<path fill-rule="evenodd" clip-rule="evenodd" d="M0 13.3332H28V6.6665H0V13.3332Z" fill="#063191"/>
<path fill-rule="evenodd" clip-rule="evenodd" d="M0 20.0002H28V13.3335H0V20.0002Z" fill="#E2213B"/>
<path fill-rule="evenodd" clip-rule="evenodd" d="M13.9997 9.33333C14.3679 9.33333 14.6663 9.03486 14.6663 8.66667C14.6663 8.29848 14.3679 8 13.9997 8C13.6315 8 13.333 8.29848 13.333 8.66667C13.333 9.03486 13.6315 9.33333 13.9997 9.33333ZM11.333 10C11.7012 10 11.9997 9.70152 11.9997 9.33333C11.9997 8.96514 11.7012 8.66667 11.333 8.66667C10.9648 8.66667 10.6663 8.96514 10.6663 9.33333C10.6663 9.70152 10.9648 10 11.333 10ZM17.333 9.33333C17.333 9.70152 17.0345 10 16.6663 10C16.2982 10 15.9997 9.70152 15.9997 9.33333C15.9997 8.96514 16.2982 8.66667 16.6663 8.66667C17.0345 8.66667 17.333 8.96514 17.333 9.33333ZM9.99967 12C10.3679 12 10.6663 11.7015 10.6663 11.3333C10.6663 10.9651 10.3679 10.6667 9.99967 10.6667C9.63148 10.6667 9.33301 10.9651 9.33301 11.3333C9.33301 11.7015 9.63148 12 9.99967 12ZM18.6663 11.3333C18.6663 11.7015 18.3679 12 17.9997 12C17.6315 12 17.333 11.7015 17.333 11.3333C17.333 10.9651 17.6315 10.6667 17.9997 10.6667C18.3679 10.6667 18.6663 10.9651 18.6663 11.3333Z" fill="white"/>
<path fill-rule="evenodd" clip-rule="evenodd" d="M0 6.66667H28V0H0V6.66667Z" fill="#FFD044"/>
</g>
</svg>
