<svg width="28" height="20" viewBox="0 0 28 20" fill="none" xmlns="http://www.w3.org/2000/svg">
<rect width="28" height="20" rx="2" fill="white"/>
<mask id="mask0_6748_105257" style="mask-type:luminance" maskUnits="userSpaceOnUse" x="0" y="0" width="28" height="20">
<rect width="28" height="20" rx="2" fill="white"/>
</mask>
<g mask="url(#mask0_6748_105257)">
<rect width="28" height="20" fill="#E31F37"/>
<path fill-rule="evenodd" clip-rule="evenodd" d="M-1.33301 10.6665H14.667V-1.3335H-1.33301V10.6665Z" fill="#083B9A"/>
<path fill-rule="evenodd" clip-rule="evenodd" d="M6.66709 2.6666L5.72428 2.94275L6.00043 1.99994L5.72428 1.05713L6.66709 1.33327L7.6099 1.05713L7.33376 1.99994L7.6099 2.94275L6.66709 2.6666ZM6.66709 9.33327L5.72428 9.60941L6.00043 8.6666L5.72428 7.7238L6.66709 7.99994L7.6099 7.7238L7.33376 8.6666L7.6099 9.60941L6.66709 9.33327ZM3.05762 6.27608L4.00043 5.99994L4.94324 6.27608L4.66709 5.33327L4.94324 4.39046L4.00043 4.6666L3.05762 4.39046L3.33376 5.33327L3.05762 6.27608ZM10.0004 5.33327L9.05762 5.60941L9.33376 4.6666L9.05762 3.7238L10.0004 3.99994L10.9432 3.7238L10.6671 4.6666L10.9432 5.60941L10.0004 5.33327ZM8.66709 6.99994C8.66709 7.18403 8.51785 7.33327 8.33376 7.33327C8.14966 7.33327 8.00043 7.18403 8.00043 6.99994C8.00043 6.81584 8.14966 6.6666 8.33376 6.6666C8.51785 6.6666 8.66709 6.81584 8.66709 6.99994Z" fill="white"/>
</g>
</svg>
