<svg width="28" height="20" viewBox="0 0 28 20" fill="none" xmlns="http://www.w3.org/2000/svg">
<rect width="28" height="20" rx="2" fill="white"/>
<mask id="mask0_6748_105369" style="mask-type:luminance" maskUnits="userSpaceOnUse" x="0" y="0" width="28" height="20">
<rect width="28" height="20" rx="2" fill="white"/>
</mask>
<g mask="url(#mask0_6748_105369)">
<rect width="28" height="20" fill="#19BFBF"/>
<path fill-rule="evenodd" clip-rule="evenodd" d="M14.0003 17.3332C18.0504 17.3332 21.3337 14.0499 21.3337 9.99984C21.3337 5.94975 18.0504 2.6665 14.0003 2.6665C9.95024 2.6665 6.66699 5.94975 6.66699 9.99984C6.66699 14.0499 9.95024 17.3332 14.0003 17.3332ZM19.9637 10.6665C19.7162 12.9057 18.2365 14.7735 16.2176 15.5768C16.8677 14.2528 17.2475 12.5279 17.3206 10.6665H19.9637ZM15.986 10.6665C15.8886 12.9155 15.3014 14.9033 14.3858 15.9877C14.2584 15.9957 14.1298 15.9998 14.0003 15.9998C13.8708 15.9998 13.7423 15.9957 13.6148 15.9877C12.6993 14.9033 12.112 12.9155 12.0147 10.6665H15.986ZM10.68 10.6665C10.7532 12.5279 11.1329 14.2528 11.783 15.5768C9.76419 14.7735 8.28447 12.9057 8.03694 10.6665H10.68ZM12.0147 9.33317H15.986C15.8886 7.08412 15.3014 5.09641 14.3858 4.01202C14.2584 4.00394 14.1298 3.99984 14.0003 3.99984C13.8708 3.99984 13.7423 4.00394 13.6148 4.01202C12.6993 5.09641 12.112 7.08412 12.0147 9.33317ZM11.783 4.42286C11.1329 5.74689 10.7532 7.47181 10.68 9.33317H8.03694C8.28447 7.094 9.76419 5.22621 11.783 4.42286ZM19.9637 9.33317H17.3206C17.2475 7.47181 16.8677 5.74688 16.2176 4.42286C18.2365 5.2262 19.7162 7.094 19.9637 9.33317Z" fill="white"/>
</g>
</svg>
