<svg width="28" height="20" viewBox="0 0 28 20" fill="none" xmlns="http://www.w3.org/2000/svg">
<rect width="28" height="20" rx="2" fill="#009F60"/>
<mask id="mask0_6748_105672" style="mask-type:luminance" maskUnits="userSpaceOnUse" x="0" y="0" width="28" height="20">
<rect width="28" height="20" rx="2" fill="white"/>
</mask>
<g mask="url(#mask0_6748_105672)">
<rect x="24" y="10.6665" width="4" height="9.33333" fill="#EA8B42"/>
<path fill-rule="evenodd" clip-rule="evenodd" d="M20 19.9998H24V10.6665H20V19.9998Z" fill="#1A1919"/>
<path fill-rule="evenodd" clip-rule="evenodd" d="M16 19.9998H20V10.6665H16V19.9998Z" fill="#DB3C36"/>
<path fill-rule="evenodd" clip-rule="evenodd" d="M21.0138 3.48416C20.9219 3.48674 20.8544 3.45491 20.8302 3.4014C20.98 3.31349 21.0813 3.3331 21.207 3.4451C21.2312 3.35753 21.207 3.25998 21.1539 3.20149C21.1007 3.143 21.0572 3.143 20.9848 3.13801C20.9123 3.13319 20.8398 3.11375 20.7915 3.11375C20.7207 2.95771 20.5432 3.02377 20.3728 3.08777C20.0958 3.19168 19.8469 3.38041 19.7351 3.5688C19.684 3.655 19.6779 3.68889 19.6465 3.73775C19.6724 3.73448 19.6707 3.73448 19.6868 3.72467C19.6674 3.93921 19.6417 4.1374 19.6803 4.2642C19.6321 4.44949 19.6707 4.56648 19.7286 4.62497C19.7867 4.68347 19.8107 4.7079 19.8205 4.7762C19.8301 4.84433 19.8591 4.90764 19.9074 4.94669C19.9557 4.98575 19.9847 5.04424 19.9895 5.07848C19.9943 5.11254 20.1438 5.25947 20.2069 5.29783C20.2311 5.31229 20.2359 5.34171 20.265 5.38059C20.2021 5.75117 20.4534 6.12175 20.3953 6.48734C20.4388 6.49216 20.4968 6.48734 20.5549 6.47272C20.6031 6.78463 20.632 6.93586 20.3615 7.02841C20.091 7.12115 19.9431 7.21233 20.0185 7.31607C20.0716 7.38919 20.1817 7.32553 20.2504 7.26239C20.3036 7.21371 20.3663 7.16983 20.4147 7.15521C20.463 7.14059 20.4728 7.15521 20.4484 7.21852C20.4243 7.28201 20.294 7.41844 20.289 7.48674C20.2842 7.55504 20.3421 7.60373 20.434 7.55005C20.5257 7.49637 20.6065 7.35599 20.6272 7.2722C20.6416 7.21371 20.666 7.17465 20.661 7.2722C20.6562 7.36975 20.5983 7.54523 20.7287 7.57448C20.8592 7.60373 20.8979 7.44768 20.8544 7.30626C20.8108 7.16502 20.7964 7.08691 20.8156 7.03822C20.835 6.98936 20.8544 6.96029 20.9025 6.97474C20.9509 6.98936 21.0476 6.96992 21.0428 6.89198C21.0378 6.81405 20.9703 6.75057 20.8929 6.79444C20.8156 6.83831 20.7577 6.83177 20.7915 6.73594C20.8156 6.66764 20.8592 6.58472 20.864 6.53121C20.9171 6.60915 21.2166 6.61895 21.3375 6.54583C21.3664 6.69207 21.4437 6.82368 21.2747 6.96029C21.1055 7.09672 20.9703 7.22833 20.9751 7.32588C20.98 7.42343 21.0186 7.48175 21.1055 7.43306C21.1924 7.38437 21.2456 7.31607 21.2649 7.25276C21.2843 7.18928 21.3231 7.18928 21.3037 7.26738C21.2843 7.34532 21.2505 7.45749 21.2649 7.52579C21.2795 7.59392 21.3858 7.59891 21.4292 7.53543C21.4727 7.47211 21.4629 7.38919 21.4533 7.30626C21.4437 7.22334 21.4583 7.13577 21.4775 7.10153C21.4969 7.06747 21.5355 7.01861 21.5742 7.11134C21.6129 7.2039 21.6321 7.27702 21.7095 7.30145C21.7868 7.32588 21.8447 7.29164 21.8303 7.19908C21.8157 7.10652 21.7143 7.00398 21.6129 6.92605C21.5115 6.84811 21.5452 6.80906 21.55 6.73594C21.5548 6.66282 21.5404 6.53121 21.5355 6.47272C21.6273 6.54102 21.7288 6.53121 21.777 6.53121C21.8253 6.53121 21.9047 6.51624 21.8253 6.44347C21.6659 6.29723 21.7191 6.20932 21.608 6.10214C21.4969 5.99495 21.3954 5.8291 21.3616 5.68786C21.3277 5.54644 21.2533 5.28803 21.1055 5.15641C21.0234 5.0833 20.9992 4.88338 21.0186 4.65422C21.0378 4.42506 21.0428 4.17164 20.835 4.05465C20.6272 3.93766 20.632 3.84011 20.6997 3.73775C20.7673 3.63538 20.8542 3.53525 20.9655 3.52803C20.9905 3.52648 21.0483 3.52166 21.0717 3.50446C21.0613 3.49637 21.0443 3.48347 21.0138 3.48416Z" fill="#EA8B42"/>
<path fill-rule="evenodd" clip-rule="evenodd" d="M19.6627 4.01066C19.6575 4.10976 19.6599 4.19698 19.6803 4.26408C19.6322 4.44937 19.6707 4.56636 19.7287 4.62486C19.7868 4.68335 19.8108 4.70778 19.8206 4.77608C19.8302 4.84421 19.8591 4.90752 19.9075 4.94658C19.9558 4.98563 19.9848 5.04412 19.9896 5.07836C19.9944 5.11243 20.1439 5.25935 20.207 5.29772C20.2311 5.31217 20.2359 5.34159 20.2651 5.38047C20.2388 5.53445 20.2664 5.68843 20.3042 5.84206C19.9627 6.128 19.6256 5.99311 19.7674 5.70064C19.4839 5.92808 18.9944 5.92172 19.104 5.70064C18.6595 5.85668 18.5242 5.72662 18.5822 5.58365C18.2086 5.73316 18.0152 5.59019 18.0668 5.4861C17.7576 5.57058 17.5579 5.51862 17.5256 5.46666C17.4936 5.4147 17.5707 5.29772 17.6417 5.23922C17.4999 5.29118 17.3647 5.29118 17.2358 5.27174C17.107 5.25212 17.1392 5.21307 17.165 5.15458C17.1908 5.09608 17.2246 5.00352 17.3276 4.91251C17.0813 4.9612 16.772 4.99544 16.5547 4.92215C16.5137 4.90838 16.4436 4.8929 16.487 4.8492C16.5305 4.80533 16.661 4.69797 16.8204 4.62967C16.458 4.68335 15.7719 4.7224 15.5787 4.50305C15.7671 4.54193 16.0087 4.464 16.1633 4.40068C15.5546 4.33238 14.7236 3.91311 14.7139 3.50365C14.8879 3.78632 15.1875 3.88387 15.487 3.97161C15.0811 3.73264 14.912 3.44498 14.8976 3.25488C15.1294 3.47922 15.482 3.73264 15.83 3.79131C15.5835 3.65969 15.2647 3.27449 15.1778 3.00627C15.3566 3.16713 15.8155 3.42554 16.1295 3.50847C15.9122 3.3378 15.5595 2.93316 15.5787 2.70898C15.6608 2.79191 15.8638 2.94778 16.2792 3.19157C16.6947 3.43535 16.9202 3.41746 17.2632 3.49058C17.2004 3.4061 17.144 3.29393 17.1392 3.26468C17.2407 3.27931 17.3372 3.31836 17.6271 3.49866C17.917 3.67913 18.5504 3.73436 18.9123 3.89367C19.1779 4.01066 19.5564 3.93754 19.6627 4.01066Z" fill="#EA8B42"/>
<path fill-rule="evenodd" clip-rule="evenodd" d="M21.8491 6.51453C21.8651 6.5018 21.8651 6.47977 21.8253 6.44347C21.6659 6.29724 21.719 6.20932 21.6079 6.10214C21.4969 5.99496 21.3954 5.82911 21.3616 5.68786C21.3277 5.54644 21.2533 5.28803 21.1055 5.15642C21.0234 5.0833 20.9992 4.88339 21.0186 4.65423C21.035 4.4581 21.041 4.24425 20.9121 4.11332C21.1537 4.04502 21.3762 4.03023 21.4533 4.10816C21.8543 4.0058 22.2023 3.97483 22.5436 3.95229C22.9365 3.92614 23.6773 3.75719 24.2056 3.39969C24.1734 3.52975 23.993 3.72468 23.8319 3.82223C24.3666 3.69216 25.0108 3.45165 25.5583 3.04218C25.5518 3.32829 25.3201 3.54266 25.1846 3.65982C25.5583 3.45165 26.1057 3.19169 26.2926 2.8667C26.3747 3.19977 25.816 3.63539 25.5131 3.8759C25.8223 3.7264 26.2218 3.58825 26.3764 3.36717C26.3731 3.63694 26.0221 3.97173 25.6871 4.16666C26.0286 4.03676 26.4086 3.90016 26.6275 3.6987C26.6533 3.97018 25.6065 4.59418 25.0879 4.76468C25.539 4.65423 26.1251 4.50472 26.3827 4.34868C26.3699 4.4039 26.2648 4.48132 26.1883 4.53775C25.8733 4.7707 25.39 4.89577 25.0945 4.95324C25.1332 5.11582 25.0816 5.20683 24.9013 5.21973C24.7209 5.23281 24.2845 5.16296 24.0655 5.05233C24.0333 5.07177 23.9946 5.07848 23.951 5.0833C24.1636 5.24416 24.2361 5.36115 24.1926 5.42945C24.1492 5.49775 23.997 5.48537 23.8811 5.46111C23.9728 5.71952 23.6659 5.70248 23.41 5.55608C23.5115 5.68786 23.5261 5.79986 23.3858 5.82911C23.2458 5.85836 23.1345 5.84872 22.9993 5.76081C22.9897 5.85836 22.8962 5.92339 22.7723 5.89087C23.1974 6.14928 23.1733 6.24356 23.1007 6.34094C23.0284 6.43848 22.7747 6.41904 22.6394 6.3313C22.5815 6.53122 22.3504 6.5319 22.1779 6.37276C22.1764 6.45242 22.0118 6.61053 21.8491 6.51453Z" fill="#EA8B42"/>
<path fill-rule="evenodd" clip-rule="evenodd" d="M19.8768 7.49489C19.8839 7.4333 19.8897 7.36173 19.9411 7.31614C19.9927 7.27055 20.025 7.23167 20.07 7.27709C20.1151 7.32268 20.0862 7.365 20.025 7.38444C19.9638 7.40388 19.9219 7.45911 19.9122 7.49489C19.9026 7.53068 19.8703 7.55012 19.8768 7.49489Z" fill="black"/>
<path fill-rule="evenodd" clip-rule="evenodd" d="M20.2281 7.79393C20.1962 7.69174 20.2122 7.55995 20.2475 7.5209C20.283 7.48185 20.3281 7.45587 20.3699 7.49492C20.4117 7.53397 20.4278 7.5892 20.3505 7.62172C20.2821 7.65045 20.2765 7.72236 20.2734 7.77449C20.2701 7.82645 20.2475 7.8557 20.2281 7.79393Z" fill="black"/>
<path fill-rule="evenodd" clip-rule="evenodd" d="M20.6792 7.53031C20.6543 7.57212 20.6855 7.74158 20.7694 7.78373C20.8287 7.81367 20.8563 7.80661 20.8208 7.75121C20.7855 7.69599 20.7983 7.64403 20.8177 7.61478C20.8369 7.58554 20.8338 7.53358 20.7918 7.5076C20.75 7.48145 20.6984 7.4978 20.6792 7.53031Z" fill="black"/>
<path fill-rule="evenodd" clip-rule="evenodd" d="M21.0432 7.37756C20.9901 7.3373 20.9402 7.38565 20.9208 7.41971C20.8821 7.48801 20.9112 7.58556 20.9724 7.64079C21.0336 7.69601 21.0239 7.62135 21.0045 7.58883C20.9853 7.55631 20.982 7.49128 21.0239 7.48474C21.0657 7.47838 21.0948 7.41644 21.0432 7.37756Z" fill="black"/>
<path fill-rule="evenodd" clip-rule="evenodd" d="M21.3453 7.48796C21.2935 7.47265 21.2422 7.52701 21.2486 7.59205C21.2534 7.64056 21.2584 7.7025 21.3065 7.73501C21.3389 7.75669 21.3614 7.7708 21.3453 7.7123C21.3292 7.65381 21.355 7.60495 21.3838 7.58878C21.4128 7.5726 21.4 7.5043 21.3453 7.48796Z" fill="black"/>
<path fill-rule="evenodd" clip-rule="evenodd" d="M21.7745 7.21174C21.7369 7.23824 21.739 7.29966 21.7745 7.32237C21.8098 7.34507 21.8614 7.37759 21.8518 7.43282C21.842 7.48804 21.871 7.50766 21.8969 7.44589C21.9226 7.38413 21.9258 7.29312 21.8969 7.2508C21.8677 7.20847 21.8065 7.18903 21.7745 7.21174Z" fill="black"/>
<path fill-rule="evenodd" clip-rule="evenodd" d="M20.8402 3.3966C20.8626 3.4462 20.9268 3.47549 21.0137 3.47305L21.0138 3.47304C21.0414 3.47242 21.0581 3.47983 21.0783 3.51278C21.057 3.52834 21.017 3.53526 20.9664 3.53839C20.874 3.54439 20.7934 3.61526 20.7089 3.74333C20.6328 3.85837 20.6594 3.94298 20.8405 4.04491C21.0204 4.14621 21.0573 4.32266 21.0295 4.65477C21.0091 4.89608 21.0385 5.08179 21.1128 5.14801C21.2359 5.25761 21.3151 5.44698 21.3723 5.68498C21.4049 5.82131 21.5035 5.98587 21.6156 6.09402C21.642 6.11944 21.6608 6.14506 21.6759 6.17431C21.6845 6.19113 21.6908 6.20632 21.7011 6.23357C21.7364 6.32763 21.7603 6.36865 21.8328 6.43517C21.873 6.47203 21.8808 6.50269 21.856 6.52266C21.8396 6.53582 21.8101 6.5416 21.7772 6.5416L21.7594 6.54184C21.6814 6.54328 21.6312 6.53688 21.5734 6.50811C21.5649 6.50386 21.5566 6.49918 21.5484 6.49406L21.5533 6.5483C21.5554 6.57244 21.5571 6.59388 21.5585 6.61426C21.5619 6.66542 21.5629 6.70627 21.5609 6.73629C21.5602 6.74766 21.5589 6.75756 21.5565 6.77316C21.552 6.80198 21.5511 6.80987 21.552 6.82241C21.5541 6.85315 21.5723 6.88074 21.6197 6.91715C21.7438 7.01266 21.8276 7.11135 21.8411 7.19706C21.8561 7.29338 21.7957 7.33953 21.7065 7.31134C21.6518 7.29408 21.6237 7.25834 21.5913 7.18086C21.5895 7.17658 21.5848 7.16504 21.5798 7.15259C21.5738 7.13787 21.5674 7.12189 21.5645 7.11513C21.5487 7.07734 21.5344 7.06521 21.5218 7.06886C21.5109 7.07199 21.4988 7.0858 21.4871 7.10644C21.4672 7.14191 21.4555 7.22978 21.4642 7.30466L21.4643 7.30546C21.479 7.43211 21.4764 7.48559 21.4382 7.54114C21.3898 7.61208 21.2714 7.60568 21.2547 7.52765C21.2471 7.49151 21.2513 7.44376 21.2649 7.38039C21.2687 7.36295 21.273 7.34488 21.2786 7.32267L21.2935 7.26442C21.301 7.23437 21.2989 7.21753 21.2971 7.21718C21.2941 7.21661 21.283 7.23074 21.2754 7.25555C21.2537 7.32642 21.1951 7.39493 21.111 7.44209C21.0221 7.49184 20.9704 7.44122 20.9646 7.32604C20.9601 7.23428 21.0617 7.11803 21.2682 6.95155C21.3083 6.91915 21.3353 6.88624 21.3512 6.85178C21.3802 6.78939 21.376 6.74147 21.3442 6.61906C21.3376 6.59387 21.3335 6.57744 21.3302 6.56194C21.2081 6.62446 20.9527 6.6191 20.8715 6.55392C20.866 6.57958 20.854 6.6109 20.83 6.6682L20.8299 6.66849C20.8148 6.70446 20.8084 6.72051 20.8018 6.73916C20.7874 6.7799 20.7905 6.8014 20.8048 6.80725C20.8203 6.81359 20.8508 6.80575 20.8879 6.78471C20.9677 6.73941 21.0478 6.79873 21.0537 6.89096C21.0584 6.96731 20.9693 7.00573 20.8997 6.98468C20.8635 6.97383 20.8471 6.98817 20.8258 7.04181C20.8087 7.08511 20.8196 7.15618 20.8648 7.30273C20.9152 7.46628 20.8579 7.61405 20.7266 7.58461C20.6462 7.56659 20.6252 7.50285 20.6364 7.39134C20.6378 7.37752 20.6395 7.36431 20.6423 7.3437C20.6484 7.29862 20.6497 7.28835 20.6505 7.27129C20.6513 7.25558 20.6514 7.2432 20.6507 7.23424C20.6466 7.24387 20.6418 7.25831 20.6378 7.27443C20.613 7.3746 20.525 7.50902 20.4396 7.55898C20.3479 7.61254 20.2725 7.57093 20.2785 7.48559C20.2808 7.45421 20.3032 7.41417 20.3493 7.34939L20.3621 7.33158C20.4205 7.25078 20.4302 7.23655 20.4386 7.21429C20.4599 7.15903 20.4568 7.15341 20.418 7.16514C20.3744 7.17833 20.3141 7.21841 20.2579 7.26996C20.1624 7.35767 20.0612 7.39239 20.01 7.32205C19.9696 7.26637 19.9863 7.21143 20.054 7.15923C20.1135 7.11329 20.2138 7.06741 20.3583 7.01787C20.5872 6.93953 20.6048 6.86415 20.5577 6.48278C20.4995 6.49742 20.4401 6.50273 20.3849 6.48528C20.4086 6.33616 20.39 6.2163 20.3193 5.94243C20.2469 5.66229 20.2279 5.53608 20.2567 5.38669C20.2491 5.37666 20.2428 5.36683 20.2363 5.35542L20.2224 5.33047C20.2152 5.31811 20.2094 5.31137 20.2015 5.30667C20.1329 5.26491 19.9843 5.11658 19.9791 5.07961C19.9739 5.0423 19.9423 4.98812 19.9009 4.95471C19.8523 4.91542 19.8205 4.85139 19.8101 4.77736C19.8018 4.71957 19.7896 4.701 19.7212 4.63219C19.6497 4.56004 19.6261 4.43026 19.6702 4.26698C19.6404 4.16908 19.6432 4.0748 19.671 3.78066L19.6745 3.74331C19.6713 3.74442 19.6679 3.74521 19.6634 3.74595L19.648 3.74805L19.6377 3.73156C19.6441 3.72162 19.6497 3.71191 19.6552 3.70129C19.6575 3.69675 19.6586 3.69446 19.6598 3.69216C19.6609 3.68982 19.6621 3.68747 19.6644 3.68274C19.6624 3.68676 19.6816 3.64585 19.6882 3.63259C19.6992 3.61024 19.7112 3.58811 19.7261 3.56294C19.8396 3.37163 20.0911 3.1817 20.3693 3.07734C20.633 2.97831 20.7389 2.97118 20.7917 3.10263C20.815 3.10263 20.8267 3.10426 20.8953 3.11544C20.9345 3.12183 20.9596 3.12518 20.9858 3.12692L21.0023 3.12803C21.0641 3.1322 21.0899 3.13772 21.1213 3.15823C21.135 3.16723 21.1484 3.1789 21.162 3.19388C21.219 3.25666 21.2421 3.35857 21.2175 3.44761L21.2001 3.45278C21.0737 3.34014 20.9772 3.32736 20.8402 3.3966ZM21.0654 3.51261C21.0486 3.49958 21.0361 3.49405 21.0143 3.49454L21.0143 3.49454C20.9196 3.4972 20.8472 3.46417 20.825 3.39176C20.9696 3.30692 21.074 3.31722 21.2009 3.42501C21.1998 3.43067 21.1984 3.4363 21.1969 3.44187L21.2143 3.4367C21.2098 3.43268 21.2053 3.42879 21.2009 3.42501C21.2165 3.34724 21.1946 3.26173 21.1462 3.20837C21.1337 3.19468 21.1217 3.18419 21.1096 3.17624C21.0822 3.15835 21.0592 3.15342 21.0009 3.14949L20.9843 3.14837C20.9573 3.14658 20.9317 3.14316 20.8918 3.13666C20.8794 3.13464 20.8689 3.13293 20.8598 3.13146C20.8199 3.125 20.8074 3.12297 20.7819 3.11784C20.7267 2.99603 20.6295 3.00257 20.3768 3.09748C20.1028 3.20025 19.8553 3.38721 19.7445 3.57394C19.7299 3.59863 19.7182 3.62029 19.7074 3.64216C19.7009 3.65517 19.6819 3.69586 19.6837 3.69202C19.6814 3.69684 19.6802 3.69925 19.679 3.70165C19.6778 3.70405 19.6766 3.70644 19.6742 3.71122C19.6721 3.71518 19.6701 3.71902 19.6679 3.7228C19.666 3.72356 19.6637 3.72411 19.6599 3.72473L19.6454 3.72672L19.6557 3.74321C19.6601 3.73641 19.6641 3.72971 19.6679 3.7228C19.6683 3.72264 19.6687 3.72248 19.6691 3.72231C19.6713 3.72132 19.6733 3.72016 19.6814 3.71512L19.6977 3.72528L19.6923 3.78269C19.6649 4.07313 19.6621 4.16677 19.6908 4.26655C19.6486 4.42887 19.6708 4.55082 19.7364 4.61702C19.8077 4.68883 19.8222 4.71076 19.8313 4.77433C19.841 4.84333 19.8703 4.90239 19.9143 4.93796C19.9599 4.97473 19.9943 5.03379 20.0003 5.07661C20.0043 5.10507 20.1492 5.24967 20.2126 5.28823C20.2241 5.2951 20.232 5.30438 20.2409 5.31958C20.2423 5.32202 20.246 5.32871 20.2493 5.33468C20.2517 5.33906 20.2539 5.34306 20.2549 5.34471C20.2565 5.34753 20.2581 5.35024 20.2597 5.35302C20.2643 5.36079 20.2692 5.36913 20.2758 5.38203C20.2497 5.53566 20.2684 5.65984 20.34 5.93704C20.4115 6.21381 20.4304 6.33558 20.3967 6.47629C20.4364 6.48068 20.4878 6.47671 20.5496 6.47195C20.5549 6.47154 20.5602 6.47112 20.5657 6.47071C20.6274 6.87012 20.6076 6.9553 20.3652 7.03823C20.2228 7.08705 20.1242 7.13213 20.067 7.17627C20.0076 7.22209 19.9947 7.26449 20.0274 7.30937C20.0674 7.36453 20.1564 7.33401 20.2434 7.25409C20.3019 7.20055 20.3645 7.15885 20.4118 7.14455C20.471 7.12662 20.4854 7.15236 20.4587 7.222C20.4491 7.24696 20.4399 7.26054 20.3794 7.34421L20.3667 7.36189C20.3232 7.42302 20.3018 7.4614 20.2999 7.48713C20.2952 7.55451 20.3515 7.58559 20.4288 7.5404C20.5087 7.49364 20.5935 7.36416 20.617 7.26926C20.6252 7.23626 20.6354 7.21129 20.6456 7.20439C20.6582 7.19591 20.6676 7.20532 20.6706 7.22036C20.6727 7.23107 20.6731 7.24825 20.6719 7.27237C20.671 7.29032 20.6698 7.30074 20.6635 7.34661C20.6607 7.367 20.6591 7.38 20.6577 7.3935C20.6475 7.49544 20.6651 7.54878 20.7313 7.56362C20.8409 7.58819 20.8907 7.4596 20.8444 7.30908C20.7976 7.15757 20.7863 7.08359 20.8059 7.03388C20.8307 6.97118 20.8561 6.94914 20.9059 6.96408C20.9632 6.98144 21.0359 6.95012 21.0323 6.89231C21.0273 6.81453 20.9629 6.76683 20.8984 6.80343C20.8561 6.82743 20.8201 6.83671 20.7967 6.82717C20.7686 6.81571 20.7639 6.78216 20.7816 6.73198C20.7884 6.71279 20.7949 6.69651 20.8102 6.66015L20.8103 6.65987C20.8404 6.5879 20.851 6.55801 20.8535 6.52988L20.873 6.52477C20.9225 6.59734 21.2159 6.60661 21.3321 6.53626L21.3482 6.54337C21.3521 6.56338 21.3564 6.58103 21.3649 6.61363C21.398 6.74087 21.4025 6.79228 21.3707 6.86086C21.3532 6.89848 21.3242 6.93394 21.2816 6.96831C21.0814 7.12976 20.982 7.24344 20.986 7.32496C20.9912 7.42654 21.0288 7.46345 21.1005 7.42331C21.1801 7.37875 21.2349 7.31458 21.2549 7.24925C21.2654 7.21486 21.2829 7.19262 21.301 7.19604C21.3211 7.19983 21.3246 7.22827 21.3143 7.26962L21.2994 7.32796C21.2938 7.34994 21.2896 7.36778 21.2859 7.38493C21.2728 7.44553 21.2688 7.49083 21.2756 7.52317C21.2879 7.58067 21.3818 7.58574 21.4206 7.52895C21.4547 7.47935 21.4571 7.42924 21.443 7.30794L21.4429 7.30714C21.4338 7.22812 21.446 7.13583 21.4684 7.09584C21.4828 7.07049 21.4978 7.05339 21.5158 7.04819C21.5418 7.04071 21.5648 7.06022 21.5843 7.10681C21.5872 7.11372 21.5938 7.12995 21.5998 7.14475C21.6047 7.15706 21.6093 7.16838 21.6111 7.17254C21.6412 7.24473 21.6658 7.27596 21.7129 7.29083C21.7876 7.31443 21.8324 7.28021 21.8199 7.2004C21.8076 7.12184 21.7267 7.02658 21.6066 6.93423C21.5548 6.89439 21.5332 6.86162 21.5306 6.8239C21.5296 6.8091 21.5305 6.80045 21.5353 6.76983C21.5377 6.75481 21.5389 6.74545 21.5396 6.73487C21.5414 6.70603 21.5404 6.66598 21.5371 6.6157C21.5357 6.59548 21.5341 6.57419 21.532 6.55018L21.525 6.47327L21.5421 6.46371C21.5551 6.47344 21.5688 6.48178 21.5829 6.48884C21.6368 6.51568 21.6842 6.52172 21.759 6.52034L21.7772 6.52009C21.8055 6.52009 21.8311 6.51509 21.8426 6.50588C21.8543 6.49643 21.8502 6.48027 21.8183 6.45104C21.7429 6.38183 21.7175 6.3381 21.681 6.24116C21.6711 6.21464 21.665 6.20007 21.6568 6.18419C21.6428 6.157 21.6254 6.13328 21.6008 6.10952C21.4858 5.99862 21.385 5.83049 21.3514 5.69001C21.2953 5.45612 21.2173 5.26983 21.0986 5.16409C21.0174 5.09181 20.9872 4.90069 21.0081 4.65296C21.0353 4.32878 20.9998 4.15929 20.83 4.06367C20.6386 3.95592 20.6076 3.8575 20.691 3.73145C20.7789 3.59824 20.864 3.52349 20.965 3.51693C20.9795 3.51603 20.9933 3.51476 21.0058 3.5136C21.0329 3.51108 21.0543 3.5091 21.0654 3.51261Z" fill="black"/>
<path fill-rule="evenodd" clip-rule="evenodd" d="M19.4017 3.9596C19.5668 3.96543 19.6269 3.97283 19.6687 4.00156L19.6733 4.01099C19.6676 4.12129 19.6723 4.20067 19.6907 4.26656C19.6485 4.42888 19.6706 4.55083 19.7362 4.61703C19.8076 4.68884 19.822 4.71077 19.8311 4.77434C19.8409 4.84334 19.8701 4.9024 19.9142 4.93797C19.9597 4.97474 19.9942 5.0338 20.0002 5.07662C20.0042 5.10508 20.149 5.24968 20.2124 5.28824C20.2239 5.29511 20.2318 5.30439 20.2407 5.31959C20.2421 5.32203 20.2458 5.32872 20.2491 5.33469C20.2515 5.33907 20.2538 5.34307 20.2547 5.34473C20.2563 5.34754 20.2579 5.35024 20.2595 5.35302C20.2641 5.36079 20.269 5.36913 20.2756 5.38205C20.253 5.51465 20.2674 5.64713 20.311 5.85008C20.1494 5.98542 19.9747 6.0373 19.8513 5.99828C19.7395 5.96291 19.6955 5.86054 19.7419 5.73302C19.6103 5.82595 19.4356 5.88017 19.2882 5.87935C19.1364 5.87852 19.0507 5.81784 19.0848 5.71835C18.7181 5.84148 18.514 5.77174 18.5643 5.60183C18.2608 5.71503 18.0093 5.63651 18.049 5.50169C17.7885 5.56855 17.5617 5.54494 17.5165 5.47209C17.4884 5.42648 17.5321 5.33432 17.5986 5.26449C17.4835 5.29831 17.3661 5.30204 17.2341 5.28214C17.172 5.27267 17.1411 5.25806 17.1329 5.23316C17.1266 5.21416 17.1285 5.20841 17.1522 5.15661L17.1551 5.14998C17.1551 5.15016 17.1706 5.11427 17.1759 5.10255C17.1853 5.08202 17.1945 5.06376 17.2049 5.04558C17.2286 5.00415 17.2571 4.96601 17.2933 4.92983C16.9919 4.98623 16.7348 4.99399 16.5512 4.93211L16.5237 4.92324C16.4981 4.91474 16.4824 4.90732 16.4723 4.89684C16.4572 4.88107 16.4595 4.86134 16.4793 4.84138C16.5379 4.78232 16.6416 4.70642 16.7518 4.64989C16.2287 4.71883 15.7282 4.68876 15.5707 4.50994L15.5809 4.49228C15.7276 4.52257 15.9164 4.48508 16.1203 4.406C15.4525 4.31682 14.7122 3.88186 14.7031 3.50368L14.723 3.49777C14.8584 3.71785 15.0392 3.82258 15.4117 3.93754C15.0892 3.729 14.9032 3.46991 14.8869 3.25546L14.905 3.2469C15.1684 3.50186 15.4822 3.70092 15.7703 3.76809C15.5317 3.61286 15.2492 3.26145 15.1675 3.00937L15.1849 2.99804C15.3669 3.1618 15.7892 3.39312 16.0819 3.48339C15.8154 3.25953 15.5517 2.89781 15.568 2.70783L15.5863 2.70117C15.6881 2.80399 15.9218 2.96915 16.2846 3.18205C16.5093 3.31391 16.6806 3.37445 16.9062 3.41613C16.9381 3.42202 16.9689 3.42728 17.0175 3.43525C17.1374 3.45489 17.1816 3.46245 17.2384 3.47416C17.1858 3.39813 17.134 3.29885 17.1286 3.2662L17.1407 3.25381C17.2534 3.27005 17.3612 3.32039 17.6327 3.48929C17.7636 3.57076 17.9236 3.61863 18.3117 3.70893L18.3296 3.7131C18.6429 3.786 18.7821 3.82437 18.9166 3.88359C18.9868 3.91452 19.0688 3.93385 19.1666 3.94512C19.2327 3.95274 19.2806 3.95532 19.4017 3.9596ZM19.6516 4.01609C19.6517 4.01402 19.6518 4.01195 19.6519 4.00987L19.6566 4.0193C19.655 4.01819 19.6533 4.01712 19.6516 4.01609ZM15.6105 4.51912C15.7665 4.54021 15.9602 4.4952 16.1673 4.41041L16.1645 4.38976C15.5213 4.31761 14.7921 3.90818 14.7289 3.54644C14.875 3.76129 15.076 3.86218 15.484 3.9817L15.4924 3.9621C15.1481 3.75945 14.9433 3.49909 14.9115 3.28283C15.1923 3.54873 15.5265 3.75082 15.8282 3.80168L15.835 3.78158C15.603 3.65771 15.3036 3.30413 15.2014 3.0406C15.4114 3.21409 15.8456 3.4444 16.1268 3.51863L16.1361 3.49977C15.8728 3.29308 15.5964 2.9305 15.5889 2.73367C15.7001 2.83872 15.9291 2.99832 16.2737 3.20061C16.5008 3.3338 16.6744 3.39517 16.9023 3.43728C16.9344 3.44321 16.9654 3.44849 17.0141 3.45647C17.1518 3.47904 17.1893 3.4856 17.2609 3.50086L17.2717 3.48392C17.2228 3.41803 17.1697 3.32169 17.154 3.27771C17.2576 3.29603 17.3657 3.34851 17.6214 3.50757C17.7552 3.59081 17.916 3.63894 18.3068 3.72988L18.3247 3.73405C18.6366 3.80662 18.7751 3.8448 18.908 3.90329C18.9804 3.93519 19.0644 3.95499 19.1641 3.96648C19.2311 3.97419 19.2792 3.9768 19.4009 3.98109C19.5534 3.98647 19.6145 3.99341 19.6516 4.01609C19.6463 4.12547 19.6512 4.20516 19.67 4.26699C19.626 4.43027 19.6496 4.56005 19.721 4.6322C19.7894 4.70101 19.8016 4.71958 19.8099 4.77738C19.8203 4.85141 19.8521 4.91543 19.9007 4.95472C19.9421 4.98813 19.9737 5.04231 19.9789 5.07963C19.9841 5.1166 20.1327 5.26493 20.2014 5.30668C20.2092 5.31138 20.215 5.31812 20.2222 5.33048L20.2361 5.35543C20.2426 5.36684 20.249 5.37667 20.2565 5.3867C20.2313 5.51459 20.2459 5.64964 20.2937 5.8444C20.1408 5.9646 19.9734 6.01433 19.8577 5.97776C19.7484 5.94319 19.7123 5.83852 19.777 5.70511L19.7607 5.69201C19.6304 5.79651 19.4433 5.8587 19.2883 5.85785C19.1385 5.85702 19.0669 5.7993 19.1135 5.70519L19.1004 5.69026C18.7174 5.82473 18.5252 5.75247 18.592 5.58747L18.5782 5.57343C18.2641 5.69914 18.015 5.61459 18.0764 5.49066L18.064 5.47549C17.8031 5.54675 17.5744 5.52471 17.5347 5.46075C17.5096 5.42012 17.5706 5.3115 17.6485 5.2473L17.638 5.22889C17.5113 5.27531 17.3838 5.28297 17.2373 5.26087C17.1826 5.25254 17.158 5.24089 17.1532 5.22636C17.1496 5.21544 17.1517 5.20941 17.1716 5.16555L17.1747 5.15868C17.2294 5.03516 17.2497 4.99972 17.3219 4.93201L17.3347 4.92035L17.3255 4.90173C17.0118 4.96373 16.7445 4.97457 16.558 4.91172L16.5305 4.90283C16.5081 4.89542 16.4946 4.88902 16.4878 4.88194C16.4815 4.87542 16.4823 4.86886 16.4945 4.85655C16.5626 4.78796 16.6944 4.6951 16.8246 4.63933L16.8188 4.6188C16.3035 4.69512 15.7928 4.67645 15.6105 4.51912ZM15.6105 4.51912C15.6018 4.51163 15.5939 4.50382 15.5867 4.49569L15.5765 4.51335C15.5876 4.51564 15.599 4.51756 15.6105 4.51912ZM17.154 3.27771C17.1519 3.27164 17.1504 3.26656 17.1498 3.2627L17.1377 3.27509C17.1431 3.27588 17.1486 3.27675 17.154 3.27771ZM15.5889 2.73367C15.5886 2.72537 15.5887 2.71736 15.5894 2.70967L15.5711 2.71633C15.5766 2.72193 15.5826 2.72771 15.5889 2.73367ZM15.2014 3.0406C15.1964 3.02774 15.1919 3.0151 15.1879 3.00272L15.1706 3.01405C15.1802 3.02272 15.1905 3.03158 15.2014 3.0406ZM14.9115 3.28283C14.9101 3.27307 14.909 3.2634 14.9083 3.25383L14.8902 3.26238C14.8973 3.26924 14.9044 3.27606 14.9115 3.28283ZM14.7289 3.54644C14.7264 3.53193 14.7249 3.51749 14.7245 3.50316L14.7047 3.50907C14.7126 3.5219 14.7207 3.53435 14.7289 3.54644Z" fill="black"/>
<path fill-rule="evenodd" clip-rule="evenodd" d="M21.844 6.52331L21.8427 6.50563C21.8544 6.49629 21.8503 6.48006 21.8184 6.45093C21.7429 6.38171 21.7175 6.33799 21.681 6.24104C21.6711 6.21452 21.665 6.19995 21.6568 6.18407C21.6428 6.15688 21.6254 6.13316 21.6008 6.10941C21.4858 5.99851 21.385 5.83037 21.3515 5.68989C21.2953 5.45601 21.2174 5.26971 21.0986 5.16398C21.0175 5.09169 20.9872 4.90057 21.0082 4.65284C21.0107 4.62238 21.0127 4.59343 21.0142 4.56587L21.021 4.56958L21.0209 4.57039L21.0221 4.57015L21.035 4.57682C21.0336 4.60166 21.0318 4.62758 21.0295 4.65465C21.0091 4.89596 21.0385 5.08167 21.1129 5.14789C21.2359 5.25749 21.3152 5.44686 21.3723 5.68487C21.4049 5.82119 21.5035 5.98575 21.6156 6.0939C21.642 6.11932 21.6608 6.14495 21.6759 6.17419C21.6845 6.19102 21.6909 6.2062 21.7011 6.23345C21.7364 6.32752 21.7603 6.36853 21.8328 6.43503C21.866 6.46532 21.8772 6.49154 21.8662 6.51095C21.8624 6.50904 21.8586 6.50698 21.8548 6.50477L21.8561 6.52246C21.8605 6.51895 21.8638 6.51511 21.8662 6.51095C21.9961 6.57597 22.1656 6.47021 22.1675 6.37207L22.1855 6.36436C22.3596 6.52505 22.5761 6.51188 22.6294 6.32781L22.6455 6.32179C22.7841 6.4117 23.0275 6.4216 23.0924 6.33401C23.1819 6.21389 23.1293 6.11978 22.767 5.89958L22.7753 5.87998C22.8885 5.90968 22.9795 5.85423 22.9889 5.75926L23.0054 5.7513C23.1302 5.83248 23.2359 5.84901 23.3839 5.81809C23.5053 5.79278 23.5076 5.69961 23.4018 5.56217L23.4156 5.54625C23.5427 5.61898 23.6811 5.65863 23.7751 5.64921C23.8743 5.63927 23.9117 5.57821 23.8713 5.46423L23.8835 5.4501C24.0321 5.4812 24.1501 5.4763 24.1838 5.42317C24.2245 5.35934 24.1461 5.24368 23.9448 5.0914L23.9501 5.07213C24.0027 5.06632 24.0337 5.05869 24.0706 5.04224C24.2697 5.14282 24.7 5.22308 24.9008 5.20852C25.0687 5.1965 25.1229 5.11733 25.0927 4.94219C25.5235 4.85843 25.9199 4.72257 26.1823 4.52861C26.2107 4.50762 26.2234 4.49812 26.2396 4.48567C26.2627 4.46795 26.2823 4.45206 26.2994 4.43698C26.3259 4.4137 26.3457 4.39296 26.3581 4.37507C26.3687 4.3692 26.3788 4.36331 26.3885 4.3574L26.3726 4.34575C26.3706 4.35443 26.3657 4.36423 26.3581 4.37507C26.1372 4.49851 25.7513 4.61289 25.0908 4.77464L25.0849 4.75397C25.6714 4.56113 26.5793 3.97394 26.6164 3.7229C26.6227 3.71736 26.6289 3.71178 26.6351 3.70614L26.6171 3.69923C26.6179 3.70674 26.6176 3.71464 26.6164 3.7229C26.4643 3.85584 26.2499 3.96163 25.8919 4.09978C25.8619 4.11135 25.8311 4.12312 25.791 4.13836L25.6912 4.17623L25.682 4.15687C26.0428 3.94692 26.3336 3.63877 26.3634 3.40217C26.3712 3.39258 26.3785 3.38283 26.3854 3.37286L26.366 3.36656C26.3658 3.37823 26.365 3.3901 26.3634 3.40217C26.2636 3.52635 26.0984 3.62198 25.7806 3.76512L25.7707 3.76954C25.742 3.78242 25.6595 3.81944 25.6329 3.83153C25.5888 3.85152 25.5521 3.86862 25.518 3.88511L25.5067 3.86699C25.6655 3.7409 25.7208 3.69605 25.8072 3.62074C25.9699 3.47895 26.0939 3.35022 26.1774 3.22869C26.2626 3.10465 26.3012 2.99325 26.2876 2.89567C26.2927 2.88767 26.2975 2.87965 26.3021 2.87159L26.2824 2.8688C26.2846 2.87763 26.2863 2.88659 26.2876 2.89567C26.1721 3.07878 25.9489 3.24663 25.5913 3.4488C25.5346 3.48086 25.3926 3.55827 25.2927 3.61268C25.2422 3.64019 25.2025 3.66182 25.1901 3.66873L25.1779 3.65119C25.4057 3.45408 25.5341 3.28146 25.547 3.06371L25.565 3.05032L25.5479 3.04145C25.5477 3.04892 25.5474 3.05635 25.547 3.06371C25.0594 3.42369 24.4612 3.67978 23.8347 3.83219L23.8289 3.81804L23.8266 3.81253C23.9792 3.72015 24.1393 3.54756 24.1864 3.4251L24.2119 3.40812L24.1955 3.39661C24.1932 3.40574 24.1902 3.41526 24.1864 3.4251C23.7273 3.72632 23.0444 3.92927 22.5446 3.96253C22.0924 3.99239 21.7997 4.03042 21.446 4.11525C21.3786 4.04715 21.1798 4.05078 20.9324 4.11844C20.9284 4.11398 20.9243 4.1096 20.92 4.10528L20.9153 4.12319L20.9324 4.11844C21.0184 4.21426 21.0446 4.34108 21.0367 4.5417L21.0168 4.54564L21.0144 4.56115C21.025 4.34497 20.9982 4.21532 20.9048 4.1204L20.9095 4.10249C21.1722 4.02819 21.3845 4.02265 21.4509 4.09726C21.7959 4.00919 22.0898 3.97101 22.5432 3.94108C23.0487 3.90743 23.7443 3.69854 24.1999 3.39029L24.2163 3.4018C24.1876 3.51748 24.0422 3.68817 23.8905 3.79613C24.5 3.64082 25.0797 3.38646 25.5522 3.03308L25.5693 3.04194C25.5645 3.25448 25.4571 3.42277 25.2612 3.60539L25.2828 3.5936L25.2829 3.59356L25.2831 3.59341C25.383 3.53902 25.5244 3.46196 25.5808 3.43006C25.9507 3.22091 26.1754 3.049 26.2836 2.86084L26.3032 2.86363C26.3306 2.97458 26.2913 3.10074 26.195 3.2409C26.1103 3.3642 25.9852 3.4941 25.8213 3.63697C25.7491 3.69987 25.6986 3.74157 25.5921 3.82653L25.624 3.81193C25.6506 3.79986 25.7328 3.76297 25.7617 3.75001L25.7718 3.7455C26.1104 3.59301 26.2738 3.49508 26.3679 3.36051L26.3874 3.36682C26.3846 3.59594 26.1277 3.8952 25.789 4.11611L25.8842 4.07971C26.2547 3.93676 26.47 3.82881 26.6206 3.69029L26.6385 3.6972C26.66 3.92483 25.876 4.45951 25.2704 4.70792C25.8459 4.56305 26.1848 4.4557 26.3775 4.33899L26.3934 4.35064C26.3867 4.37946 26.3593 4.4129 26.3136 4.45315C26.296 4.46858 26.2761 4.48476 26.2527 4.50275C26.2363 4.51531 26.2235 4.52486 26.195 4.54592C25.9294 4.74224 25.5305 4.87898 25.1051 4.95025C25.1468 5.12495 25.0838 5.21699 24.9023 5.22997C24.6978 5.2448 24.2636 5.16382 24.0713 5.06106C24.0464 5.0761 24.019 5.08433 23.9786 5.0902C24.1732 5.24138 24.2499 5.35944 24.2019 5.43475C24.1626 5.49654 24.0464 5.50368 23.8973 5.47479C23.932 5.59104 23.8851 5.65981 23.7772 5.67061C23.6885 5.67951 23.5648 5.64763 23.446 5.58712C23.5311 5.71611 23.5175 5.81221 23.3883 5.83915C23.2405 5.87002 23.1317 5.85494 23.0077 5.77824C22.9914 5.86133 22.9176 5.91371 22.8236 5.90921C23.1544 6.11608 23.2049 6.21894 23.1096 6.34687C23.0384 6.44294 22.7942 6.43562 22.6457 6.34722C22.5826 6.53116 22.3641 6.54578 22.1864 6.3939C22.1628 6.5034 21.9808 6.60403 21.844 6.52331ZM21.5107 4.50591C21.5159 4.4919 21.5198 4.47675 21.5223 4.46043L21.5096 4.44827L21.0367 4.5417L21.036 4.55639L21.024 4.54974L21.021 4.56958L21.0221 4.57015L21.0355 4.56742L21.035 4.57682C21.2188 4.66907 21.422 4.66373 21.4962 4.53667C21.6572 4.62415 21.9115 4.58128 21.9936 4.45869C22.2244 4.54226 22.4402 4.49208 22.4786 4.28027L22.4646 4.26817L22.0114 4.4236C22.0179 4.40552 22.0209 4.38613 22.0199 4.36555L21.5107 4.50591ZM21.506 4.51753C21.5077 4.51375 21.5092 4.50987 21.5107 4.50591L21.4892 4.51183L21.4869 4.5314L21.4962 4.53667L21.4993 4.53127L21.5204 4.52489C21.672 4.59743 21.9001 4.55623 21.9818 4.45431L21.9936 4.45869C21.9954 4.45606 21.9971 4.4534 21.9987 4.4507L22.0175 4.44424C22.224 4.51336 22.4104 4.46954 22.4537 4.29466L22.4716 4.28852L22.4576 4.27642C22.4564 4.28265 22.4551 4.28873 22.4537 4.29466L22.0175 4.44424C22.0132 4.44281 22.0089 4.44132 22.0046 4.43978C22.0072 4.43451 22.0095 4.42912 22.0114 4.4236L21.999 4.42787C22.007 4.41182 22.0117 4.39461 22.0123 4.37638L21.5204 4.52489C21.5155 4.52255 21.5107 4.5201 21.506 4.51753ZM21.9945 4.4361C21.9978 4.43736 22.0012 4.43859 22.0046 4.43978C22.0027 4.44349 22.0008 4.44713 21.9987 4.4507L21.9885 4.4542L21.9886 4.44522C21.9907 4.44223 21.9927 4.43919 21.9945 4.4361ZM21.9945 4.4361C21.9926 4.4354 21.9907 4.43469 21.9888 4.43397L21.9886 4.44522C21.9865 4.4483 21.9842 4.45133 21.9818 4.45431L21.9812 4.45407L21.9815 4.43385L21.999 4.42787C21.9976 4.43065 21.9961 4.43339 21.9945 4.4361ZM21.506 4.51753C21.5039 4.52225 21.5017 4.52683 21.4993 4.53127L21.4954 4.53242L21.4977 4.51285L21.506 4.51753ZM21.0511 4.56424L21.0355 4.56742L21.036 4.55639L21.0511 4.56424ZM21.4982 4.47294C21.4613 4.64154 21.2476 4.66331 21.0511 4.56424L21.4982 4.47294ZM21.4982 4.47294C21.4994 4.46783 21.5003 4.46258 21.5011 4.4572L21.5138 4.46977L21.4982 4.47294ZM23.8286 3.81814L22.8627 4.12996L22.8677 4.1508C22.9701 4.13365 23.131 4.08624 23.3449 4.01333C23.3745 4.00325 23.4049 3.99272 23.4365 3.98167C23.543 3.94445 23.8462 3.83467 23.8357 3.83841L23.8289 3.81804L23.8288 3.81807L23.8286 3.81814ZM23.8286 3.81814C23.8187 3.82176 23.5322 3.92544 23.4295 3.96137C23.398 3.97239 23.3675 3.98291 23.338 3.99296C23.1252 4.06551 22.965 4.11269 22.8642 4.12959L22.8693 4.15043L23.8354 3.83851L23.8286 3.81814ZM21.0144 4.56115L21.0142 4.56587L21.0137 4.56563L21.0144 4.56115ZM17.2497 3.49304C17.318 3.5926 17.4972 3.73858 17.61 3.77408C17.6182 3.8531 17.6515 3.92967 17.7077 3.99139L17.1974 3.82767L17.1837 3.8407C17.1957 3.88529 17.2158 3.92457 17.2419 3.95811L16.8904 3.81559C16.9195 3.81614 16.9514 3.81416 16.9862 3.80952L16.992 3.79088L16.9101 3.71667L17.2497 3.49304ZM16.8792 3.56828L17.2497 3.49304L17.2651 3.47841L17.6081 3.74192L17.6084 3.75087C17.59 3.74441 17.5699 3.73507 17.5489 3.72354L17.3332 3.55785C17.3064 3.53088 17.2836 3.50444 17.2674 3.48085L17.252 3.49548L17.3332 3.55785C17.3948 3.61968 17.4773 3.68426 17.5489 3.72354L17.6096 3.77017L17.61 3.77408L17.6198 3.77691L17.629 3.75798L17.6081 3.74192C17.608 3.73365 17.6081 3.72537 17.6085 3.7171L17.6239 3.70799L18.3969 4.08539C18.3976 4.0903 18.3985 4.09517 18.3997 4.09998L18.3852 4.10358L17.6295 3.73461C17.6295 3.72915 17.6297 3.72368 17.6299 3.71821L17.6146 3.72732L17.6295 3.73461C17.6289 3.88524 17.7261 4.03456 17.9026 4.08774C18.0591 4.1349 18.2126 4.14075 18.3423 4.11552C18.3092 4.12544 18.2762 4.13699 18.2439 4.1498C18.1357 4.15699 18.0169 4.14463 17.8964 4.10834C17.8366 4.0903 17.7853 4.06172 17.7434 4.02592L17.7484 4.02193L17.7449 4.00333L17.7077 3.99139C17.7139 3.99821 17.7204 4.00485 17.7271 4.0113L17.7187 4.01748L17.2102 3.85438C17.2081 3.84809 17.2062 3.84167 17.2044 3.83513L17.1908 3.84815L17.2102 3.85438C17.2323 3.91977 17.2739 3.97186 17.326 4.00888L17.2768 3.99645L17.2764 3.99603L17.2811 3.9946L17.2819 3.97435L17.2419 3.95811C17.2474 3.96523 17.2532 3.9721 17.2593 3.9787L17.2453 3.98269L16.8262 3.81273L16.8274 3.80974C16.8467 3.81318 16.8677 3.81515 16.8904 3.81559L16.8246 3.78889L16.8109 3.7943L16.8061 3.80515C16.7989 3.80331 16.7919 3.80124 16.7852 3.79893L16.8084 3.78365C16.8486 3.79437 16.8989 3.7972 16.9601 3.79095L16.9776 3.80684L16.9834 3.7882C16.9754 3.78926 16.9677 3.79018 16.9601 3.79095L16.8916 3.72887L16.9101 3.71667L16.7708 3.59029L16.8271 3.57886C16.8427 3.58131 16.8583 3.58349 16.874 3.58536L16.8792 3.56828ZM16.8749 3.56914L16.8792 3.56828L16.8801 3.56512L15.9042 3.06138L15.8919 3.07875C16.1254 3.30056 16.3965 3.47003 16.6819 3.54765C16.6733 3.56711 16.6677 3.58906 16.6656 3.61164L16.5352 3.63812L16.1285 3.49316L16.1181 3.51159C16.1948 3.57498 16.2992 3.62175 16.4326 3.65896L15.8333 3.78064L15.8332 3.78061L15.8271 3.80193L15.8273 3.80197L16.2245 3.9252C16.2206 3.96259 16.242 4.00467 16.2922 4.04326C16.3099 4.05684 16.331 4.06984 16.355 4.08225C16.3042 4.10661 16.285 4.14644 16.2958 4.18909L15.4901 3.9609L15.4814 3.98033C15.689 4.11247 15.9488 4.18301 16.306 4.21537C16.3157 4.2337 16.3307 4.25208 16.3509 4.26954C16.3267 4.29775 16.3173 4.32949 16.3209 4.3618C16.2729 4.36027 16.2043 4.3725 16.1595 4.39131L16.1651 4.41259L16.3262 4.38653C16.3359 4.41752 16.3571 4.44835 16.3883 4.47645C16.6477 4.71125 17.2883 4.70672 17.8941 4.49581C17.9078 4.52641 17.9432 4.54747 17.9997 4.56328C18.0226 4.56973 18.0458 4.57522 18.0693 4.57977L17.3236 4.90227L17.3294 4.92279C17.5558 4.8895 17.8739 4.74176 18.1088 4.58653C18.1712 4.59577 18.2351 4.59869 18.2995 4.59568C18.272 4.64701 18.2671 4.71278 18.2871 4.76853L17.4982 5.04825L17.5048 5.0687C17.7646 4.99215 18.1041 4.87343 18.2957 4.78891C18.3193 4.83655 18.3632 4.87358 18.429 4.88213L17.6376 5.22901L17.6446 5.24927C17.8295 5.20131 18.1961 5.04107 18.4768 4.88643C18.5572 4.8908 18.646 4.88212 18.7376 4.86323C18.7205 4.89875 18.7103 4.93377 18.7069 4.96706L17.9512 5.32168L17.9584 5.34184C18.1874 5.28311 18.3941 5.17963 18.7056 4.99319C18.7059 5.04338 18.7222 5.08857 18.7536 5.12408L18.0622 5.47286L18.0692 5.493C18.1443 5.47722 18.234 5.44321 18.3357 5.39382C18.3915 5.36674 18.45 5.33548 18.5111 5.30054C18.5982 5.25064 18.6667 5.20787 18.7703 5.14079C18.8053 5.17187 18.8542 5.19323 18.916 5.20068C18.9231 5.20153 18.9303 5.20216 18.9377 5.20259L18.3717 5.46791L18.3785 5.48817C18.5041 5.46148 18.6242 5.41227 18.7535 5.34107C18.7827 5.32501 18.8422 5.28957 18.8952 5.25797L18.8953 5.25795C18.9365 5.23338 18.9738 5.21114 18.99 5.20213C19.0545 5.19763 19.1265 5.17908 19.2024 5.14786C19.1686 5.20111 19.1504 5.2437 19.1476 5.28117L18.5695 5.5704L18.5778 5.59017C18.6794 5.55466 18.9731 5.40471 19.148 5.30603C19.1509 5.33099 19.1614 5.35403 19.1794 5.37709C19.1973 5.4001 19.2186 5.41259 19.2466 5.4148L18.85 5.59951L18.8586 5.61924C18.9948 5.56422 19.1805 5.47804 19.3376 5.39732C19.3799 5.38187 19.432 5.35644 19.4972 5.32128C19.5485 5.29367 19.609 5.2545 19.6783 5.20482C19.6965 5.19176 19.7152 5.17804 19.7346 5.16361C19.7198 5.21726 19.7191 5.26353 19.7307 5.30211L19.0954 5.68781L19.1047 5.70705C19.275 5.64164 19.5901 5.44426 19.7392 5.32429C19.7555 5.35938 19.7835 5.38691 19.8215 5.40658L19.3801 5.68793L19.39 5.70691C19.5581 5.63561 19.7526 5.50985 19.8466 5.41783L19.8508 5.41944C19.9489 5.45606 20.0477 5.45717 20.1402 5.40842L19.7612 5.69339L19.773 5.71125C19.9579 5.60147 20.1772 5.4392 20.2493 5.35295L20.2346 5.33744L20.2338 5.3381L20.2308 5.32156L19.7839 5.1263C19.8086 5.10742 19.8342 5.08748 19.8622 5.06543L19.9528 4.99372L19.9443 4.97469L19.6515 5.02896L19.8562 4.87201L19.8437 4.85453C19.7783 4.89858 19.6792 4.97059 19.5866 5.041L19.3222 5.09C19.4791 5.00321 19.6453 4.8696 19.795 4.69992L19.7854 4.68215L19.3991 4.73731L19.4506 4.70315L19.5677 4.62468C19.6122 4.59504 19.6477 4.57188 19.6814 4.55068L19.6703 4.53231L19.67 4.53246L19.2998 4.75148L18.9581 4.80027C19.1685 4.72426 19.3692 4.60692 19.4921 4.48212C19.5444 4.47489 19.5983 4.46474 19.6532 4.45144L19.656 4.45199L19.656 4.45077L19.6606 4.44964L19.6601 4.42864L19.0186 4.30539C19.0595 4.30233 19.1016 4.29742 19.1444 4.29051L19.1457 4.26957L18.4098 4.05366L18.3961 4.06346C18.3957 4.07086 18.396 4.07817 18.3969 4.08539L18.4211 4.09718L18.4218 4.09958L18.4188 4.09808L18.4149 4.0976L18.415 4.0974L18.4145 4.09754L18.4116 4.09719L18.3997 4.09998L18.4002 4.10177L18.3882 4.10504L18.3852 4.10358C18.3709 4.10723 18.3566 4.11122 18.3423 4.11552C18.358 4.11247 18.3733 4.10897 18.3882 4.10504L18.4035 4.11251L18.4066 4.12043C18.3871 4.1251 18.3673 4.13045 18.3476 4.13639C18.3144 4.1429 18.2797 4.14742 18.2439 4.1498C18.1994 4.16748 18.1563 4.18756 18.1166 4.20908L17.6237 4.08428C17.6666 4.07319 17.7074 4.05391 17.7434 4.02592L17.7379 4.02117L17.7349 4.0052L17.7271 4.0113L17.7379 4.02117L17.7384 4.02381L17.7187 4.01748C17.6754 4.04783 17.6256 4.06561 17.5742 4.07175L17.326 4.00888C17.3509 4.02663 17.3782 4.04092 17.4069 4.05156L17.3167 4.02873C17.3027 4.01898 17.2893 4.00821 17.2768 3.99645L17.2758 3.9962L17.2764 3.99603L17.2739 3.9937L17.2748 3.97404L17.2593 3.9787C17.264 3.98386 17.2689 3.98886 17.2739 3.9937L17.2739 3.99429L17.2453 3.98269L17.2344 3.98569L16.8135 3.87914C16.8125 3.85835 16.8166 3.83601 16.8262 3.81273L16.8165 3.80883L16.8186 3.80802L16.8274 3.80974L16.8303 3.80342L16.8186 3.80802L16.8061 3.80515C16.7962 3.82939 16.7914 3.85272 16.7915 3.87461C16.7583 3.86829 16.7267 3.86253 16.6966 3.85733L16.7852 3.79893C16.74 3.78334 16.7074 3.75717 16.6872 3.72185L16.6828 3.71351L16.6835 3.71363L16.6889 3.6929L16.6725 3.68707C16.6654 3.66287 16.6633 3.63686 16.6656 3.61164L16.6877 3.60716C16.6833 3.64281 16.6884 3.6808 16.7058 3.71114C16.7255 3.74566 16.7594 3.77055 16.8084 3.78365L16.8916 3.72887L16.7447 3.59559L16.7708 3.59029L16.7397 3.56206C16.7687 3.56864 16.7978 3.57425 16.8271 3.57886L16.8506 3.57408L16.8703 3.58425L16.8749 3.56914ZM16.8133 3.55479C16.8343 3.5584 16.8554 3.56148 16.8765 3.56401L16.8749 3.56914L16.8506 3.57408L16.8133 3.55479ZM16.7064 3.53189C16.7418 3.541 16.7775 3.54866 16.8133 3.55479L15.9655 3.11722C15.9457 3.09957 15.926 3.08154 15.9067 3.06314L15.8944 3.08051L15.9655 3.11722C16.1873 3.31416 16.4398 3.4628 16.7037 3.5312L16.6888 3.53368C16.6863 3.53816 16.684 3.54283 16.6819 3.54765L16.696 3.55141L16.7015 3.55639C16.6946 3.57186 16.6899 3.58921 16.6877 3.60716L16.7447 3.59559L16.7015 3.55639L16.7029 3.5532C16.7151 3.55633 16.7274 3.55928 16.7397 3.56206L16.7064 3.53189ZM16.7029 3.5532C16.7044 3.55009 16.7059 3.54706 16.7075 3.54413L16.691 3.54688L16.696 3.55141L16.7029 3.5532ZM16.7064 3.53189L16.7053 3.53092L16.7037 3.5312L16.7064 3.53189ZM16.6734 3.69004L16.6725 3.68707L16.5352 3.63812L16.4944 3.6464L16.1955 3.53986C16.1723 3.52589 16.1511 3.51097 16.1317 3.49499L16.1213 3.51342L16.1955 3.53986C16.2702 3.5849 16.365 3.62011 16.4801 3.64931L16.4326 3.65896C16.5069 3.6797 16.5903 3.69748 16.6828 3.71351L16.682 3.71195L16.6871 3.69243L16.6734 3.69004ZM16.5469 3.6651L16.4944 3.6464L16.4801 3.64931C16.5016 3.65478 16.5239 3.66003 16.5469 3.6651ZM16.5469 3.6651C16.5869 3.67393 16.6291 3.6822 16.6734 3.69004C16.6758 3.69756 16.6786 3.70489 16.682 3.71195L16.6817 3.71316L16.5469 3.6651ZM16.6702 3.8747L16.6966 3.85733C16.4913 3.82192 16.3587 3.81323 16.2992 3.83942C16.2639 3.8551 16.2404 3.87734 16.2301 3.90296C16.1842 3.88509 16.1408 3.87013 16.0932 3.85544C16.0743 3.84962 16.0546 3.84379 16.0319 3.83729C16.0452 3.84111 15.8868 3.79657 15.8333 3.78065L15.8333 3.78064L15.8273 3.80197C15.8808 3.8179 16.0396 3.86257 16.0262 3.8587C16.0487 3.86517 16.0683 3.87096 16.0871 3.87675C16.1033 3.88174 16.119 3.88677 16.1345 3.89194L16.2245 3.9252L16.2483 3.95375C16.2549 3.97703 16.2735 4.00181 16.3052 4.02619L16.3136 4.03235L16.355 4.08225C16.3626 4.08617 16.3705 4.09003 16.3787 4.09383L16.3782 4.09385L16.3793 4.09412L16.3808 4.09481C16.2964 4.12496 16.2929 4.19665 16.3699 4.25836L16.3677 4.25806L16.3587 4.26113C16.3559 4.26389 16.3533 4.2667 16.3509 4.26954C16.3561 4.27408 16.3617 4.27855 16.3677 4.28295C16.3223 4.33539 16.3381 4.40233 16.4026 4.46046C16.6497 4.68411 17.2633 4.68417 17.8519 4.48749L17.893 4.49324L17.8941 4.49581L17.9015 4.49322L17.8995 4.47242L17.8992 4.47238L17.9006 4.4532L17.8885 4.45018C17.8913 4.42884 17.9004 4.4042 17.9158 4.37558C17.9395 4.3317 17.9928 4.28457 18.0619 4.24102C18.0815 4.23773 18.1001 4.23418 18.1176 4.23036L18.118 4.20942L18.1166 4.20908L18.1131 4.21101L18.1131 4.20934C18.0982 4.21258 18.0825 4.21562 18.0661 4.21848L17.5728 4.09355C17.5899 4.09169 17.607 4.08861 17.6237 4.08428L17.5742 4.07175C17.5437 4.0754 17.5127 4.07495 17.4821 4.07061L17.4069 4.05156C17.4312 4.06057 17.4565 4.06696 17.4821 4.07061L17.5728 4.09355C17.4837 4.1032 17.3907 4.08015 17.3167 4.02873L17.2344 4.00788C17.2479 4.00435 17.2618 4.00046 17.2758 3.9962L17.2344 3.98569C17.2191 3.98977 17.2042 3.9934 17.1898 3.99658L16.8169 3.90218C16.8151 3.89475 16.8139 3.88706 16.8135 3.87914L16.8086 3.8779L16.808 3.87776L16.7915 3.87461C16.7916 3.88221 16.7922 3.88963 16.7934 3.89686C16.7497 3.8885 16.7086 3.8811 16.6702 3.8747ZM16.3756 4.0687C16.3521 4.05711 16.3313 4.04499 16.3136 4.03235L16.2483 3.95375C16.2372 3.91527 16.2588 3.88087 16.3079 3.8591C16.3599 3.83619 16.4829 3.84349 16.6702 3.8747L16.3756 4.0687ZM16.3857 4.07354L16.3834 4.07299L16.3774 4.07322C16.3694 4.07592 16.3619 4.07894 16.355 4.08225L16.3756 4.0687L16.3857 4.07354ZM16.3857 4.07354C16.5068 4.13057 16.695 4.17437 16.9069 4.20417L16.3857 4.07354ZM17.0736 4.24594L16.9069 4.20417C17.3059 4.2603 17.7889 4.26678 18.0661 4.21848L18.0894 4.22436C18.08 4.22985 18.0708 4.23541 18.0619 4.24102C17.8199 4.28174 17.431 4.28244 17.0736 4.24594ZM16.9022 4.22517C16.958 4.23307 17.0154 4.24 17.0736 4.24594L17.8885 4.45018L17.8881 4.45376C17.87 4.45541 17.851 4.45682 17.8312 4.45799L16.9022 4.22517ZM16.3813 4.09462L16.3842 4.09362L16.3787 4.09383L16.3793 4.09412L16.3813 4.09462ZM16.3813 4.09462L16.9022 4.22517C16.6919 4.19536 16.5043 4.15169 16.3808 4.09481L16.3813 4.09462ZM17.8754 4.46906L17.8312 4.45799L17.806 4.45934L16.3699 4.25836C16.3817 4.26781 16.3954 4.27702 16.4109 4.28581L16.3702 4.28012L16.3739 4.27629L16.3648 4.27936L16.3702 4.28012L16.3677 4.28295C16.3923 4.30112 16.4228 4.31795 16.459 4.33222C16.7091 4.43061 17.4012 4.49992 17.805 4.48092L17.8519 4.48749L17.8873 4.47543L17.8884 4.47533C17.8892 4.48164 17.8908 4.4876 17.893 4.49324L17.8965 4.49372L17.8946 4.47475L17.899 4.47434L17.8992 4.47238L17.8956 4.47188L17.897 4.45293L17.8881 4.45376C17.8875 4.4597 17.8875 4.46537 17.8879 4.47081L17.8754 4.46906ZM17.888 4.47222L17.8754 4.46906L17.806 4.45934C17.7647 4.46132 17.7203 4.46236 17.6736 4.46253L16.4109 4.28581C16.4274 4.29516 16.4461 4.30403 16.4669 4.3122C16.6887 4.39947 17.2676 4.464 17.6736 4.46253L17.805 4.48092C17.834 4.47955 17.8615 4.47773 17.8873 4.47543L17.8883 4.47506L17.8884 4.47533L17.8946 4.47475L17.8945 4.47385L17.8954 4.47407L17.8956 4.47188L17.8879 4.47081L17.888 4.47222ZM17.8929 4.47345L17.8945 4.47385L17.8944 4.47292L17.8929 4.47345ZM17.8929 4.47345L17.888 4.47222L17.8883 4.47506L17.8929 4.47345ZM16.8037 3.89882L16.8169 3.90218C16.8398 3.99253 16.9715 4.04458 17.1898 3.99658L17.2344 4.00788C16.9737 4.07581 16.8123 4.0105 16.7934 3.89686L16.8037 3.89882ZM16.8037 3.89882L16.804 3.89888L16.8034 3.89875L16.8037 3.89882ZM18.0894 4.22436C18.0971 4.21986 18.105 4.2154 18.1131 4.21101L18.1127 4.23027L18.0894 4.22436ZM16.2246 3.92456C16.1941 3.91263 16.1647 3.90203 16.1345 3.89194L15.8333 3.78065L16.2298 3.90364C16.2272 3.9104 16.2254 3.91739 16.2246 3.92456ZM16.2246 3.92456L16.2322 3.92754L16.2391 3.90651L16.2298 3.90364L16.2301 3.90296L16.2398 3.90677L16.2329 3.9278L16.2245 3.9252L16.2246 3.92456ZM18.4074 4.12207L18.4066 4.12043L18.4126 4.11902L18.4145 4.11999L18.4074 4.12207ZM18.6764 4.28433C18.5377 4.25291 18.4396 4.1942 18.4074 4.12207C18.3881 4.12758 18.3681 4.13236 18.3476 4.13639C18.1644 4.19158 17.9823 4.29777 17.9347 4.38583C17.8852 4.47749 17.9063 4.51481 18.0054 4.54257C18.2939 4.62371 18.6373 4.55001 18.8997 4.36609L18.9104 4.37153C18.9121 4.37469 18.914 4.37779 18.9161 4.38085C18.8091 4.45651 18.6888 4.51412 18.5639 4.55073L18.3171 4.57474L18.3093 4.5794C18.3057 4.58463 18.3025 4.59007 18.2995 4.59568L18.3222 4.59437L18.3192 4.59614L18.3243 4.59565C18.2664 4.68724 18.2972 4.84373 18.4323 4.86088C18.4444 4.86241 18.4568 4.86359 18.4694 4.86444L18.429 4.88213L18.4296 4.88222L18.4378 4.8832C18.3445 4.93372 18.2429 4.98443 18.1425 5.03117L17.9108 5.13274C17.8038 5.17645 17.7084 5.21049 17.6392 5.22845L17.6462 5.24871L17.9108 5.13274C17.9841 5.10275 18.0629 5.0682 18.1425 5.03117L18.4732 4.88622L18.4768 4.88643L18.4926 4.87768L18.4865 4.86537C18.5679 4.86883 18.658 4.85885 18.7506 4.83849C18.7459 4.84675 18.7415 4.855 18.7376 4.86323L18.7646 4.85736C18.6804 5.01328 18.7399 5.15782 18.9186 5.17932C18.9391 5.1818 18.9609 5.18234 18.9836 5.18103L18.9377 5.20259L18.9458 5.20296L18.8831 5.24017C18.851 5.2593 18.8167 5.27972 18.7884 5.29632L18.4944 5.43415C18.4545 5.44753 18.4145 5.45853 18.3741 5.46714L18.3808 5.4874L18.4944 5.43415C18.576 5.40677 18.6575 5.36942 18.7432 5.32222C18.7544 5.31606 18.7701 5.30698 18.7884 5.29632L18.9891 5.20219L18.99 5.20213L18.9948 5.19953L18.9856 5.18091C19.0569 5.17646 19.1381 5.15388 19.2243 5.11516C19.2164 5.1265 19.2091 5.13739 19.2024 5.14786C19.2144 5.14296 19.2264 5.13774 19.2386 5.13221C19.161 5.2449 19.15 5.30442 19.1962 5.36384C19.2211 5.39571 19.2572 5.40153 19.3207 5.38026L19.2466 5.4148L19.2547 5.41516C19.1161 5.48404 18.9656 5.55286 18.8506 5.59929L18.8591 5.61902L19.3269 5.4011L19.3376 5.39732L19.3618 5.38484L19.3535 5.36791C19.3898 5.35291 19.4337 5.33109 19.487 5.30233C19.5375 5.27522 19.5972 5.23652 19.6658 5.18732C19.6898 5.17013 19.7147 5.15177 19.7408 5.13212L19.746 5.12818C19.7415 5.14032 19.7377 5.15213 19.7346 5.16361L19.7536 5.14931L19.764 5.14144C19.7162 5.27686 19.7565 5.36154 19.8582 5.39928C19.9788 5.4443 20.0992 5.43274 20.2073 5.33475L20.2222 5.34128L20.219 5.3237L20.2073 5.33475L19.7643 5.14119L19.7839 5.1263L19.7623 5.11683L19.7593 5.11808C19.7875 5.09664 19.8166 5.07399 19.849 5.04851L19.9056 5.00373L19.9482 4.99584L19.9396 4.97682L19.9056 5.00373L19.6139 5.0578L19.6515 5.02896L19.6338 5.03224C19.7156 4.97077 19.7986 4.91078 19.8557 4.87239L19.8432 4.85492L19.605 5.03759L19.5866 5.041L19.5488 5.06986L19.2558 5.12417C19.2777 5.11375 19.2998 5.10235 19.3222 5.09L19.2494 5.10349C19.4146 5.02422 19.5959 4.88768 19.7593 4.7076L19.7885 4.70344L19.7789 4.68567L19.7593 4.7076L19.3564 4.76513L19.3991 4.73731L19.3554 4.74354L19.6811 4.55083L19.67 4.53246C19.6361 4.55377 19.6004 4.57703 19.5558 4.60676L19.4388 4.68525C19.407 4.70647 19.3771 4.72617 19.3487 4.7445L19.2998 4.75148L19.2514 4.78011L18.8353 4.83952C18.8763 4.82815 18.9174 4.81498 18.9581 4.80027L18.831 4.81842C19.0682 4.7523 19.3103 4.62512 19.4569 4.48659C19.4685 4.48525 19.4803 4.48376 19.4921 4.48212L19.495 4.47924L19.4874 4.46346C19.526 4.45808 19.5657 4.45104 19.6061 4.44225L19.6532 4.45144L19.656 4.45077L19.6555 4.43068C19.6389 4.43483 19.6224 4.43868 19.6061 4.44225L18.924 4.30924C18.9547 4.30906 18.9863 4.3078 19.0186 4.30539L18.9268 4.28774C18.9796 4.2873 19.035 4.28364 19.0923 4.27631L19.1397 4.29021L19.141 4.26927C19.1247 4.27192 19.1084 4.27426 19.0923 4.27631L18.4177 4.07839C18.4173 4.0738 18.4173 4.06916 18.4175 4.0645L18.4038 4.0743L18.4177 4.07839C18.4183 4.08473 18.4194 4.09099 18.4211 4.09718L18.4228 4.09801L18.4226 4.10001L18.4218 4.09958L18.4225 4.1019L18.4212 4.11795L18.4145 4.11999L18.4363 4.13107C18.4757 4.193 18.5741 4.24365 18.7091 4.2694L18.7706 4.3006C18.753 4.29843 18.7358 4.29586 18.7191 4.29292L18.7111 4.27291L18.6764 4.28433ZM18.6855 4.28636L18.6764 4.28433L18.2409 4.42758L18.2454 4.4492C18.4423 4.42422 18.5547 4.38219 18.7193 4.29336L18.7191 4.29292L18.717 4.29254L18.7094 4.27362L18.6855 4.28636ZM18.5678 4.34334L18.7176 4.29407L18.717 4.29254C18.7063 4.29063 18.6958 4.28857 18.6855 4.28636C18.6439 4.30831 18.6055 4.32712 18.5678 4.34334ZM18.3915 4.40132C18.4546 4.38668 18.5104 4.368 18.5678 4.34334L18.3915 4.40132ZM18.3915 4.40132C18.3466 4.41173 18.2981 4.4201 18.2428 4.42712L18.2473 4.44874L18.3915 4.40132ZM18.8292 4.30626C18.8092 4.30485 18.7896 4.30295 18.7706 4.3006L18.8997 4.36609L18.9058 4.36175C18.9071 4.36506 18.9087 4.36832 18.9104 4.37153L18.9156 4.37413L18.9141 4.35582L18.9058 4.36175C18.9032 4.35542 18.9013 4.3489 18.9001 4.34221L18.9252 4.35494L18.9267 4.37325L18.9161 4.38085C18.9427 4.42042 18.9986 4.45139 19.0751 4.4712L18.9914 4.50915L18.5639 4.55073C18.4854 4.57375 18.4051 4.58847 18.3252 4.59416L18.327 4.59148L18.3222 4.59437L18.3252 4.59416L18.3243 4.59565L18.9308 4.53666L18.5651 4.70244L18.5727 4.72249C18.7194 4.6762 18.881 4.60429 19.0236 4.52762L19.3681 4.49412C19.3969 4.49257 19.4266 4.49008 19.4569 4.48659L19.4582 4.48535L19.4883 4.48242L19.4798 4.46451L19.4874 4.46346L19.4863 4.46102L19.3227 4.47692C19.0741 4.48211 18.9022 4.41209 18.9218 4.30925L18.924 4.30924L18.9219 4.30883C18.9225 4.30572 18.9233 4.30258 18.9243 4.29941L18.912 4.30691L18.9219 4.30883L18.9218 4.30925L18.9 4.30916C18.9009 4.30387 18.9021 4.29851 18.9038 4.29306L18.9126 4.28778L18.9268 4.28774L18.9161 4.28567L18.9126 4.28778C18.865 4.28765 18.8197 4.2849 18.7772 4.27986L18.4226 4.10001L18.4225 4.1019C18.4257 4.11185 18.4303 4.12159 18.4363 4.13107L18.7091 4.2694C18.7309 4.27355 18.7536 4.27706 18.7772 4.27986L18.8292 4.30626ZM18.8292 4.30626C18.8522 4.30787 18.8758 4.30885 18.9 4.30916C18.8982 4.32059 18.8982 4.33162 18.9001 4.34221L18.8292 4.30626ZM19.4793 4.46457L19.4796 4.4642L19.4798 4.46451L19.4793 4.46457ZM19.4793 4.46457C19.4247 4.47189 19.3722 4.47589 19.3227 4.47692L19.1846 4.49036C19.1583 4.4876 19.1335 4.48386 19.1101 4.4792L19.1126 4.47774L19.1028 4.45865L19.0751 4.4712L19.0792 4.47224C19.0591 4.48376 19.0384 4.49525 19.0173 4.50664L18.9914 4.50915L18.9308 4.53666L18.967 4.53313C18.8374 4.59987 18.6958 4.66108 18.5663 4.70198L18.5739 4.72203L18.997 4.53021L19.0236 4.52762C19.0398 4.51892 19.0557 4.51016 19.0714 4.50137L19.1846 4.49036C19.2403 4.49622 19.3021 4.49765 19.3681 4.49412L19.4582 4.48535C19.4655 4.47845 19.4725 4.47152 19.4793 4.46457ZM19.0577 4.5027L19.0714 4.50137C19.0845 4.49399 19.0975 4.4866 19.1101 4.4792L19.1097 4.47912L19.1117 4.47825L19.1018 4.45916L19.0792 4.47224C19.0891 4.47472 19.0992 4.47701 19.1097 4.47912L19.0577 4.5027ZM19.0577 4.5027L19.0173 4.50664C19.0008 4.51554 18.984 4.52438 18.967 4.53313L18.997 4.53021L19.0577 4.5027ZM18.7693 4.84894L18.7646 4.85736C18.7881 4.85205 18.8117 4.84608 18.8353 4.83952L18.7693 4.84894ZM18.7693 4.84894L18.7719 4.8445L18.7642 4.84968L18.7693 4.84894ZM19.3049 4.77248L19.2514 4.78011L18.9698 4.94676L18.979 4.96609C19.0952 4.92242 19.2042 4.86329 19.3564 4.76513L19.3071 4.77217L19.3554 4.74354L19.3487 4.7445L19.3049 4.77248ZM19.2752 4.79103L19.3049 4.77248L19.3071 4.77217L19.2752 4.79103ZM19.2752 4.79103C19.2415 4.81184 19.2099 4.83056 19.1797 4.84755L19.2752 4.79103ZM19.1797 4.84755C19.1056 4.88915 19.0397 4.92031 18.9715 4.94595L18.9807 4.96528L19.1797 4.84755ZM19.2424 5.12666L19.2386 5.13221L19.2558 5.12417L19.2424 5.12666ZM19.2424 5.12666L19.2449 5.12307L19.2381 5.12745L19.2424 5.12666ZM19.5673 5.06643L19.5488 5.06986C19.4638 5.13532 19.3893 5.19573 19.359 5.22628L19.3731 5.24241L19.6139 5.0578L19.5954 5.06122L19.6338 5.03224L19.605 5.03759L19.5673 5.06643ZM19.5673 5.06643L19.3601 5.22533L19.3742 5.24146C19.4077 5.20764 19.4976 5.13565 19.5954 5.06122L19.5673 5.06643ZM19.7641 5.14109L19.764 5.14144L19.7643 5.14119L19.7641 5.14109ZM19.7641 5.14109L19.768 5.13052L19.7537 5.13655L19.7641 5.14109ZM19.7593 5.11808L19.746 5.12818L19.748 5.12286L19.7593 5.11808ZM19.3531 5.36809L19.3535 5.36791L19.3523 5.36554L19.3207 5.38026L19.3303 5.37693C19.3057 5.38958 19.2804 5.40237 19.2547 5.41516C19.275 5.41535 19.2986 5.41064 19.3269 5.4011L19.3614 5.38504L19.3531 5.36809ZM19.3531 5.36809L19.3519 5.36574L19.3303 5.37693C19.3375 5.37431 19.3451 5.37136 19.3531 5.36809ZM19.2494 5.10349C19.241 5.10753 19.2326 5.11142 19.2243 5.11516L19.2274 5.11069L19.2342 5.10631L19.2494 5.10349ZM18.9851 5.18094L18.9943 5.19974L18.9891 5.20219C18.9743 5.2032 18.9598 5.20346 18.9458 5.20296C18.9633 5.19261 18.9769 5.1847 18.9838 5.18102L18.9851 5.18094ZM18.9851 5.18094L18.9856 5.18091L18.9853 5.18026L18.9836 5.18103L18.9838 5.18102L18.9848 5.18047L18.9851 5.18094ZM18.831 4.81842C18.8041 4.82592 18.7772 4.83263 18.7506 4.83849L18.7534 4.83356L18.7612 4.82839L18.831 4.81842ZM18.4853 4.86531L18.4916 4.87813L18.4732 4.88622C18.4612 4.88551 18.4494 4.88451 18.4378 4.8832L18.4719 4.86457L18.4853 4.86531ZM18.4853 4.86531L18.4865 4.86537L18.4831 4.85842L18.4694 4.86444L18.4719 4.86457L18.4822 4.85888L18.4853 4.86531ZM18.4126 4.11902L18.4092 4.11727L18.4164 4.11816L18.4126 4.11902ZM18.4035 4.11251C18.4022 4.10896 18.4011 4.10538 18.4002 4.10177L18.4145 4.09754L18.4149 4.0976L18.4134 4.11735L18.4035 4.11251ZM20.2334 5.33969L20.234 5.33914L20.2338 5.3381L20.1402 5.40842C20.1702 5.39265 20.1994 5.37167 20.2278 5.34499C20.1529 5.43034 19.9408 5.58659 19.7621 5.69275L19.774 5.7106L20.2475 5.35465L20.2334 5.33969ZM20.2334 5.33969L20.2278 5.34499L20.2329 5.33913L20.2334 5.33969ZM19.8449 5.41718L19.8466 5.41783L19.8523 5.41212L19.839 5.39546L19.8215 5.40658L19.8253 5.4085C19.7881 5.44385 19.7364 5.48403 19.6774 5.52394L19.591 5.57897C19.5226 5.62006 19.4499 5.65816 19.3816 5.6871L19.3916 5.70609L19.591 5.57897C19.6209 5.56103 19.6499 5.54251 19.6774 5.52394L19.8449 5.41718ZM19.8449 5.41718L19.8505 5.41361L19.8371 5.39696L19.8253 5.4085C19.8316 5.4116 19.8381 5.41449 19.8449 5.41718ZM19.7384 5.3226L19.7392 5.32429L19.7502 5.31529L19.7379 5.29779L19.7307 5.30211L19.7311 5.30321C19.6711 5.3521 19.5812 5.41507 19.4845 5.47671L19.3346 5.56774C19.2458 5.61886 19.1609 5.66244 19.0971 5.68697L19.1064 5.70621L19.3346 5.56774C19.3843 5.53909 19.4353 5.50807 19.4845 5.47671L19.7384 5.3226ZM19.7384 5.3226C19.7356 5.31637 19.7332 5.30991 19.7311 5.30321L19.7366 5.29868L19.749 5.31619L19.7384 5.3226ZM19.1479 5.30503L19.148 5.30603L19.1641 5.2969L19.1541 5.27792L19.1476 5.28117L19.1475 5.28162C18.9751 5.37948 18.6727 5.53423 18.5707 5.56987L18.5791 5.58964L19.1479 5.30503ZM19.1479 5.30503C19.1471 5.29743 19.147 5.28964 19.1475 5.28162L19.1536 5.2782L19.1636 5.29717L19.1479 5.30503ZM18.7695 5.14012L18.7703 5.14079L18.7781 5.13572L18.7675 5.11708L18.7536 5.12408L18.7547 5.1253C18.6842 5.17094 18.63 5.20525 18.5745 5.23847L18.1784 5.43829C18.1374 5.45336 18.0994 5.46468 18.0648 5.47195L18.0718 5.49208L18.1784 5.43829C18.2241 5.42152 18.2736 5.40011 18.3264 5.37446C18.3817 5.34761 18.4398 5.31657 18.5004 5.28186C18.5263 5.26705 18.5505 5.25286 18.5745 5.23847L18.7695 5.14012ZM18.7695 5.14012C18.7642 5.1354 18.7593 5.13045 18.7547 5.1253L18.7665 5.11766L18.7771 5.13629L18.7695 5.14012ZM18.7056 4.99141L18.7056 4.99319L18.7198 4.98469L18.7098 4.96572L18.7069 4.96706L18.7069 4.96739C18.6318 5.01246 18.5628 5.05273 18.4982 5.08873L18.096 5.27748C18.0485 5.29426 18.0013 5.30865 17.9531 5.321L17.9603 5.34116L18.096 5.27748C18.2209 5.23334 18.3477 5.17263 18.4982 5.08873L18.7056 4.99141ZM18.7056 4.99141L18.7189 4.9852L18.7088 4.96623L18.7069 4.96739C18.7061 4.97551 18.7057 4.98352 18.7056 4.99141ZM18.2954 4.78837L18.2957 4.78891L18.3033 4.78555L18.2954 4.76558L18.2871 4.76853L18.2873 4.76913C18.0967 4.85323 17.7578 4.97173 17.4988 5.04807L17.5054 5.06852L18.2954 4.78837ZM18.2954 4.78837C18.2924 4.78212 18.2897 4.7757 18.2873 4.76913L18.2946 4.76589L18.3025 4.78586L18.2954 4.78837ZM18.1081 4.58642L18.1088 4.58653L18.1115 4.58478L18.1013 4.56593L18.0693 4.57977L18.0775 4.58132C18.045 4.60237 18.0109 4.62322 17.9759 4.6436L17.428 4.88054C17.3925 4.88969 17.3584 4.89679 17.3263 4.90151L17.3321 4.92202L17.428 4.88054C17.5978 4.83678 17.7997 4.74609 17.9759 4.6436L18.1081 4.58642ZM18.1081 4.58642C18.0979 4.58489 18.0877 4.58319 18.0775 4.58132L18.0997 4.56683L18.1098 4.58568L18.1081 4.58642ZM16.3255 4.3842L16.3262 4.38653L16.3365 4.38485L16.336 4.36283C16.3313 4.36231 16.3262 4.36197 16.3209 4.3618L16.3213 4.3648L16.1618 4.39059L16.1675 4.41187C16.2113 4.39348 16.2807 4.3816 16.3255 4.3842ZM16.3255 4.3842C16.3236 4.37773 16.3222 4.37125 16.3213 4.3648L16.3332 4.36286L16.3338 4.38489L16.3255 4.3842ZM16.3054 4.21417L16.306 4.21537L16.3124 4.21594L16.3162 4.19488L16.2958 4.18909L16.2968 4.19293C16.26 4.18949 16.2243 4.18564 16.1896 4.18135L15.5653 4.00455C15.5405 3.9912 15.5163 3.97708 15.4929 3.96217L15.4843 3.98159L15.5653 4.00455C15.7324 4.09427 15.9336 4.14974 16.1896 4.18135L16.3054 4.21417ZM16.3054 4.21417C16.3018 4.20706 16.2989 4.19996 16.2968 4.19293L16.3142 4.19451L16.3104 4.21557L16.3054 4.21417ZM17.6096 3.77017L17.616 3.77505L17.6252 3.75612C17.6198 3.75468 17.6142 3.75292 17.6084 3.75087C17.6086 3.75732 17.609 3.76375 17.6096 3.77017ZM20.2421 5.50047C20.1979 5.55986 20.0865 5.69146 20.0157 5.76779L20.0317 5.78208L20.2588 5.51387L20.2421 5.50047ZM20.2425 5.49994L20.2593 5.51334C20.2145 5.5734 20.1027 5.70559 20.0314 5.78245L20.0154 5.76815L20.2425 5.49994Z" fill="black"/>
<path fill-rule="evenodd" clip-rule="evenodd" d="M20.1582 3.51904C20.1155 3.6268 20.0917 3.85482 20.1044 3.94381C20.1068 3.96087 20.1065 3.96518 20.0989 4.03677C20.0852 4.16733 20.0907 4.26635 20.1338 4.39425L20.1541 4.38735C20.1121 4.26286 20.1069 4.16676 20.1203 4.03902C20.1281 3.96419 20.1284 3.96057 20.1256 3.94078C20.1134 3.85539 20.1368 3.63116 20.1781 3.52699L20.1582 3.51904ZM19.829 4.09412C19.8231 4.01318 19.8314 3.90779 19.8534 3.8321L19.874 3.83811C19.8528 3.91114 19.8446 4.01401 19.8504 4.09255L19.829 4.09412ZM19.8436 4.22748C19.8261 4.30252 19.839 4.47714 19.8631 4.57371L19.8838 4.5685C19.8606 4.47496 19.8479 4.30352 19.8645 4.2324L19.8436 4.22748ZM19.9195 4.80503C19.9095 4.7892 19.902 4.77428 19.8971 4.76027L19.9173 4.75276C19.9215 4.76498 19.9283 4.77841 19.9374 4.7929C19.9488 4.81105 19.9635 4.83038 19.9813 4.85104C19.9959 4.86812 20.0079 4.88096 20.0307 4.90477L20.0155 4.92044C19.9924 4.89635 19.9802 4.88329 19.9652 4.86581C19.9469 4.84439 19.9315 4.82423 19.9195 4.80503ZM20.0028 4.35589C19.993 4.48064 20.0615 4.71741 20.1311 4.79769C20.1463 4.93048 20.2384 5.12055 20.3683 5.25155L20.3835 5.23638C20.2569 5.10876 20.167 4.92306 20.1498 4.78925C20.0816 4.70788 20.0148 4.47683 20.0242 4.35759L20.0028 4.35589ZM19.9739 4.21682C19.9628 4.13798 19.9602 4.05892 19.9692 4.00869L19.9903 4.01249C19.9818 4.06001 19.9844 4.13705 19.9951 4.21382L19.9739 4.21682ZM20.3077 4.34519C20.262 4.19164 20.2603 3.82293 20.3075 3.62783L20.3284 3.63291C20.282 3.82444 20.2836 4.1893 20.3282 4.33904L20.3077 4.34519ZM20.2494 4.40305C20.2236 4.51759 20.2263 4.65019 20.2595 4.74999L20.2798 4.74319C20.2479 4.64734 20.2453 4.51869 20.2703 4.4078L20.2494 4.40305ZM20.6384 4.22732C20.51 4.08387 20.4322 3.86998 20.4375 3.70298L20.459 3.70366C20.4538 3.86512 20.5296 4.07362 20.6544 4.21295L20.6384 4.22732ZM20.4038 4.23889C20.389 4.42418 20.3996 4.59438 20.4333 4.69163C20.442 4.71672 20.4481 4.74722 20.4567 4.80309L20.4651 4.85751C20.4684 4.87894 20.4715 4.89699 20.4748 4.91428C20.491 4.99865 20.5123 5.06074 20.5459 5.10874L20.5635 5.09635C20.5319 5.05138 20.5115 4.99186 20.4959 4.91022C20.4926 4.89319 20.4896 4.87536 20.4862 4.85414L20.4779 4.79981C20.4691 4.74265 20.4628 4.71131 20.4536 4.68456C20.421 4.59069 20.4106 4.42319 20.4252 4.24061L20.4038 4.23889ZM20.5764 4.54102L20.5683 4.51055L20.5891 4.50503L20.5971 4.53562C20.6083 4.57873 20.6148 4.61122 20.6179 4.64367C20.6223 4.69051 20.6181 4.73093 20.6031 4.7655L20.5834 4.75692C20.5968 4.72612 20.6006 4.6892 20.5965 4.64569C20.5936 4.61462 20.5873 4.5831 20.5764 4.54102ZM20.6941 4.36951C20.7297 4.48663 20.7519 4.62992 20.7468 4.6922L20.7682 4.69396C20.7735 4.62856 20.751 4.48273 20.7146 4.36323L20.6941 4.36951ZM20.8449 5.31742C20.8007 5.23981 20.7608 5.11584 20.7516 5.01578L20.773 5.01382C20.7818 5.11076 20.8209 5.23177 20.8635 5.30676L20.8449 5.31742ZM20.5927 5.31067C20.6332 5.43264 20.7026 5.55856 20.7654 5.6082L20.7787 5.5913C20.72 5.54489 20.6523 5.4222 20.613 5.30388L20.5927 5.31067ZM21.187 5.65199C21.1441 5.52204 21.116 5.4589 21.0482 5.36233L21.0657 5.34994C21.135 5.44858 21.1639 5.51344 21.2074 5.64523L21.187 5.65199Z" fill="black"/>
<path fill-rule="evenodd" clip-rule="evenodd" d="M20.2637 5.39101C20.277 5.39244 20.2854 5.39297 20.3083 5.39412C20.3617 5.39679 20.3805 5.40223 20.4045 5.4277C20.4204 5.44449 20.4361 5.46986 20.4531 5.50681C20.5124 5.63576 20.6745 5.83291 20.7692 5.89432L20.7691 5.89438C20.8945 6.11514 20.9503 6.40656 20.9113 6.56297C20.9002 6.49416 20.8612 6.4412 20.8011 6.39783C20.7777 6.38098 20.7628 6.37241 20.7222 6.35078C20.6686 6.39773 20.5903 6.45177 20.5507 6.46021L20.5552 6.48125C20.5998 6.47172 20.6816 6.41525 20.7251 6.36754C20.7449 6.38481 20.7579 6.39384 20.7723 6.40386L20.7885 6.41529C20.8445 6.45568 20.8801 6.50413 20.8902 6.56673L20.9112 6.56332L20.9098 6.56874L20.9305 6.57436C20.9722 6.42005 20.9218 6.13635 20.8033 5.91215C20.9494 5.97943 21.0427 6.05524 21.061 6.16218L21.0813 6.16476L21.0918 6.14122C21.1405 6.03149 21.159 5.95608 21.1405 5.87821L21.1423 5.88042L21.1595 5.90106C21.2132 5.96578 21.2527 6.01342 21.282 6.04942L21.28 6.0497C21.2829 6.07018 21.2856 6.10138 21.2888 6.14894C21.2894 6.15743 21.291 6.18202 21.2927 6.20996C21.2951 6.24793 21.2979 6.2921 21.2992 6.3105C21.3069 6.42347 21.3146 6.49874 21.3251 6.54782L21.346 6.54331C21.3358 6.49558 21.3282 6.42096 21.3206 6.30903C21.3193 6.29071 21.3165 6.24667 21.3141 6.20874C21.3123 6.18072 21.3108 6.15603 21.3102 6.14749C21.3083 6.11872 21.3065 6.09587 21.3048 6.07762C21.3504 6.13491 21.3624 6.15497 21.3685 6.17666C21.3704 6.18316 21.3717 6.18982 21.3733 6.19766L21.3733 6.19767L21.3733 6.19767L21.3751 6.20645C21.393 6.29195 21.4617 6.40921 21.5306 6.48454L21.5464 6.46999C21.4799 6.39728 21.4131 6.28327 21.3961 6.20203L21.3938 6.19076C21.3921 6.18226 21.3907 6.17509 21.3887 6.16809C21.378 6.13069 21.3509 6.09799 21.1786 5.89058L21.1786 5.89058L21.1786 5.89058L21.1786 5.89058L21.1786 5.89057L21.1588 5.86665C21.1441 5.84903 21.1309 5.83288 21.1185 5.81729L21.1004 5.82851C21.143 5.92146 21.131 5.9987 21.0746 6.12715C21.0428 6.02471 20.9452 5.95229 20.8006 5.88732C20.7171 5.84988 20.5349 5.63345 20.4725 5.49779C20.4546 5.4589 20.4377 5.43164 20.4201 5.41291C20.3912 5.38235 20.3678 5.37557 20.3094 5.37264C20.2868 5.37151 20.2788 5.371 20.2659 5.36963L20.2637 5.39101ZM21.3048 6.07762C21.3036 6.06536 21.3024 6.05519 21.3012 6.04668L21.282 6.04942C21.2904 6.05973 21.298 6.06909 21.3048 6.07762ZM20.9112 6.56332L20.9114 6.56329L20.9113 6.56297L20.9112 6.56332ZM20.8033 5.91215L20.7919 5.90696C20.7849 5.90382 20.7773 5.89957 20.7692 5.89432L20.7877 5.88373C20.793 5.89308 20.7982 5.90256 20.8033 5.91215ZM20.4139 5.71696C20.4515 5.83043 20.4813 5.96667 20.4843 6.04551L20.5057 6.04468C20.5026 5.96349 20.4724 5.82541 20.4342 5.71018L20.4139 5.71696ZM20.7387 6.27637C20.7354 6.21273 20.6955 6.04605 20.6557 5.93501L20.6759 5.92774C20.7163 6.04059 20.7567 6.20917 20.7601 6.27524L20.7387 6.27637ZM21.1131 6.2376C21.1442 6.31281 21.1638 6.43154 21.1576 6.50229L21.1789 6.5042C21.1855 6.42989 21.1653 6.3077 21.1329 6.22936L21.1131 6.2376Z" fill="black"/>
</g>
</svg>
