<svg width="28" height="20" viewBox="0 0 28 20" fill="none" xmlns="http://www.w3.org/2000/svg">
<rect width="28" height="20" rx="2" fill="white"/>
<mask id="mask0_6748_105340" style="mask-type:luminance" maskUnits="userSpaceOnUse" x="0" y="0" width="28" height="20">
<rect width="28" height="20" rx="2" fill="white"/>
</mask>
<g mask="url(#mask0_6748_105340)">
<path fill-rule="evenodd" clip-rule="evenodd" d="M0 2.66667H28V0H0V2.66667Z" fill="#369D0C"/>
<path fill-rule="evenodd" clip-rule="evenodd" d="M0 20.0002H28V17.3335H0V20.0002Z" fill="#369D0C"/>
<path fill-rule="evenodd" clip-rule="evenodd" d="M0 8.00016H28V5.3335H0V8.00016Z" fill="#369D0C"/>
<path fill-rule="evenodd" clip-rule="evenodd" d="M0 14.6667H28V12H0V14.6667Z" fill="#369D0C"/>
<path fill-rule="evenodd" clip-rule="evenodd" d="M0 12H28V8H0V12Z" fill="#262626"/>
<path fill-rule="evenodd" clip-rule="evenodd" d="M0 5.33317H28V2.6665H0V5.33317Z" fill="#FFD40E"/>
<path fill-rule="evenodd" clip-rule="evenodd" d="M0 17.3332H28V14.6665H0V17.3332Z" fill="#FFD40E"/>
<path d="M-0.666341 19.3333V0.666667H-0.221897L12.2225 10L-0.221897 19.3333H-0.666341Z" fill="white" stroke="#262626" stroke-width="1.33333"/>
<path fill-rule="evenodd" clip-rule="evenodd" d="M4.00033 11.2998L2.04104 12.6966L2.76395 10.4016L0.830137 8.96978L3.2362 8.94812L4.00033 6.6665L4.76445 8.94812L7.17051 8.96978L5.2367 10.4016L5.95961 12.6966L4.00033 11.2998Z" fill="url(#paint0_linear_6748_105340)"/>
</g>
<defs>
<linearGradient id="paint0_linear_6748_105340" x1="0.666992" y1="6.6665" x2="0.666992" y2="13.3332" gradientUnits="userSpaceOnUse">
<stop stop-color="#F12F1F"/>
<stop offset="1" stop-color="#DE2010"/>
</linearGradient>
</defs>
</svg>
